<?xml version="1.0" encoding="UTF-8"?>
<svg width="90px" height="28px" viewBox="0 0 111 34" version="1.1" xmlns="http://www.w3.org/2000/svg" xmlns:xlink="http://www.w3.org/1999/xlink">
    <!-- Generator: Sketch 49.3 (51167) - http://www.bohemiancoding.com/sketch -->
    <title>logo/desktop red</title>
    <desc>Created with Sketch.</desc>
    <defs>
        <polygon id="path-1" points="0.0904 0.0217552632 4.892 0.0217552632 4.892 7 0.0904 7"></polygon>
        <polygon id="path-3" points="0 0.123338013 20.8058067 0.123338013 20.8058067 19.8923412 0 19.8923412"></polygon>
    </defs>
    <g id="logo/desktop-red" stroke="none" stroke-width="1" fill="none" fill-rule="evenodd">
        <g id="Page-1">
            <path d="M38.6221416,28.5487421 L38.6221416,30.6419025 C38.9911433,30.6759041 39.3473182,30.6985063 39.6902081,30.6985063 C40.8111853,30.6985063 41.3780874,30.3138758 41.3780874,29.5558176 C41.3780874,28.8883648 40.7846154,28.5487421 39.7694598,28.5487421 L38.6221416,28.5487421 Z M38.6221416,25.3351022 L38.6221416,27.3380503 L39.716549,27.3380503 C40.5209773,27.3380503 41.0881084,26.976022 41.0881084,26.2855739 C41.0881084,25.6521226 40.5342623,25.3014937 39.6375262,25.3014937 C39.2550105,25.3014937 38.9123497,25.3126965 38.6221416,25.3351022 Z M37,24.0568003 C37.8571101,24.0227987 38.7538462,24 39.6638672,24 C41.7606032,24 42.696736,24.7808569 42.696736,25.9575472 C42.696736,26.8062107 42.2617675,27.4060535 41.3780874,27.7566824 L41.3780874,27.7792846 C42.3405612,27.9943003 43,28.6167453 43,29.6238208 C43,31.1965409 41.6286696,32 39.5715595,32 C38.4505822,32 37.593472,31.9772013 37,31.9431997 L37,24.0568003 Z" id="Fill-1" fill="#C3151C"></path>
            <path d="M48.7650968,27 L46.8299137,29.3777357 L49,32 L47.3220642,32 L45.3309241,29.4779017 L47.1431181,27 L48.7650968,27 Z M44,32 L45.2864304,32 L45.2864304,27 L44,27 L44,32 Z" id="Fill-3" fill="#C3151C"></path>
            <g id="Group-7" transform="translate(50.000000, 27.000000)">
                <mask id="mask-2" fill="white">
                    <use xlink:href="#path-1"></use>
                </mask>
                <g id="Clip-6"></g>
                <path d="M4.892,4.71986053 C4.892,5.49409737 4.6618,6.06680789 4.1896,6.43799211 C3.7292,6.80917632 3.1418,7.00001842 2.4394,7.00001842 C1.645,7.00001842 0.9426,6.79849211 0.3322,6.40612368 L0.9196,5.44104474 C1.3456,5.72749211 1.8176,5.86528158 2.3472,5.86528158 C3.1648,5.86528158 3.5678,5.52596579 3.5678,4.84715 L3.5678,4.21088684 C3.1534,4.67767632 2.6006,4.91070263 1.9098,4.91070263 C0.8388,4.91070263 0.0904,4.24257105 0.0904,2.93817632 L0.0904,0.0217552632 L1.4146,0.0217552632 L1.4146,2.68359737 C1.4146,3.41546579 1.7486,3.77615 2.4048,3.77615 C2.854,3.77615 3.2456,3.58512368 3.5678,3.19275526 L3.5678,0.0217552632 L4.892,0.0217552632 L4.892,4.71986053 Z" id="Fill-5" fill="#C3151C" mask="url(#mask-2)"></path>
            </g>
            <path d="M61,32.0085747 C60.5626822,32.6570861 59.770788,33 58.8842442,33 C58.0213115,33 57.3240669,32.7206786 56.7920995,32.1739594 C56.2601322,31.6272403 56,30.9025503 56,30.0001104 C56,29.1484562 56.2601322,28.4363523 56.7801914,27.8642402 C57.3002505,27.2925698 57.9623866,27 58.7542808,27 C59.6999548,27 60.4091077,27.2543701 60.8936476,27.7754757 L60.2553279,28.9320649 C59.9007514,28.5635373 59.463639,28.3729805 58.9316717,28.3729805 C58.5413707,28.3729805 58.1869995,28.5255585 57.8913481,28.8304935 C57.5959019,29.1230633 57.4540303,29.5169838 57.4540303,30.0001104 C57.4540303,30.4958231 57.6078101,30.8899643 57.9032563,31.1948993 C58.2106106,31.4874692 58.5768899,31.6400471 58.9905966,31.6400471 C59.5106558,31.6400471 59.9717899,31.4110698 60.3618856,30.94075 L61,32.0085747 Z" id="Fill-8" fill="#C3151C"></path>
            <polygon id="Fill-10" fill="#C3151C" points="65.6533377 32 65.6533377 30.0889335 63.3466623 30.0889335 63.3466623 32 62 32 62 27 63.3466623 27 63.3466623 28.8888717 65.6533377 28.8888717 65.6533377 27 67 27 67 32"></polygon>
            <path d="M70.9917754,30.6627622 C72.1673284,30.6627622 72.7809243,30.392944 72.7809243,29.49412 C72.7809243,28.6186131 72.1946011,28.2053814 71.0354973,28.2053814 C69.9087248,28.2053814 69.2900703,28.6127332 69.2900703,29.5 C69.2900703,30.3755069 69.4737697,30.6627622 70.6331571,30.6627622 L70.9917754,30.6627622 Z M68.8203765,27.7097118 C69.3714772,27.2331358 70.1061363,27 71.0001063,27 C71.8938637,27 72.6166117,27.2331358 73.1674997,27.7097118 C73.7183877,28.1757995 74,28.7692194 74,29.500092 C74,30.2309646 73.7183877,30.8243845 73.1674997,31.3009605 C72.6166117,31.7672322 71.8938637,32 71.0001063,32 C70.1061363,32 69.3714772,31.7672322 68.8203765,31.3009605 C68.2692758,30.8243845 68,30.2309646 68,29.500092 C68,28.7692194 68.2692758,28.1757995 68.8203765,27.7097118 Z" id="Fill-12" fill="#C3151C"></path>
            <path d="M76.0456403,30 C76.5815168,30 77,30.4804873 77,30.9612001 C77,31.5192872 76.5815168,32 76.0456403,32 C75.4180291,32 75,31.5192872 75,30.9612001 C75,30.4804873 75.4180291,30 76.0456403,30" id="Fill-14" fill="#C3151C"></path>
            <path d="M48.3289478,9.59514531 C47.283725,10.7898395 46.006974,12.8047373 46.0006648,14.9806508 C45.9842227,16.337318 46.2635478,18.3931876 47.8729653,19.2915058 C49.8775677,20.4038733 51.7057039,20.1069229 53.5130006,19.0895182 C55.567503,17.9003763 57.1761558,16.0845942 57.1761558,16.0845942 C57.1761558,16.0845942 56.8889919,15.5347285 55.9095377,15.9105594 C54.9476727,16.2839014 53.7429994,17.0022496 52.7748252,17.1636482 C51.0403709,17.4378152 49.4741618,16.3690999 49.700528,14.1885915 C49.9353064,12.0044453 50.8895239,9.75750119 52.0829171,8.89326245 C52.788973,8.36713749 53.6340224,8.03170411 54.4760128,8.37422141 C55.0581791,8.62809394 55.3237387,8.88349812 55.5850922,9.49558746 C55.9122143,10.2727131 55.8722561,11.0502216 55.3092085,11.6917954 C54.8031348,12.2732516 54.0058824,12.6624845 53.2210571,12.5462698 C51.5753139,12.3029274 51.076123,14.0338939 51.076123,14.0338939 C51.076123,14.0338939 51.4544833,14.5291942 53.3099594,14.2753217 C54.5111913,14.0909482 55.8491224,13.3498166 56.6593756,12.6580809 C60.4309341,9.35888687 59.0448237,6.8103973 56.6953188,6.13589284 C54.3408431,5.45449592 50.182512,7.4487163 48.3289478,9.59514531" id="Fill-16" fill="#C3151C"></path>
            <path d="M62.1905011,13.3697373 C63.4577388,11.6901771 64.8716778,8.84699751 65.3322566,8.01137043 C65.7991964,7.18656053 67.6244162,5.55046219 67.9975307,7.46587554 C68.3601098,9.35482544 68.2016802,13.834876 68.1241551,14.6312909 C69.822353,12.8906908 71.9797382,7.55588992 73.6840983,6.41235957 C75.3822962,5.28582763 75.8066965,6.20045876 76.7389859,12.529088 C77.6575593,18.8907483 75.9923593,19.2355459 74.2225998,19.8102085 C72.475899,20.3813942 72.3206499,19.0549376 72.3186621,18.13625 C72.3280049,17.4717662 72.1866706,10.3202587 71.6777877,11.1672824 C71.6038407,11.3293469 69.4391006,14.9830423 68.7030094,16.1924416 C68.5406042,16.480449 68.1833923,16.9871179 67.8150485,17.5100126 C66.4390769,19.5023052 65.2272995,20.4723744 65.041438,18.8254589 C64.9082538,17.5100126 65.0521722,12.4661166 65.0688699,12.0036822 C65.1189631,11.0921417 64.9066635,11.5385435 64.6301572,11.9590613 C64.5118817,12.1348405 60.5366317,19.6796297 58.2999323,19.9674439 C57.0947148,20.134917 56.8975227,19.6392584 57.0400496,18.8714319 C57.168463,18.2347636 57.4246935,17.3896715 58.716779,16.5486358 C60.603025,15.3382708 61.5394888,14.2389749 62.1905011,13.3697373" id="Fill-18" fill="#C3151C"></path>
            <path d="M35.7356451,5.01474336 C34.9206914,4.8504914 32.3590361,6.07478623 31.5512943,7.88135527 C30.9006135,9.29744616 28.0506793,17.6994099 26.6701861,21.8164431 C26.3035772,22.9113211 26.0593715,23.6566321 26.0163,23.8026564 C25.8121609,24.5046259 27.5819006,25.0648243 28.1698773,24.9939388 C29.614477,24.8187502 30.7766075,24.0169333 31.6929296,20.9490064 C33.0435732,16.5067098 33.7581602,12.838281 34.2085083,11.7924152 C34.6752837,10.7445242 38.4573662,7.7069768 40.0267732,8.93673995 C42.0998169,10.5440193 40.1609962,17.0016935 36.6034867,17.8294343 C34.3128817,18.3793037 34.3924138,17.2026034 33.4412338,17.5072088 C33.0616032,18.7203645 34.7590228,19.9136722 37.1802448,19.6380286 C38.9351599,19.4346884 42.6635533,17.9197627 44.2259486,14.1567523 C46.3454695,9.04752394 43.7497576,5.95974909 40.8076704,5.7952946 C37.8768019,5.59539733 34.6111772,9.65308913 34.6111772,9.65308913 C34.6111772,9.65308913 36.1739732,5.09656554 35.7356451,5.01474336" id="Fill-20" fill="#C3151C"></path>
            <path d="M17.3275422,8.59601553 C16.2815986,9.78897214 15.0091071,11.8035221 15.000504,13.9790599 C14.9863567,15.3374072 15.2618465,17.3933048 16.8690935,18.2891708 C18.8757147,19.4051748 20.7072153,19.1071271 22.5117596,18.0872181 C24.5669404,16.9001957 26.1789669,15.086067 26.1789669,15.086067 C26.1789669,15.086067 25.8876092,14.535722 24.9108725,14.9089995 C23.9498126,15.2820856 22.7432781,16.0003098 21.7751446,16.1616805 C20.040572,16.4358002 18.472708,15.3688008 18.6952411,13.1871374 C18.9342156,11.0033683 19.8864813,8.75681199 21.0825009,7.89272243 C21.7900566,7.36668829 22.6354528,7.03131281 23.4781725,7.37453669 C24.0576379,7.63295957 24.3231864,7.88563973 24.5826171,8.49762341 C24.912402,9.27193494 24.8739749,10.047395 24.3086568,10.6907723 C23.8003102,11.2704053 23.0042383,11.6614852 22.2205931,11.5450992 C20.5724337,11.3037131 20.0738373,13.0324665 20.0738373,13.0324665 C20.0738373,13.0324665 20.4510346,13.5278727 22.3100651,13.2784468 C23.5114378,13.0897024 24.8474009,12.3486987 25.660679,11.656891 C29.4294026,8.35635223 28.0462181,5.81021682 25.6947089,5.1358288 C23.3410968,4.4545495 19.1814109,6.44919133 17.3275422,8.59601553" id="Fill-22" fill="#C3151C"></path>
            <path d="M89.5954024,14.4038666 C88.8243599,16.3700016 87.4808768,18.0224776 85.3717896,17.9381048 C84.2796809,17.8760265 83.226648,17.3067506 83.1553447,15.5518358 C83.1136504,14.3262206 83.6145863,12.6445313 84.1255933,11.3952764 C84.7786026,9.73722686 86.2290406,7.21430853 88.8805566,8.35689629 C90.6025111,9.08396264 90.5241581,12.1404089 89.5954024,14.4038666 M93.3724631,8.76876602 C91.5947147,4.88992563 87.1890167,5.78823601 84.169906,7.25140179 C84.169906,7.25140179 80.0983667,8.76876602 79.1458433,13.1407738 C78.5778339,15.723272 79.648592,18.7270574 82.7164467,19.6607313 C83.6782355,19.9399878 85.3883062,20.1929138 86.6715642,19.790846 C90.1529378,18.7030332 91.7056981,17.7240018 93.0377001,14.9568061 C94.2913491,12.3696952 94.2297141,10.6537956 93.3724631,8.76876602" id="Fill-24" fill="#C3151C"></path>
            <path d="M109.309145,18.8793379 C105.99776,16.2948886 104.45591,13.0778696 102.170976,11.6724471 C104.786469,9.24489913 106.068963,8.45629136 108.084607,8.55038906 C109.856834,8.64124945 110.657461,6.99691376 110.324626,6.06759109 C109.831374,4.68461392 108.390328,4.54627304 105.535971,6.24003159 C103.211088,7.61955564 100.619398,11.1160621 99.9833252,11.6277722 C100.598699,8.30370633 101.564502,5.43027343 101.564502,5.43027343 C100.863436,5.26538663 100.50659,5.17172058 99.9226779,5.25178995 C99.2240952,5.32603217 98.321009,5.47948048 97.8778488,6.42585296 C97.4535245,7.35150669 95.02018,16.2148192 94.4335775,18.1889284 C93.8668459,20.1574264 93.8703647,20.5771971 94.3584411,20.7813632 C94.8191952,20.9853135 96.4432188,21.4501906 97.8196853,20.144693 C99.2172647,18.8284043 99.6939568,13.5779254 99.8305685,13.5967018 C99.8552,13.5967018 99.8860411,13.5235387 99.920815,13.4272828 C100.200869,13.590443 100.859503,14.1569716 101.497025,15.4704546 C101.716017,15.9307995 101.87933,16.2165457 102.244042,16.8791144 C103.115252,18.4628045 103.656525,19.6549965 106.337426,21.2732179 C108.460497,22.5411628 110.433501,21.9308227 110.899637,21.1020723 C111.269937,20.4714451 110.587914,19.8677954 109.309145,18.8793379" id="Fill-26" fill="#C3151C"></path>
            <g id="Group-30">
                <mask id="mask-4" fill="white">
                    <use xlink:href="#path-3"></use>
                </mask>
                <g id="Clip-29"></g>
                <path d="M20.3966523,0.680242424 C20.1142318,0.274585859 20.4349234,-0.0666262626 17.6336804,0.243878788 C14.838914,0.559030303 4.2017271,2.00872727 3.25692336,2.14327273 C2.12253084,2.30064646 0.973026168,2.91317172 0.377960748,3.78226263 C-0.214357009,4.63862626 0.0664934579,5.02610101 0.0664934579,5.02610101 C0.0664934579,5.02610101 0.348325234,5.3570101 3.55013832,5.03438384 C6.71525047,4.72650505 8.87569907,4.67842424 8.87569907,4.67842424 L9.29883925,4.6590303 C7.6692785,9.25458586 4.78423178,17.9450909 4.62682991,18.4883232 C4.61603551,18.5291313 4.60975514,18.5669091 4.60897009,18.605899 C4.59621308,18.6477172 4.58698879,18.6753939 4.58168972,18.6968081 C4.38189533,19.3974141 6.11488598,19.9570101 6.68993271,19.886303 C6.73330654,19.8820606 6.77471776,19.8753939 6.81789533,19.8689293 C7.07440935,19.8547879 7.40118505,19.7852929 7.76309159,19.5818586 C8.69553084,19.1240808 9.48254019,18.0953939 10.1404093,15.8515556 C10.184372,15.7012525 10.2285308,15.5531717 10.2709234,15.4065051 L10.2603252,15.4065051 C11.3309327,11.7889293 12.4839701,6.71317172 13.0978766,4.45236364 C14.4662131,4.37943434 16.2574935,4.31155556 17.3577364,4.37175758 C19.3490075,4.47721212 20.0290542,3.98630303 20.5477738,3.14125253 C21.0629607,2.31377778 20.697129,1.08226263 20.3966523,0.680242424" id="Fill-28" fill="#C3151C" mask="url(#mask-4)"></path>
            </g>
        </g>
    </g>
</svg>