<?xml version="1.0" encoding="UTF-8"?>
<svg width="18px" height="23px" viewBox="0 0 18 23" version="1.1" xmlns="http://www.w3.org/2000/svg" xmlns:xlink="http://www.w3.org/1999/xlink">
    <!-- Generator: Sketch 49.3 (51167) - http://www.bohemiancoding.com/sketch -->
    <title>icons/mobilemenu/food-menu</title>
    <desc>Created with Sketch.</desc>
    <defs></defs>
    <g id="Symbols" stroke="none" stroke-width="1" fill="none" fill-rule="evenodd">
        <g id="blocks/menu/mobile" transform="translate(-216.000000, -21.000000)">
            <g id="icons/mobilemenu/food-menu" transform="translate(216.000000, 20.000000)">
                <path d="M6,16 L4,16 C2.8954305,16 2,16.8954305 2,18 L2,21 C2,22.1045695 2.8954305,23 4,23 C5.1045695,23 6,22.1045695 6,21 L6,16 Z" id="Rectangle" stroke="#ffffff" stroke-width="2"></path>
                <rect id="Rectangle-Copy-4" stroke="#ffffff" stroke-width="2" x="12" y="9" width="4" height="14" rx="2"></rect>
                <path d="M17,1.96980792 L11,1.96980792 L11,6 C11,7.1045695 11.8954305,8 13,8 L15,8 C16.1045695,8 17,7.1045695 17,6 L17,1.96980792 Z" id="Rectangle-Copy-5" stroke="#ffffff" stroke-width="2"></path>
                <rect id="Rectangle-4" fill="#ffffff" x="13" y="1" width="2" height="6"></rect>
                <path d="M6,2.08295844 C3.16228666,2.55903653 1,5.02700371 1,8 L1,14 C1,15.1045695 1.8954305,16 3,16 L6,16 L6,2.08295844 Z" id="Rectangle-Copy-3" stroke="#ffffff" stroke-width="2"></path>
            </g>
        </g>
    </g>
</svg>