<?xml version="1.0" encoding="UTF-8"?>
<svg width="27px" height="20px" viewBox="0 0 27 20" version="1.1" xmlns="http://www.w3.org/2000/svg" xmlns:xlink="http://www.w3.org/1999/xlink">
    <!-- Generator: Sketch 52.6 (67491) - http://www.bohemiancoding.com/sketch -->
    <title>Shape</title>
    <desc>Created with Sketch.</desc>
    <g id="Page-1" stroke="none" stroke-width="1" fill="none" fill-rule="evenodd">
        <g id="Ресурс-1" fill="#000000">
            <path d="M27,13.09 L27,9 C27,7.34314575 25.6568542,6 24,6 L14,6 C12.3431458,6 11,7.34314575 11,9 L11,13 C11,14.6568542 12.3431458,16 14,16 L18.48,16 L22.48,19.39 C22.6828225,19.5612242 22.9453978,19.6447874 23.2098748,19.6222787 C23.4743518,19.59977 23.7190294,19.4730364 23.89,19.27 C24.0426887,19.0914782 24.1276553,18.8649008 24.13,18.63 L24.13,16 C24.8973149,15.9973774 25.631859,15.6886613 26.1706681,15.1423427 C26.7094771,14.5960242 27.0079974,13.8572778 27,13.09 Z M25,13.09 C25,13.5760106 24.6060106,13.97 24.12,13.97 L22.12,13.97 L22.12,16.44 L19.21,14 L14,14 C13.4477153,14 13,13.5522847 13,13 L13,9 C13,8.44771525 13.4477153,8 14,8 L24,8 C24.5522847,8 25,8.44771525 25,9 L25,13.09 Z M16,4.16 L14,4.16 L14,3 C14,2.44771525 13.5522847,2 13,2 L3,2 C2.44771525,2 2,2.44771525 2,3 L2,7.09 C1.99186305,7.32854386 2.08097235,7.56016077 2.24689452,7.73173937 C2.41281668,7.90331797 2.64131744,8.00013874 2.88,8 L4.88,8 L4.88,10.47 L7.79,8 L9,8 L9,10 L8.52,10 L4.52,13.39 C4.31717747,13.5612242 4.0546022,13.6447874 3.79012522,13.6222787 C3.52564823,13.59977 3.28097057,13.4730364 3.11,13.27 C2.95731128,13.0914782 2.87234474,12.8649008 2.87,12.63 L2.87,10 C2.10268505,9.99737737 1.36814095,9.68866127 0.829331941,9.14234272 C0.290522928,8.59602418 -0.00799739268,7.85727775 -5.41775826e-16,7.09 L-5.41775826e-16,3 C-4.24953042e-16,1.34314575 1.34314575,3.04359188e-16 3,0 L13,0 C14.6568542,1.01453063e-16 16,1.34314575 16,3 L16,4.16 Z" id="Shape"></path>
        </g>
    </g>
</svg>