<svg xmlns="http://www.w3.org/2000/svg" viewBox="0 0 27 19.6"><defs><style>.cls-1{fill:#fff;fill-rule:evenodd;}</style></defs><title>Ресурс 1</title><g id="Слой_2" data-name="Слой 2"><g id="Слой_1-2" data-name="Слой 1"><path class="cls-1" d="M27,13.09V9a3,3,0,0,0-3-3H14a3,3,0,0,0-3,3v4a3,3,0,0,0,3,3h4.48l4,3.39a1,1,0,0,0,1.41-.12,1,1,0,0,0,.24-.64V16A2.88,2.88,0,0,0,27,13.09Zm-2,0a.88.88,0,0,1-.88.88h-2v2.47L19.21,14H14a1,1,0,0,1-1-1V9a1,1,0,0,1,1-1H24a1,1,0,0,1,1,1ZM16,4.16H14V3a1,1,0,0,0-1-1H3A1,1,0,0,0,2,3V7.09A.88.88,0,0,0,2.88,8h2v2.47L7.79,8H9v2H8.52l-4,3.39a1,1,0,0,1-1.41-.12,1,1,0,0,1-.24-.64V10A2.88,2.88,0,0,1,0,7.09V3A3,3,0,0,1,3,0H13a3,3,0,0,1,3,3Z"/></g></g></svg>