<?xml version="1.0" encoding="UTF-8"?>
<svg width="24px" height="24px" viewBox="0 0 24 24" version="1.1" xmlns="http://www.w3.org/2000/svg" xmlns:xlink="http://www.w3.org/1999/xlink">
    <!-- Generator: Sketch 49.3 (51167) - http://www.bohemiancoding.com/sketch -->
    <title>icons/product menu/блины сытные</title>
    <desc>Created with Sketch.</desc>
    <defs></defs>
    <g id="Symbols" stroke="none" stroke-width="1" fill="none" fill-rule="evenodd" stroke-linecap="round" stroke-linejoin="round">
        <g id="icons/product-menu/блины-сытные" stroke="#000000">
            <g id="icons_Teremok_syitnyie_blinyi-Copy" transform="translate(0.000000, 3.000000)">
                <g id="Group">
                    <path d="M18.5,5.7 L21.6,8 C22.8,8.9 23.5,10.3 23.5,11.8 L23.5,12.2 L13.2,18 C11.7,18.9 9.7,18.5 8.6,17.2 L2,10 C1.1,9 0.6,7.7 0.6,6.3 L0.6,5.3 L11.9,0.2 C12.9,-0.2 14,0.1 14.7,0.9 C15.9,2.5 17.6,3.8 19.6,4.4 L18.8,5.2 C16.1,7.9 12.6,9.6 8.8,10.1 C7.8,10.2 7.2,11.4 7.6,12.3 L7.6,12.4 L8.6,12.4" id="Shape"></path>
                    <polyline id="Shape" points="7.5 12.5 4.5 9.5 1.5 5.5 0.5 5.5"></polyline>
                    <path d="M10.5,15.5 C11.2,16.4 11.6,17.1 11.6,18.3" id="Shape"></path>
                </g>
                <path d="M17.5,6.4 C17.9,6.7 18.2,7 18.5,7.3 C20.2,9.4 19.5,11.9 17,13 C14.5,14.1 11.1,13.2 9.4,11.1 C9.2,10.8 9,10.5 8.8,10.2" id="Shape"></path>
            </g>
        </g>
    </g>
</svg>