<?xml version="1.0" encoding="UTF-8"?>
<svg width="16px" height="16px" viewBox="0 0 16 16" version="1.1" xmlns="http://www.w3.org/2000/svg" xmlns:xlink="http://www.w3.org/1999/xlink">
    <!-- Generator: Sketch 49.3 (51167) - http://www.bohemiancoding.com/sketch -->
    <title>icons/social/instagram/white</title>
    <desc>Created with Sketch.</desc>
    <defs></defs>
    <g id="icons/social/instagram/white" stroke="none" stroke-width="1" fill="none" fill-rule="evenodd">
        <path d="M13.9462176,16 L2.0537824,16 C0.923824464,16 0,15.1636934 0,13.9466619 L0,2.05356027 C0,0.836084464 0.923824464,0 2.0537824,0 L13.9462176,0 C15.0759534,0 16,0.836084464 16,2.05356027 L16,13.9466619 C16,15.1636934 15.0757313,16 13.9462176,16 Z M8.01521567,11.0787855 C9.78974029,11.0787855 11.2282767,9.68480245 11.2282767,7.96523719 C11.2282767,6.24567193 9.78974029,4.85168886 8.01521567,4.85168886 C6.24069106,4.85168886 4.80215463,6.24567193 4.80215463,7.96523719 C4.80215463,9.68480245 6.24069106,11.0787855 8.01521567,11.0787855 Z M12.9884078,8.13894018 C12.9884078,10.8002388 10.7618109,12.95731 8.01521567,12.95731 C5.26862046,12.95731 3.04202357,10.8002388 3.04202357,8.13894018 C3.04202357,7.6620344 3.11399259,7.20134387 3.24726854,6.76619789 L1.77767905,6.76619789 L1.77767905,13.5248435 C1.77767905,13.874915 2.0637781,14.1607919 2.41362747,14.1607919 L13.5552748,14.1607919 C13.9053463,14.1607919 14.1916675,13.874915 14.1916675,13.5248435 L14.1916675,6.76619789 L12.7831628,6.76619789 C12.9162166,7.20134387 12.9884078,7.6620344 12.9884078,8.13894018 Z M11.6554261,4.9423165 L13.4637587,4.9423165 C13.8600325,4.9423165 14.183893,4.61845594 14.183893,4.22218212 L14.183893,2.49803557 C14.183893,2.10153961 13.8600325,1.77767905 13.4637587,1.77767905 L11.6554261,1.77767905 C11.2589302,1.77767905 10.9350696,2.10153961 10.9350696,2.49803557 L10.9350696,4.22218212 C10.9348475,4.61823382 11.2589302,4.9423165 11.6554261,4.9423165 Z" id="Combined-Shape" fill="#FFFFFF" fill-rule="nonzero"></path>
    </g>
</svg>