<?xml version="1.0" encoding="UTF-8"?>
<svg width="272px" height="5px" viewBox="0 0 272 5" version="1.1" xmlns="http://www.w3.org/2000/svg" xmlns:xlink="http://www.w3.org/1999/xlink">
    <!-- Generator: Sketch 49.3 (51167) - http://www.bohemiancoding.com/sketch -->
    <title>blocks/divider/line 272</title>
    <desc>Created with Sketch.</desc>
    <defs></defs>
    <g id="blocks/divider/line-272" stroke="none" stroke-width="1" fill="none" fill-rule="evenodd">
        <g id="Group-6" stroke="#D4BD93">
            <path d="M0,3 C0,1.34309038 2.2384187,0 4.99985423,0 C7.7615813,0 10,1.34309038 10,3" id="Stroke-1"></path>
            <path d="M20,2 C20,3.65690962 17.7612898,5 15.0001458,5 C12.2384187,5 10,3.65690962 10,2" id="Stroke-3"></path>
            <path d="M20,3 C20,1.34309038 22.238645,0 25,0 C27.761355,0 30,1.34309038 30,3" id="Stroke-5"></path>
            <path d="M39,2 C39,3.65690962 36.7612898,5 33.9998542,5 C31.2384187,5 29,3.65690962 29,2" id="Stroke-7"></path>
            <path d="M39,3 C39,1.34309038 41.2387102,0 44.0001458,0 C46.7615813,0 49,1.34309038 49,3" id="Stroke-9"></path>
            <path d="M59,2 C59,3.65690962 56.761355,5 54,5 C51.238645,5 49,3.65690962 49,2" id="Stroke-11"></path>
            <path d="M58,3 C58,1.34309038 60.2384187,0 62.9998542,0 C65.7615813,0 68,1.34309038 68,3" id="Stroke-13"></path>
            <path d="M78,2 C78,3.65690962 75.7612898,5 73.0001458,5 C70.2384187,5 68,3.65690962 68,2" id="Stroke-15"></path>
            <path d="M79,3 C79,1.34309038 81.238645,0 84,0 C86.761355,0 89,1.34309038 89,3" id="Stroke-17"></path>
            <path d="M98,2 C98,3.65690962 95.7612898,5 92.9998542,5 C90.2384187,5 88,3.65690962 88,2" id="Stroke-19"></path>
            <path d="M98,3 C98,1.34309038 100.23871,0 103.000146,0 C105.761581,0 108,1.34309038 108,3" id="Stroke-21"></path>
            <path d="M117,2 C117,3.65690962 114.761355,5 112,5 C109.238645,5 107,3.65690962 107,2" id="Stroke-23"></path>
            <path d="M117,3 C117,1.34309038 119.238419,0 121.999854,0 C124.761581,0 127,1.34309038 127,3" id="Stroke-25"></path>
            <path d="M137,2 C137,3.65690962 134.761355,5 132,5 C129.238645,5 127,3.65690962 127,2" id="Stroke-27"></path>
            <path d="M136,3 C136,1.34309038 138.23871,0 140.999854,0 C143.76129,0 146,1.34309038 146,3" id="Stroke-29"></path>
            <path d="M155,2 C155,3.65690962 152.761355,5 150.000292,5 C147.238645,5 145,3.65690962 145,2" id="Stroke-31"></path>
            <path d="M155,3 C155,1.34309038 157.238645,0 159.999708,0 C162.761355,0 165,1.34309038 165,3" id="Stroke-33"></path>
            <path d="M174,2 C174,3.65690962 171.76129,5 169.000146,5 C166.23871,5 164,3.65690962 164,2" id="Stroke-35"></path>
            <path d="M174,3 C174,1.34309038 176.238645,0 179,0 C181.761355,0 184,1.34309038 184,3" id="Stroke-37"></path>
            <path d="M194,2 C194,3.65690962 191.761355,5 189,5 C186.238645,5 184,3.65690962 184,2" id="Stroke-39"></path>
            <path d="M193,3 C193,1.34309038 195.23871,0 197.999854,0 C200.76129,0 203,1.34309038 203,3" id="Stroke-41"></path>
            <path d="M213,2 C213,3.65690962 210.761355,5 208.000292,5 C205.238645,5 203,3.65690962 203,2" id="Stroke-43"></path>
            <path d="M213,3 C213,1.34309038 215.238645,0 217.999708,0 C220.761355,0 223,1.34309038 223,3" id="Stroke-45"></path>
            <path d="M233,2 C233,3.65690962 230.76129,5 228.000146,5 C225.23871,5 223,3.65690962 223,2" id="Stroke-47"></path>
            <path d="M233,3 C233,1.34309038 235.238645,0 238,0 C240.761355,0 243,1.34309038 243,3" id="Stroke-49"></path>
            <path d="M253,2 C253,3.65690962 250.761355,5 248,5 C245.238645,5 243,3.65690962 243,2" id="Stroke-51"></path>
            <path d="M252,3 C252,1.34309038 254.23871,0 256.999854,0 C259.76129,0 262,1.34309038 262,3" id="Stroke-53"></path>
            <path d="M272,2 C272,3.65690962 269.761355,5 267.000292,5 C264.238645,5 262,3.65690962 262,2" id="Stroke-55"></path>
        </g>
    </g>
</svg>