<?xml version="1.0" encoding="UTF-8"?>
<svg width="16px" height="24px" viewBox="0 0 16 24" version="1.1" xmlns="http://www.w3.org/2000/svg" xmlns:xlink="http://www.w3.org/1999/xlink">
    <!-- Generator: Sketch 49.3 (51167) - http://www.bohemiancoding.com/sketch -->
    <title>icons/geolocation/lists</title>
    <desc>Created with Sketch.</desc>
    <defs></defs>
    <g id="icons/geolocation/lists" stroke="none" stroke-width="1" fill="none" fill-rule="evenodd">
        <g id="Group-3" fill="#979797" fill-rule="nonzero">
            <path d="M1.44050292,10.9500805 L1.52536923,11.0935123 L1.58627733,11.214458 C1.846189,11.8313347 2.18752385,12.407464 2.5993256,12.9267727 L2.67641529,13.0388847 L8,22.0362263 L13.3235847,13.0388847 L13.4006744,12.9267727 C13.8124762,12.407464 14.153811,11.8313347 14.4137227,11.214458 L14.4746308,11.0935122 L14.5594971,10.9500805 L14.7508811,10.2242964 C14.9155951,9.599653 15,8.950761 15,8.28925279 C15,4.25571835 11.8578897,1 8,1 C4.14211032,1 1,4.25571835 1,8.28925279 C1,8.950761 1.08440492,9.599653 1.24911888,10.2242964 L1.44050292,10.9500805 Z M15.7178282,9.47927338 L15.7178282,10.4792734 L15.9619166,10.5436377 L15.335265,11.6027359 C15.0382394,12.3076992 14.6493301,12.961573 14.1842189,13.5481083 L8,24 L1.81578107,13.5481083 C1.35066993,12.961573 0.961760622,12.3076992 0.664735001,11.6027359 L0.038083368,10.5436377 L0.282171763,10.4792734 L0.282171763,9.47927338 L0.0818243088,9.47927338 C0.0279039993,9.09065679 0,8.69333128 0,8.28925279 C0,3.71122489 3.581722,0 8,0 C12.418278,0 16,3.71122489 16,8.28925279 C16,8.69333128 15.972096,9.09065679 15.9181757,9.47927338 L15.7178282,9.47927338 Z" id="Combined-Shape"></path>
            <path d="M8,11.5 C6.06700338,11.5 4.5,9.93299662 4.5,8 C4.5,6.06700338 6.06700338,4.5 8,4.5 C9.93299662,4.5 11.5,6.06700338 11.5,8 C11.5,9.93299662 9.93299662,11.5 8,11.5 Z M8,10.5 C9.38071187,10.5 10.5,9.38071187 10.5,8 C10.5,6.61928813 9.38071187,5.5 8,5.5 C6.61928813,5.5 5.5,6.61928813 5.5,8 C5.5,9.38071187 6.61928813,10.5 8,10.5 Z" id="Oval-2"></path>
        </g>
    </g>
</svg>