<?xml version="1.0" encoding="UTF-8"?>
<svg width="176px" height="131px" viewBox="0 0 176 131" version="1.1" xmlns="http://www.w3.org/2000/svg" xmlns:xlink="http://www.w3.org/1999/xlink">
    <!-- Generator: Sketch 52.1 (67048) - http://www.bohemiancoding.com/sketch -->
    <title>nashi-akcii</title>
    <desc>Created with Sketch.</desc>
    <g id="0-Navigation-menu-" stroke="none" stroke-width="1" fill="none" fill-rule="evenodd">
        <g id="0.2.-Main-menu-D" transform="translate(-672.000000, -511.000000)">
            <g id="nashi-akcii" transform="translate(671.000000, 511.000000)">
                <path d="M31.54664,116.98436 L30.1094,123.08024 L31.5962,123.92276 L31.5962,125.36 L25.50032,125.36 L25.50032,123.92276 L27.08624,123.03068 C29.26688,113.86208 31.74488,103.058 34.02464,93.93896 L38.83196,93.93896 L45.9686,122.882 L47.55452,123.92276 L47.55452,125.36 L39.72404,125.36 L39.72404,124.17056 L41.0126,123.1298 L39.57536,116.98436 L31.54664,116.98436 Z M35.561,99.63836 L35.51144,99.63836 C34.5698,103.50404 33.28124,109.15388 32.14136,114.30812 L38.93108,114.30812 L35.561,99.63836 Z M69.7574,94.08764 L69.7574,95.8718 C68.22104,95.8718 67.82456,96.66476 67.2794,98.102 C66.43688,100.3322 64.8014,107.61752 63.0668,108.21224 L63.0668,108.31136 C65.297,108.5096 66.536,111.33452 67.13072,114.15944 L68.5184,120.6518 C68.81576,122.03948 69.7574,123.52628 71.04596,123.22892 L70.9964,125.06264 C70.15388,125.55824 68.81576,125.65736 68.0228,125.65736 C65.09876,125.70692 64.058,123.8732 63.5624,121.34564 L62.27384,115.10108 C61.72868,112.37528 60.78704,110.14508 58.06124,110.14508 L56.72312,110.14508 L56.72312,122.6342 L58.65596,124.02188 L58.65596,125.36 L50.13164,125.36 L50.13164,124.02188 L52.01492,122.6342 L52.01492,96.66476 L50.37944,95.42576 L50.37944,94.08764 L58.30904,94.08764 L58.30904,95.42576 L56.72312,96.66476 L56.72312,107.5184 C62.62076,107.5184 60.14276,95.32664 66.23864,94.18676 C67.37852,93.98852 68.66708,94.1372 69.7574,94.08764 Z M87.8468,96.56564 L85.96352,95.42576 L85.96352,94.08764 L94.48784,94.08764 L94.48784,95.42576 L92.555,96.56564 L92.555,122.48552 L95.23124,122.48552 L95.62772,130.0682 L93.19928,130.0682 L91.8116,125.36 L74.56472,125.36 L74.56472,124.02188 L76.15064,122.78288 L76.15064,96.56564 L74.26736,95.42576 L74.26736,94.08764 L82.74212,94.08764 L82.74212,95.42576 L80.9084,96.56564 L80.9084,122.58464 L87.8468,122.58464 L87.8468,96.56564 Z M111.78428,95.42576 L111.78428,94.1372 L119.66432,94.1372 L119.66432,95.42576 L118.12796,96.66476 L118.12796,122.6342 L119.96168,124.07144 L119.96168,125.36 L111.48692,125.36 L111.48692,124.07144 L113.3702,122.6342 C113.3702,116.34008 113.32064,109.05476 113.32064,102.8102 L111.58604,108.5096 L106.184,122.68376 L107.96816,124.07144 L107.96816,125.36 L99.4934,125.36 L99.4934,124.07144 L101.32712,122.6342 L101.32712,96.66476 L99.79076,95.42576 L99.79076,94.1372 L107.6708,94.1372 L107.6708,95.42576 L106.13444,96.66476 L106.13444,117.08348 L107.81948,111.4832 L113.3702,96.76388 C112.8746,96.31784 112.32944,95.8718 111.78428,95.42576 Z M137.01032,95.42576 L137.01032,94.1372 L144.89036,94.1372 L144.89036,95.42576 L143.354,96.66476 L143.354,122.6342 L145.18772,124.07144 L145.18772,125.36 L136.71296,125.36 L136.71296,124.07144 L138.59624,122.6342 C138.59624,116.34008 138.54668,109.05476 138.54668,102.8102 L136.81208,108.5096 L131.41004,122.68376 L133.1942,124.07144 L133.1942,125.36 L124.71944,125.36 L124.71944,124.07144 L126.55316,122.6342 L126.55316,96.66476 L125.0168,95.42576 L125.0168,94.1372 L132.89684,94.1372 L132.89684,95.42576 L131.36048,96.66476 L131.36048,117.08348 L133.04552,111.4832 L138.59624,96.76388 C138.10064,96.31784 137.55548,95.8718 137.01032,95.42576 Z" id="акции" fill="#FFFFFF"></path>
                <path d="M17.92,81.9 C30.0131177,39.42 52.8398191,18.18 86.400104,18.18 C119.960389,18.18 141.973688,39.42 152.44,81.9" id="Path-12"></path>
                <path d="M23.4828046,67.5955735 L21.6238994,71.4152561 C21.4834481,71.7038558 21.2482716,71.8203694 20.9183627,71.7648003 C20.5122861,71.6931604 20.1186082,71.5960572 19.7373172,71.4734879 C19.5680054,71.4330842 19.4421834,71.3141096 19.3598474,71.1165606 C19.2775114,70.9190115 19.2735217,70.7438456 19.3478783,70.5910575 C19.5461625,70.1836227 19.6830748,69.7620755 19.7586193,69.3264033 C19.8341638,68.8907312 19.9075286,68.4487561 19.9787158,68.0004648 C20.0108576,67.8481295 19.9949281,67.740642 19.9309269,67.677999 C19.8669256,67.615356 19.7755088,67.555119 19.6566736,67.4972861 C18.9519244,67.1333123 18.2578526,66.7797843 17.5744372,66.4366914 C16.8910218,66.0935986 16.1886882,65.7570468 15.4674154,65.4270259 C14.3474223,64.923959 13.2422436,64.422852 12.1518461,63.9236897 C11.0614486,63.4245274 9.95626994,62.9234203 8.83627686,62.4203535 C8.70046525,62.3542588 8.5944772,62.3131766 8.51830955,62.2971056 C8.28063922,62.1814399 8.08977019,62.0990491 7.94569673,62.0499308 C7.80162327,62.0008125 7.67693317,61.9873732 7.57162269,62.0096125 C7.4663122,62.0318518 7.35927744,62.0899954 7.25051519,62.184045 C7.14175294,62.2780946 6.99971907,62.4189406 6.82440931,62.6065871 L5.47241461,64.0903226 C5.35539052,64.2013487 5.23171913,64.2828911 5.10139673,64.3349524 C4.97107434,64.3870137 4.81690228,64.3802234 4.63887591,64.3145815 C4.55399365,64.2732722 4.47771395,64.246648 4.41003453,64.234708 C4.3423551,64.2227681 4.26194455,64.2046319 4.16880044,64.1802992 C3.87193891,64.0568243 3.69312289,63.9173086 3.632347,63.761748 C3.57157111,63.6061873 3.61989633,63.3882413 3.7773241,63.1079034 C4.20784542,62.3095574 4.63205081,61.513402 5.04995299,60.7194133 C5.46785517,59.9254245 5.89206056,59.1292691 6.32258188,58.3309231 C6.35562925,58.2630173 6.39085474,58.201422 6.42825942,58.1461353 C6.46566409,58.0908487 6.50088958,58.0292533 6.53393695,57.9613475 C6.74003024,57.4947215 6.95667396,57.0279892 7.18387462,56.5611368 C7.41107527,56.0942844 7.627719,55.6275521 7.83381228,55.1609261 C8.03164372,54.7112765 8.20627171,54.4603116 8.35770147,54.4080239 C8.50913124,54.3557363 8.80966641,54.4285071 9.25931601,54.6263385 C9.5479157,54.7667898 9.73957707,54.9230553 9.83430586,55.0951397 C9.92903465,55.2672241 9.94012612,55.5140861 9.86758062,55.8357332 C9.80329695,56.1404038 9.7262821,56.4388735 9.63653376,56.7311513 C9.54678542,57.0234292 9.46977057,57.3218989 9.4054869,57.6265695 C9.29989403,58.0161224 9.22494461,58.3103481 9.1806364,58.5092554 C9.13632818,58.7081628 9.1421569,58.8579776 9.19812271,58.9587044 C9.25408853,59.0594312 9.36270795,59.149037 9.52398425,59.2275245 L12.9998955,60.9191282 C13.0847777,60.9604374 13.1759682,60.9995674 13.2734696,61.0365193 C13.370971,61.0734712 13.4621615,61.1126012 13.5470437,61.1539104 C13.7677376,61.2613144 13.9317841,61.2046702 14.039188,60.9839764 C14.3788291,60.3723713 14.6824472,59.748496 14.9500515,59.1123319 C15.2176559,58.4761677 15.5169168,57.8396734 15.8478432,57.2028301 C16.0626511,56.7614424 16.2880093,56.319948 16.5239246,55.8783339 C16.7598399,55.4367197 16.9723527,54.9784756 17.1614696,54.5035877 C17.3014681,54.1727733 17.4457086,53.8440292 17.5941954,53.5173457 C17.7426822,53.1906622 17.8784346,52.8577873 18.0014566,52.518711 C18.2993357,51.9497735 18.5494791,51.4573506 18.7518942,51.0414275 C18.9543094,50.6255044 19.1317099,50.2394091 19.2841012,49.88313 C19.4364925,49.5268509 19.5785544,49.1917974 19.7102911,48.8779594 C19.8420278,48.5641214 19.9944168,48.2078476 20.1674628,47.8091274 C20.3170815,47.5879807 20.3765262,47.4226892 20.3457986,47.3132478 C20.3150711,47.2038064 20.1723861,47.0871236 19.9177393,46.963196 C19.280896,46.6322695 18.6377527,46.3035267 17.9882902,45.9769575 C17.3388277,45.6503884 16.6915536,45.3301336 16.0464484,45.0161836 C15.7408723,44.8674704 15.5313012,44.8127226 15.4177289,44.8519383 C15.3041565,44.8911541 15.1390634,45.047024 14.9224444,45.3195527 C14.7393256,45.5663905 14.5730725,45.8109326 14.4236802,46.0531867 C14.2742879,46.2954407 14.1165229,46.5441137 13.9503805,46.7992133 C13.7589999,47.0630275 13.5602939,47.2340345 13.3542566,47.3122396 C13.1482193,47.3904447 12.8926428,47.3762983 12.5875194,47.2697999 C12.3080871,47.1968016 12.0068728,47.0607096 11.6838675,46.8615199 C11.4292207,46.7375923 11.3934572,46.5522124 11.5765761,46.3053747 C11.8514807,45.9562255 12.073274,45.5759869 12.2419626,45.1646475 C12.4106512,44.7533081 12.5730278,44.3441535 12.7290973,43.9371714 C12.819072,43.666001 12.9387537,43.4092926 13.088146,43.1670385 C13.2375384,42.9247845 13.3785535,42.6889568 13.5111958,42.4595483 C13.5690286,42.3407132 13.6332833,42.2302547 13.7039618,42.1281696 C13.7746402,42.0260845 13.8304068,41.9114952 13.8712632,41.7843981 L14.8998574,39.6708404 C15.0320469,39.3992172 15.1643476,39.1381515 15.2967634,38.8876357 C15.4291793,38.6371198 15.5782298,38.3632088 15.7439194,38.0658946 C15.867847,37.8112478 15.9719109,37.67292 16.056114,37.6509071 C16.1403171,37.6288942 16.3182276,37.6839816 16.5898508,37.8161711 C16.7256624,37.8822658 16.8594066,37.9526036 16.9910873,38.0271866 C17.122768,38.1017696 17.2565121,38.1721074 17.3923237,38.2382021 C17.6726616,38.3956299 17.8495254,38.5499431 17.9229204,38.7011465 C17.9963154,38.8523499 17.979764,39.0805098 17.8732656,39.3856332 C17.7589581,39.7499478 17.6381165,40.0953285 17.5107371,40.4217856 C17.3833577,40.7482427 17.2540279,41.0894925 17.122744,41.4455453 C17.0488402,41.6405481 17.0207165,41.7738395 17.0383721,41.8454234 C17.0560277,41.9170074 17.1540936,42.0067264 17.3325728,42.1145831 C17.6129106,42.2720109 17.8825775,42.4189959 18.1415816,42.5555427 C18.4005857,42.6920895 18.6743835,42.8305865 18.9629832,42.9710378 C19.8283295,43.350177 20.6831092,43.7294237 21.5273482,44.1087893 C22.3715871,44.4881548 23.222236,44.8758896 24.0793205,45.2720053 C24.7496639,45.5772407 25.4117356,45.8994477 26.0655554,46.238636 C26.7193752,46.5778243 27.3858042,46.9126503 28.0648623,47.2431239 C28.2516032,47.3340042 28.4488949,47.4247699 28.6567433,47.5154238 C28.8645916,47.6060777 29.0703714,47.7009742 29.2740889,47.8001163 C29.579665,47.9488295 29.8448895,47.8784345 30.0697703,47.5889293 C30.3529368,47.2228037 30.6466525,46.8565703 30.9509264,46.4902183 C31.2552002,46.1238663 31.548916,45.7576329 31.8320824,45.3915073 C31.9651775,45.2043135 32.1095031,45.0803306 32.2650638,45.0195547 C32.4206245,44.9587788 32.6085226,44.9609854 32.8287637,45.0261746 C32.9306224,45.0757457 33.0386759,45.1125839 33.1529274,45.1366902 C33.2671788,45.1607966 33.3667442,45.1935039 33.4516265,45.2348131 C33.7828937,45.4170264 33.9768469,45.5901549 34.0334918,45.7542038 C34.0901368,45.9182527 34.0443298,46.1741688 33.8960694,46.5219597 C33.4425736,47.5400941 32.9551322,48.5416897 32.4337306,49.5267767 C31.9788766,50.4182668 31.5281601,51.3012555 31.0815679,52.1757692 C30.6349757,53.0502828 30.1927474,53.9374023 29.7548697,54.8371543 C29.6805132,54.9899424 29.59733,55.1069367 29.5053178,55.1881408 C29.4133057,55.2693449 29.2700267,55.2941021 29.0754766,55.262413 C28.897903,55.2389858 28.7140226,55.2177375 28.5238299,55.1986676 C28.3336371,55.1795977 28.1369114,55.1415996 27.9336467,55.0846723 C27.4844499,54.9290556 27.3415665,54.5970582 27.5049923,54.0886702 C27.5779906,53.8092379 27.6572972,53.5276311 27.7429146,53.2438415 C27.8285321,52.9600519 27.9163268,52.682576 28.0063015,52.4114055 C28.0632289,52.2081409 28.1157982,51.9922603 28.1640109,51.7637574 C28.2122237,51.5352544 28.2563048,51.315243 28.2962557,51.1037165 C28.3527303,50.8582371 28.2621338,50.6776672 28.0244635,50.5620014 C27.8294607,50.4880976 27.636413,50.3993973 27.4453147,50.2958979 C27.2542165,50.1923985 27.0611688,50.1036982 26.866166,50.0297944 C26.365587,49.8071774 25.8585929,49.5761889 25.3451684,49.3368219 C24.8317439,49.0974548 24.320619,48.8749544 23.8117782,48.6693139 C23.5828225,48.5788864 23.4005547,48.51118 23.2649695,48.4661926 C23.1293842,48.4212052 23.0153609,48.4182063 22.9228959,48.4571956 C22.830431,48.496185 22.7469083,48.5815187 22.6723253,48.7131994 C22.5977423,48.8448801 22.5111075,49.0336837 22.4124181,49.2796159 C22.2811342,49.6356686 22.1391855,49.9812757 21.9865678,50.3164474 C21.8339501,50.6516192 21.6920014,50.9972262 21.5607175,51.3532789 C21.4041953,51.7180463 21.2539849,52.0806295 21.1100818,52.4410396 C20.9661787,52.8014496 20.8159683,53.1640328 20.6594461,53.5288002 C20.3129015,54.2840259 19.9620048,55.0266214 19.6067456,55.7566088 L18.5285806,57.9720248 C18.4216294,58.2349334 18.3167453,58.493594 18.213925,58.7480144 C18.1111048,59.0024348 17.9977325,59.2569646 17.8738049,59.5116114 C17.6672588,59.9360227 17.4564718,60.3583622 17.2414375,60.7786426 C17.0264033,61.198923 16.8071282,61.6171316 16.5836057,62.0332811 C16.4927254,62.220022 16.4540482,62.3534266 16.4675729,62.4334988 C16.4810976,62.513571 16.5812289,62.5990459 16.7679699,62.6899262 C17.4640044,63.0286617 18.1493618,63.3569518 18.8240626,63.6748064 C19.4987633,63.9926609 20.1797635,64.3083321 20.8670834,64.6218293 C21.1556831,64.7622806 21.348278,64.8087668 21.4448739,64.7612892 C21.5414697,64.7138116 21.6939439,64.5622989 21.9023011,64.3067466 C22.1772057,63.9575974 22.4459099,63.6211856 22.7084218,63.2975011 C22.9709337,62.9738166 23.2396379,62.6374048 23.5145425,62.2882556 C23.5563045,62.2455881 23.6234169,62.2047602 23.7158819,62.1657709 C23.8083468,62.1267815 23.888531,62.1238106 23.9564368,62.1568579 C24.2106308,62.2385708 24.4585116,62.3224611 24.7000864,62.4085313 C24.9416613,62.4946015 25.1812803,62.595468 25.4189506,62.7111338 C25.46988,62.7359193 25.5105946,62.7924782 25.5410958,62.8808122 C25.5715969,62.9691463 25.5873,63.0555267 25.5882055,63.1399562 C25.5482546,63.3514827 25.4787092,63.5591016 25.3795671,63.762819 L23.5082692,67.6079662 L23.4828046,67.5955735 Z M54.4091174,9.10970002 C53.9273175,9.21943852 53.4766861,9.31819372 53.0572095,9.40596857 C52.637733,9.49374342 52.2138112,9.58308576 51.7854314,9.67399828 C51.6901226,9.68756824 51.6084249,9.71135519 51.5403358,9.74535986 C51.4722467,9.77936452 51.390549,9.80315147 51.2952402,9.81672143 C51.0333959,9.86896267 50.8467231,9.86468612 50.7352164,9.80389166 C50.6237096,9.74309719 50.5119896,9.58228986 50.400053,9.32146485 C50.324749,9.10778457 50.2465634,8.90012791 50.1654938,8.69848864 C50.0844241,8.49684938 50.0062385,8.28919272 49.9309345,8.07551244 C49.8619059,7.87963885 49.9431339,7.7409145 50.1746208,7.65933521 C51.0764867,7.3214867 51.9880067,7.02527652 52.9092082,6.77069578 C53.8304097,6.51611504 54.7293792,6.18429202 55.6061437,5.77521675 C56.0921804,5.56389414 56.5755818,5.37351873 57.0563624,5.20408483 L58.498697,4.69578566 C58.9260576,4.54517774 59.3536666,4.40949571 59.7815368,4.2887355 C60.209407,4.16797528 60.6370159,4.03229325 61.0643765,3.88168534 L63.6097011,2.92462257 C64.4581469,2.60560005 65.3034423,2.2776791 66.1456128,1.94084989 C66.2880663,1.89064726 66.430008,1.81059812 66.5714422,1.70070008 C66.7778279,1.54789404 66.914004,1.47988573 66.9799748,1.49667312 C67.0459455,1.51346051 67.1165818,1.62869261 67.1918857,1.84237289 C67.2619337,2.09794188 67.3408837,2.35036941 67.4287384,2.59966307 C67.516593,2.84895673 67.5955431,3.10138426 67.665591,3.35695325 C67.7168129,3.55910217 67.632957,3.71877056 67.4140207,3.83596323 C67.130133,3.99606391 66.8567215,4.15747617 66.5937781,4.32020486 C66.3308347,4.48293355 66.0605609,4.65324902 65.7829485,4.83115639 C65.7001904,4.88033973 65.6158647,4.92507072 65.5299689,4.96535071 C65.4440731,5.00563071 65.362885,5.05926491 65.2864023,5.12625494 C65.1743061,5.20579563 65.05776,5.28690394 64.9367605,5.36958229 C64.815761,5.45226064 64.7264341,5.55380334 64.6687773,5.67421344 C64.6457146,5.72237748 64.6888768,5.80225156 64.7982652,5.91383808 C64.9076536,6.0254246 64.9989791,6.12836105 65.0722445,6.22265053 C65.1455098,6.31694001 65.2158913,6.41724849 65.2833909,6.52357898 C65.3508906,6.62990947 65.4244097,6.73912116 65.5039504,6.85121733 C65.6567564,7.05760298 65.8035398,7.26110273 65.9443048,7.4617227 C66.0850699,7.66234267 66.2287156,7.85693921 66.3752463,8.04551817 C66.5521344,8.26343518 66.7214305,8.47401452 66.8831399,8.6772625 C67.0448493,8.88051048 67.2110079,9.08218661 67.3816206,9.28229693 C67.6558561,9.60603477 67.9361078,9.93265056 68.2223843,10.2621541 C68.5086607,10.5916576 68.8035813,10.903095 69.1071548,11.1964755 C69.7938424,11.8953326 70.4404554,12.6082986 71.0470129,13.3353947 C71.6535705,14.0624909 72.2205642,14.8335426 72.7480109,15.6485732 C72.900817,15.8549588 73.0565035,16.055321 73.2150753,16.2496656 C73.373647,16.4440102 73.5293335,16.6443724 73.6821396,16.850758 C73.9636697,17.251998 74.3542321,17.3946089 74.8538388,17.278595 C75.0203743,17.2399238 75.1913589,17.1996843 75.3667978,17.1578753 C75.5422367,17.1160664 75.7221246,17.0726892 75.9064668,17.0277426 C76.1620358,16.9576947 76.4144633,16.8787446 76.663757,16.79089 C76.9130506,16.7030354 77.1686158,16.6329885 77.4304601,16.5807473 C77.5016869,16.555646 77.5927974,16.5585686 77.7037945,16.5895154 C77.8147916,16.6204622 77.8886054,16.6595073 77.9252381,16.7066521 C78.0717688,16.895231 78.2065113,17.0929652 78.3294697,17.2998605 C78.452428,17.5067558 78.5426545,17.720178 78.6001517,17.9401336 C78.6691804,18.1360072 78.652863,18.3169144 78.5511991,18.4828605 C78.4495352,18.6488066 78.3133192,18.8019051 78.1425469,18.9421605 C78.0660641,19.0091505 77.9788557,19.0599019 77.8809189,19.0944162 L77.6004649,19.1932522 C77.0966216,19.4108501 76.5867654,19.625562 76.070881,19.8373943 C75.5549967,20.0492265 75.0330996,20.2581728 74.5051743,20.4642394 C74.2087359,20.5887267 73.8955547,20.6940917 73.5656212,20.7803376 C73.2356878,20.8665835 72.919369,20.9630453 72.6166553,21.0697259 C72.0709232,21.2820678 71.5341026,21.4912689 71.0061772,21.6973355 C70.4782519,21.9034021 69.953472,22.1183688 69.431822,22.3422421 C69.0285435,22.5043814 68.7054796,22.4680993 68.4626208,22.2333949 C68.3349161,22.0982361 68.2205681,21.9583728 68.1195734,21.8138009 C68.0185787,21.669229 67.9278028,21.5110496 67.8472428,21.3392581 C67.7049488,21.049095 67.6668276,20.8273191 67.7328781,20.6739236 C67.7989286,20.5205281 67.9738951,20.3637824 68.2577828,20.2036818 C68.3876857,20.1178657 68.5191554,20.0365026 68.6521959,19.9595899 C68.7852365,19.8826773 68.9167062,19.8013141 69.046609,19.7154981 C69.2414633,19.5867741 69.4378835,19.4625036 69.6358754,19.3426829 C69.8338674,19.2228622 70.0391908,19.0954541 70.2518518,18.9604548 C70.3639479,18.8809141 70.47918,18.8102778 70.5975515,18.7485438 C70.715923,18.6868098 70.8400584,18.6130359 70.9699612,18.5272199 C71.1585402,18.3806892 71.262281,18.2490444 71.2811867,18.1322816 C71.3000925,18.0155188 71.2394186,17.8717535 71.0991632,17.7009812 C70.7757444,17.2944852 70.4465649,16.9000362 70.1116147,16.5176222 C69.7766646,16.1352083 69.4385819,15.7438969 69.0973564,15.3436762 C68.9026616,15.1320346 68.6838084,15.0790452 68.44079,15.1847065 C68.2093031,15.2662858 67.98384,15.3507466 67.764394,15.4380916 C67.5449481,15.5254366 67.3283882,15.6067598 67.1147079,15.6820638 C66.7711248,15.8431837 66.4228404,15.9909465 66.0698443,16.1253564 C65.7168481,16.2597664 65.3685637,16.4075291 65.0249806,16.5686491 C64.0047432,16.9682316 62.9897771,17.32592 61.9800519,17.6417251 C60.9703266,17.9575302 59.9553605,18.3152186 58.9351231,18.7148011 C58.6742981,18.8267378 58.414791,18.9282007 58.156594,19.019193 C57.898397,19.1101853 57.6388899,19.2116482 57.3780649,19.3235848 C57.1350465,19.4292461 57.0040466,19.6255467 56.9850611,19.9124923 C56.9806648,20.3544421 56.9812298,20.8246637 56.9867562,21.3231713 C56.9922826,21.8216788 56.9928477,22.2919005 56.9884514,22.7338503 C56.9820165,23.0564093 57.1421946,23.1701125 57.4689903,23.0749632 C57.9392589,22.9893067 58.4079516,22.8991999 58.8750825,22.8046401 C59.3422134,22.7100803 59.8077685,22.6110703 60.2717617,22.5076071 C60.4917173,22.4501098 60.6451105,22.5161593 60.7319458,22.7057576 C60.8187811,22.8953558 60.9024775,23.076048 60.9830375,23.2478396 C61.0635975,23.4196312 61.135253,23.5945578 61.1980063,23.7726247 C61.328769,24.0868698 61.3653213,24.3041941 61.3076645,24.4246042 C61.2500077,24.5450143 61.0729628,24.6674612 60.7765244,24.7919484 C60.5156994,24.9038851 60.2577611,25.0097996 60.0027017,25.1096953 C59.7476424,25.2095909 59.4865665,25.3066022 59.2194661,25.4007322 C58.2473928,25.8233774 57.1755751,26.2611548 56.0039809,26.7140776 C54.8323867,27.1670005 53.670008,27.5466123 52.5168099,27.8529247 C52.0192419,28.0883293 51.6386019,28.0022753 51.3748785,27.59476 C51.2765118,27.4292438 51.1915014,27.2590236 51.1198448,27.0840943 C51.0481881,26.9091651 50.9778466,26.7237665 50.9088179,26.5278929 C50.8899919,26.4744728 50.9007587,26.4056203 50.9411184,26.3213332 C50.9814782,26.2370462 51.0220922,26.167684 51.0629616,26.1132446 C51.2567966,25.9248252 51.4691995,25.7749042 51.7001768,25.6634772 L52.3931053,25.3291979 C52.6240827,25.217771 52.8487813,25.0885392 53.0672079,24.9414989 C53.2856346,24.7944585 53.4849774,24.5790774 53.6652425,24.2953492 C54.0413811,23.9425924 54.2400392,23.5122602 54.2612229,23.0043396 C54.266798,22.2817195 54.248586,21.4774125 54.2065865,20.5913945 C54.164587,19.7053765 54.1584159,18.9068351 54.188073,18.1957464 C54.1977253,17.7119079 54.2089462,17.2325282 54.2217362,16.757593 C54.2345262,16.2826578 54.2368439,15.8064158 54.2286895,15.3288526 C54.2561485,14.8387388 54.2621534,14.316157 54.2467044,13.7610917 C54.2312553,13.2060265 54.2262786,12.6522835 54.2317739,12.0998462 C54.2372692,11.547409 54.2506085,11.017238 54.2717922,10.5093175 C54.2929758,10.0013969 54.3387504,9.53486244 54.4091174,9.10970002 Z M64.2202932,14.0296795 C64.6235718,13.8675402 65.0150582,13.7145614 65.3947644,13.5707385 C65.7744706,13.4269156 66.1690947,13.28284 66.5786485,13.1385074 C66.8038602,13.0391214 66.8400624,12.8862379 66.6872564,12.6798522 C66.656899,12.6505142 66.6050884,12.5887014 66.5318231,12.4944119 C65.8368215,11.6583572 65.1465367,10.8356699 64.4609481,10.0263253 C63.7753595,9.21698069 63.0850748,8.3942934 62.3900732,7.55823875 C62.3230831,7.48175596 62.2576629,7.40972592 62.1938105,7.34214648 C62.1299582,7.27456703 62.064538,7.20253699 61.9975479,7.12605421 C61.7903025,6.87879915 61.5175204,6.81478821 61.1791933,6.93401948 C60.5685098,7.1892694 59.963601,7.43247466 59.3644489,7.66364257 C58.7652968,7.89481047 58.1572504,8.12911252 57.5402916,8.36655575 C57.2616599,8.48476772 57.1159912,8.69624669 57.103281,9.00099902 C57.1083775,9.29947601 57.1179255,9.59637972 57.1319253,9.89171905 C57.1459252,10.1870584 57.1523356,10.4750589 57.1511568,10.7557292 C57.1350696,11.5621267 57.1145311,12.370081 57.0895406,13.1796162 C57.0645501,13.9891514 57.0440116,14.7971056 57.0279244,15.6035032 C57.0141949,15.8485601 57.0119968,16.0695317 57.02133,16.2664246 C57.0369386,16.4811242 57.0900233,16.6175551 57.1805857,16.6757216 C57.2711481,16.733888 57.4201295,16.7164162 57.6275345,16.6233055 C58.9379349,16.081429 60.1105707,15.6031174 61.1454771,15.1883562 C62.1803834,14.773595 63.2053119,14.3873733 64.2202932,14.0296795 Z M109.698945,25.421093 C106.299094,24.3369011 102.890976,23.2797959 99.474488,22.2497459 L89.225076,19.1596113 C88.7447549,19.0515233 88.4444853,18.7913743 88.3242581,18.3791568 C88.204031,17.9669392 88.2347611,17.5616106 88.4164492,17.1631589 C88.4969078,17.0298714 88.5982093,16.957306 88.7203569,16.9454607 C88.8425045,16.9336153 88.9632639,16.9262819 89.0826388,16.9234602 C89.4532652,16.9385879 89.8193743,16.9523291 90.180977,16.964684 C90.5425798,16.977039 90.8996653,16.9880074 91.2522444,16.9975897 C91.3480264,17.0072698 91.4333972,17.0186888 91.5083592,17.0318471 C91.5833212,17.0450054 91.6714646,17.0474009 91.7727922,17.0390338 C92.053182,17.026434 92.2321927,16.893805 92.3098295,16.6411426 L93.4078307,13.0677924 C93.5686499,12.5444203 93.7298194,12.0359777 93.891344,11.5424493 C94.0528685,11.0489209 94.2050145,10.5377056 94.3477863,10.0087881 C94.6000571,9.05923678 94.8734721,8.05694497 95.1680394,7.00188256 C95.4626068,5.94682015 95.7387945,4.93550482 95.9966107,3.96790623 C96.0728367,3.65555641 96.0949694,3.45497166 96.0630094,3.36614594 C96.0310494,3.27732022 95.8637371,3.14690529 95.5610674,2.97489724 C95.2889469,2.83202749 95.0199558,2.69505799 94.7540862,2.56398463 C94.4882165,2.43291127 94.210202,2.29316907 93.9200341,2.14475383 C93.7867466,2.06429529 93.6385394,1.98419067 93.4754082,1.90443756 C93.3122769,1.82468445 93.2403925,1.68902787 93.2597528,1.49746376 C93.2721567,1.26425953 93.3130173,1.03486515 93.3823359,0.809273734 C93.4516545,0.583682317 93.531382,0.356355225 93.6215206,0.127285639 C93.6326116,0.0911910119 93.7141515,0.0668686751 93.8661429,0.0543178987 C94.0181342,0.0417671223 94.142019,0.0403318201 94.2378011,0.0500119493 C95.619077,0.375687021 96.9205314,0.736089416 98.1422032,1.13122995 C99.363875,1.52637048 100.629941,1.90552533 101.940438,2.26870588 C102.355526,2.39625211 102.611335,2.54398419 102.707871,2.71190655 C102.804408,2.87982891 102.77988,3.16855712 102.634286,3.57809984 C102.505329,3.93350062 102.380837,4.16188583 102.260805,4.26326233 C102.140774,4.36463882 101.892676,4.41678609 101.516504,4.41970569 C101.2833,4.40730176 101.053225,4.40079614 100.826271,4.40018862 C100.599318,4.3995811 100.381039,4.38682466 100.171428,4.36191891 C99.9618161,4.33701316 99.7942,4.32007319 99.6685742,4.31109848 C99.5429485,4.30212378 99.4433615,4.32090071 99.3698104,4.36742984 C99.2962592,4.41395897 99.2383362,4.48997797 99.1960396,4.5954891 C99.153743,4.70100024 99.1020953,4.85301375 99.041095,5.0515342 C98.7028202,6.15242032 98.3780612,7.19325068 98.0668085,8.17405652 C97.7555557,9.15486236 97.4567847,10.0950476 97.1704866,10.9946406 C96.8841886,11.8942335 96.6093383,12.7726405 96.3459276,13.6298879 L95.5681767,16.1610109 C95.5071763,16.3595314 95.4506886,16.5594352 95.3987119,16.7607284 C95.3467352,16.9620216 95.299271,17.1646981 95.256318,17.368764 C95.2133649,17.57283 95.2134139,17.7012265 95.2564648,17.7539576 C95.2995158,17.8066887 95.4147543,17.8816007 95.6021837,17.9786957 C97.0709725,18.4695203 98.4946216,18.9464741 99.8731737,19.4095714 C101.251726,19.8726686 102.505995,20.2580743 103.63602,20.5658 C103.978919,20.6711642 104.23435,20.7397764 104.402321,20.7716385 C104.570293,20.8035006 104.701462,20.7944281 104.795833,20.7444208 C104.890204,20.6944135 104.959218,20.5823004 105.002877,20.4080782 C105.046535,20.233856 105.1155,19.9933463 105.209773,19.686542 C105.689409,17.9970509 106.200948,16.2680129 106.744406,14.4993762 C107.287864,12.7307394 107.824406,11.0488863 108.35405,9.45376643 C108.449734,9.20664953 108.531881,8.95537729 108.600494,8.69994215 C108.669107,8.44450702 108.724184,8.18491667 108.765727,7.9211633 C108.823905,7.603268 108.833889,7.39401242 108.795678,7.2933903 C108.757467,7.19276818 108.605076,7.06200055 108.338501,6.90108348 L107.630427,6.50574912 C107.394401,6.37397034 107.155606,6.25121706 106.914035,6.13748559 C106.582227,5.99602668 106.37882,5.85452094 106.303809,5.71296413 C106.228799,5.57140732 106.223155,5.33266119 106.286879,4.99671857 C106.302105,4.8828892 106.323228,4.76593613 106.350251,4.64585585 C106.377273,4.52577557 106.419216,4.40534438 106.476081,4.28455867 C106.606449,3.98884532 106.732353,3.82014664 106.853795,3.77845758 C106.975237,3.73676851 107.162286,3.75474213 107.414949,3.83237897 C108.901785,4.32874914 110.334786,4.75919899 111.713994,5.12374143 C113.093203,5.48828387 114.442925,5.93264619 115.7632,6.45684171 C115.83539,6.47902366 115.903771,6.5296622 115.968348,6.60875884 C116.032924,6.68785548 116.056894,6.75447377 116.040258,6.80861571 C115.989035,7.16815113 115.87606,7.56795877 115.701328,8.00805063 C115.640328,8.20657108 115.463384,8.30033336 115.170493,8.28934028 C114.686037,8.25898695 114.206453,8.24494206 113.731726,8.24720518 C113.256999,8.24946831 112.774643,8.24444694 112.284641,8.23214092 C111.986204,8.23919516 111.787079,8.40514561 111.68726,8.72999725 C111.039751,10.6444233 110.426254,12.54458 109.846751,14.4305242 C109.267247,16.3164685 108.692617,18.2186924 108.122842,20.1372531 C108.056296,20.3538209 107.997389,20.5776699 107.946117,20.8088068 C107.894846,21.0399437 107.889374,21.2505856 107.929701,21.4407389 C107.95057,21.5656592 108.006475,21.6569036 108.097417,21.7144748 C108.188359,21.7720459 108.28797,21.8174673 108.396254,21.8507402 C108.504538,21.8840132 108.614207,21.9127738 108.725263,21.9370231 C108.83632,21.9612724 108.945988,21.990033 109.054272,22.023306 C110.378683,22.4697668 111.66766,22.870775 112.921243,23.2263427 C114.174826,23.5819105 115.445756,23.9773733 116.734071,24.4127431 C116.932592,24.4737435 117.073137,24.4823653 117.155712,24.438609 C117.238287,24.3948526 117.312846,24.2646924 117.379392,24.0481247 C117.524985,23.638582 117.657042,23.2248863 117.775564,22.8070254 C117.894087,22.3891644 118.008096,21.9699234 118.117595,21.5492897 C118.30473,20.8759936 118.513036,20.2141511 118.742517,19.5637424 C118.971998,18.9133337 119.174053,18.239695 119.348687,17.5428061 C119.463731,17.1041251 119.597149,16.6217194 119.748945,16.0955746 C119.90074,15.5694298 120.050795,15.032883 120.199112,14.4859181 C120.347429,13.9389532 120.497483,13.4024064 120.649279,12.8762615 C120.801074,12.3501167 120.934492,11.867711 121.049537,11.42903 C121.093901,11.2846515 121.104614,11.1694375 121.081678,11.0833845 C121.058742,10.9973315 120.980631,10.914077 120.847343,10.8336185 C120.532172,10.6380176 120.197572,10.4413861 119.843533,10.2437179 C119.489494,10.0460498 119.149348,9.86746523 118.823086,9.70795901 C118.557922,9.60672937 118.458614,9.44783305 118.52516,9.23126529 C118.568113,9.02719936 118.612804,8.83354635 118.659236,8.65030048 C118.705667,8.4670546 118.756609,8.28519782 118.812064,8.10472468 C118.861973,7.94229886 118.909815,7.81874227 118.955589,7.73405119 C119.001364,7.64936011 119.052355,7.59589992 119.108565,7.57366901 C119.164774,7.55143811 119.24528,7.54654917 119.350086,7.55900204 C119.454892,7.57145491 119.597529,7.60540828 119.778002,7.66086317 C120.572084,7.90486466 121.315138,8.13812439 122.007187,8.36064936 C122.699236,8.58317432 123.36559,8.79286608 124.00627,8.98973092 L127.809722,10.1584368 C128.008242,10.2194372 128.12764,10.2808138 128.167918,10.3425685 C128.208196,10.4043233 128.215882,10.5400043 128.190977,10.7496158 C128.157704,10.8578997 128.128943,10.9675683 128.104694,11.0786249 C128.080445,11.1896815 128.051684,11.2993501 128.018411,11.407634 C127.974047,11.5520125 127.941833,11.7050597 127.921767,11.8667801 C127.901701,12.0285005 127.847256,12.1253392 127.758431,12.1572992 C127.598827,12.2267646 127.429496,12.2636131 127.250434,12.2678456 C127.071371,12.2720782 126.895084,12.2672871 126.721568,12.2534724 C126.332894,12.2327992 125.957409,12.2013637 125.5951,12.159165 C125.232792,12.1169663 124.86008,12.0765073 124.476951,12.0377868 C124.2257,12.0198374 124.061258,12.1371921 123.983621,12.3898545 C123.361214,14.6082632 122.712778,16.7988871 122.038296,18.961792 C121.363814,21.1246969 120.777084,23.1466466 120.278087,25.0277018 C120.18936,25.3164588 120.260235,25.5357471 120.490715,25.6855732 C120.660098,25.7771227 120.822193,25.876308 120.977006,25.9831321 C121.131819,26.0899562 121.30571,26.1828907 121.498685,26.2619384 C121.951279,26.460263 122.321997,26.7321837 122.610852,27.0777085 C122.795558,27.3122257 122.851864,27.5467883 122.779773,27.7814034 C122.739544,27.8480471 122.700021,27.9445332 122.661202,28.0708644 C122.559972,28.3360286 122.473641,28.5366378 122.402207,28.6726981 C122.330772,28.8087584 122.252382,28.9031771 122.167034,28.9559571 C122.081687,29.0087372 121.964053,29.0219687 121.814129,28.9956521 C121.664205,28.9693355 121.453891,28.9145869 121.183181,28.8314046 C120.311365,28.5832684 119.44372,28.3216007 118.580222,28.0463936 C117.716724,27.7711865 116.851852,27.5004953 115.985581,27.2343119 C114.794458,26.8683096 113.692555,26.5494733 112.679838,26.2777933 C111.667121,26.0061133 110.6735,25.7205494 109.698945,25.421093 Z M151.767657,71.5600956 C152.021722,72.823358 152.258322,74.0937815 152.477465,75.3714041 L150.486862,76.1899284 C149.985234,75.0692901 149.485164,73.9276173 148.986638,72.7648759 C148.614252,71.9585448 148.252396,71.1530011 147.901061,70.3482208 C147.549726,69.5434404 147.193012,68.7255761 146.830907,67.8946035 C146.727284,67.6922454 146.646265,67.4703897 146.587848,67.2290299 C146.52943,66.98767 146.467423,66.7375832 146.401825,66.4787618 C146.68431,66.3217775 146.958061,66.1683856 147.223085,66.0185814 L148.018153,65.569171 C148.444071,66.1085233 148.852277,66.629631 149.242783,67.1325095 C149.633289,67.6353881 150.053815,68.1616364 150.504375,68.7112701 C152.547372,67.8712016 154.556436,67.0603964 156.531626,66.2788305 C158.506817,65.4972645 160.46766,64.5940125 162.414215,63.5690473 C162.276647,63.4827171 162.172453,63.4030794 162.101629,63.330132 C162.030806,63.2571846 161.937382,63.2037388 161.821354,63.1697931 C161.508193,63.0535959 161.184512,62.9366251 160.8503,62.8188772 C160.516088,62.7011292 160.07638,62.5502132 159.531164,62.3661246 L157.486613,61.6757958 C156.668788,61.3996628 155.627654,61.0520537 154.36318,60.6329579 C153.098705,60.2138621 151.580127,59.7104407 149.807398,59.1226785 C148.03467,58.5349162 145.929556,57.833782 143.491994,57.0192547 C143.13673,56.8999561 142.82231,56.7434531 142.548725,56.5497411 C142.275139,56.3560291 142.054228,56.0794213 141.885985,55.7199096 C141.483901,54.7420647 141.076682,53.7765552 140.664317,52.8233519 C140.251951,51.8701486 139.836002,50.908229 139.416456,49.9375643 C139.373376,49.8327952 139.352123,49.7190527 139.352696,49.5963334 C139.353269,49.4736141 139.349477,49.3526917 139.34132,49.2335625 C139.595085,49.0067321 139.850886,48.8096871 140.10873,48.6424213 C140.366574,48.4751556 140.702416,48.3983 141.116267,48.4118522 C141.44672,48.8679756 141.782553,49.3371881 142.123776,49.8195038 C142.464999,50.3018195 142.823922,50.8023646 143.200556,51.321154 C143.487121,51.2237343 143.760585,51.1317011 144.020957,51.0450516 C144.281329,50.958402 144.530152,50.8560875 144.767433,50.738105 L149.652267,48.7294895 C151.267458,48.0653327 152.892129,47.3870703 154.526332,46.6946819 C154.648562,46.6444214 154.763856,46.6021169 154.872215,46.5677672 C154.980574,46.5334176 155.083546,46.4859724 155.181135,46.4254305 C155.435878,46.3002679 155.627707,46.1958717 155.756629,46.1122388 C155.885551,46.028606 155.974939,45.9357128 156.024796,45.8335564 C156.074652,45.7314 156.097052,45.5997076 156.091996,45.4384752 C156.08694,45.2772429 156.069075,45.0600392 156.0384,44.7868577 C155.973949,44.2825978 155.913088,43.7870761 155.855817,43.3002777 C155.798546,42.8134793 155.739236,42.2969064 155.677886,41.7505434 C155.929528,41.6674838 156.198626,41.5772456 156.485191,41.479826 C156.771755,41.3824063 157.075776,41.2778081 157.397264,41.1660283 C158.131755,42.8033321 158.831069,44.4295546 159.495226,46.0447448 C160.159382,47.6599349 160.820184,49.2917868 161.477649,50.9403493 C161.334855,51.0398929 161.20414,51.1191592 161.0855,51.1781505 C160.966859,51.2371418 160.841285,51.3040875 160.708773,51.3789896 C160.593722,51.4467116 160.476878,51.5100673 160.358238,51.5690586 C160.239597,51.6280498 160.119163,51.6826749 159.996933,51.7329354 C159.803879,51.7102485 159.645506,51.6477854 159.521809,51.5455444 C159.398113,51.4433033 159.290084,51.3295185 159.197721,51.2041865 C159.105357,51.0788545 159.01993,50.9455691 158.941438,50.8043263 C158.862946,50.6630835 158.772379,50.5421187 158.669734,50.4414284 C158.446982,50.2472277 158.23888,50.0265937 158.045422,49.7795198 C157.851964,49.5324458 157.650554,49.27844 157.441185,49.0174946 C155.366366,49.8298202 153.286438,50.6544543 151.201338,51.4914215 C149.116237,52.3283887 146.975194,53.1781526 144.778145,54.0407387 C145.31308,54.2494689 145.802314,54.4463641 146.245863,54.63143 C146.689411,54.816496 147.129363,54.9928285 147.565732,55.160433 C150.260969,56.1548008 153.09508,57.1022397 156.068151,58.0027779 C159.041222,58.9033161 162.035013,59.8667502 165.049613,60.8931091 C165.373055,60.9846647 165.609431,61.1375354 165.758746,61.3517256 C165.908062,61.5659158 166.036568,61.8039688 166.144269,62.0658915 C166.420213,62.687326 166.691788,63.3105461 166.959001,63.9355706 C167.226215,64.5605951 167.480328,65.1909952 167.721349,65.8267898 C167.893671,66.2458662 168.051099,66.665956 168.193639,67.0870717 C168.336178,67.5081874 168.468965,67.9179958 168.592004,68.3165093 C168.360756,68.6973919 168.086963,68.9375591 167.770616,69.0370181 C167.45427,69.1364771 167.089177,69.1794299 166.675326,69.1658777 C166.376694,68.7374973 166.068318,68.2978223 165.750186,67.8468396 C165.432054,67.3958569 165.111356,66.9510412 164.788084,66.5123793 C164.324949,66.4782643 163.896702,66.5165651 163.50333,66.6272829 C163.109957,66.7380006 162.72479,66.881069 162.347816,67.0564921 C161.412075,67.4616776 160.477898,67.8458057 159.545257,68.2088881 C158.612617,68.5719705 157.67844,68.9560986 156.742698,69.3612841 C155.904545,69.7059276 155.080521,70.0600719 154.2706,70.4237276 C153.460679,70.7873833 152.626373,71.1661689 151.767657,71.5600956 Z" id="Н-а-ш-И" fill="#FFFFFF"></path>
                <path d="M86.2906923,69.9413813 L77.1026759,75.6743094 C75.9968837,76.3642763 74.5411333,76.0271833 73.8511664,74.9213911 C73.5090126,74.3730299 73.4067386,73.7083343 73.5682207,73.0824807 L76.2274148,62.7762893 C76.4569999,61.8864904 76.1492105,60.944338 75.4385956,60.3616908 L67.1779334,53.5886099 C66.1700227,52.7622039 66.0228841,51.2751965 66.84929,50.2672858 C67.2641828,49.7612695 67.8705459,49.4502282 68.5235716,49.4084428 L79.2986056,48.7189758 C80.2046652,48.6609993 80.9971305,48.0883979 81.3366631,47.2463629 L85.3512281,37.2903114 C85.8386584,36.0814928 87.2137398,35.496692 88.4225584,35.9841223 C89.017345,36.2239573 89.4889126,36.6955249 89.7287476,37.2903114 L93.7433126,47.2463629 C94.0828452,48.0883979 94.8753105,48.6609993 95.7813701,48.7189758 L106.556404,49.4084428 C107.857136,49.4916733 108.844116,50.6135965 108.760885,51.9143283 C108.7191,52.567354 108.408059,53.1737171 107.902042,53.5886099 L99.6413801,60.3616908 C98.9307652,60.944338 98.6229758,61.8864904 98.8525609,62.7762893 L101.511755,73.0824807 C101.83739,74.3445395 101.078269,75.6316198 99.8162102,75.9572551 C99.1903565,76.1187373 98.525661,76.0164632 97.9772998,75.6743094 L88.7892834,69.9413813 C88.0247307,69.4643332 87.055245,69.4643332 86.2906923,69.9413813 Z" id="Star" fill="#FFFFFF"></path>
                <polyline id="Path-9" stroke="#FFFFFF" stroke-width="1.18" transform="translate(35.186569, 80.324775) rotate(-30.000000) translate(-35.186569, -80.324775) " points="67.0465694 83.2747749 57.9437122 77.3747749 48.8408551 83.2747749 39.7379979 77.3747749 30.6351408 83.2747749 21.5322837 77.3747749 12.4294265 83.2747749 3.32656936 77.3747749"></polyline>
                <polyline id="Path-9-Copy-3" stroke="#FFFFFF" stroke-width="1.18" transform="translate(140.206569, 81.504775) scale(-1, 1) rotate(-30.000000) translate(-140.206569, -81.504775) " points="172.066569 84.4547749 162.963712 78.5547749 153.860855 84.4547749 144.757998 78.5547749 135.655141 84.4547749 126.552284 78.5547749 117.449427 84.4547749 108.346569 78.5547749"></polyline>
                <polyline id="Path-9-Copy-4" stroke="#FFFFFF" stroke-width="1.18" transform="translate(146.807566, 31.848855) scale(-1, 1) rotate(20.000000) translate(-146.807566, -31.848855) " points="178.667566 34.798855 169.564709 28.898855 160.461852 34.798855 151.358995 28.898855 142.256138 34.798855 133.153281 28.898855 124.050423 34.798855 114.947566 28.898855"></polyline>
                <polyline id="Path-9-Copy-5" stroke="#FFFFFF" stroke-width="1.18" transform="translate(31.167566, 30.668855) rotate(20.000000) translate(-31.167566, -30.668855) " points="63.0275663 33.618855 53.9247092 27.718855 44.821852 33.618855 35.7189949 27.718855 26.6161377 33.618855 17.5132806 27.718855 8.41042346 33.618855 -0.692433679 27.718855"></polyline>
            </g>
        </g>
    </g>
</svg>