<?xml version="1.0" encoding="UTF-8"?>
<svg width="160px" height="132px" viewBox="0 0 160 132" version="1.1" xmlns="http://www.w3.org/2000/svg" xmlns:xlink="http://www.w3.org/1999/xlink">
    <!-- Generator: Sketch 52.1 (67048) - http://www.bohemiancoding.com/sketch -->
    <title>nashe-menu</title>
    <desc>Created with Sketch.</desc>
    <g id="0-Navigation-menu-" stroke="none" stroke-width="1" fill="none" fill-rule="evenodd">
        <g id="0.2.-Main-menu-D" transform="translate(-190.000000, -522.000000)">
            <g id="nashe-menu" transform="translate(190.000000, 522.000000)">
                <path d="M27.0635973,109.6 L27.0635973,128.849231 L28.8825595,130.08 L28.8825595,131.507692 L22,131.507692 L22,130.08 L23.769801,128.849231 L23.769801,103.003077 L22.0983223,101.772308 L22.0983223,100.443077 L26.4245025,100.443077 C29.8657823,100.443077 30.8981662,100.147692 31.4880999,102.609231 C33.0612563,111.323077 33.9461568,116.984615 34.8310574,125.649231 L34.9293796,125.649231 L38.6656262,102.363077 C39.0097542,100.64 39.5996879,100.492308 41.3203277,100.492308 C43.9258681,100.492308 45.3515412,100.443077 47.9570815,100.443077 L47.9570815,101.772308 L46.2856028,103.003077 L46.2856028,128.8 L48.1537261,130.178462 L48.1537261,131.507692 L39.648849,131.507692 L39.648849,130.178462 L41.5169723,128.8 L41.5169723,107.975385 C41.5169723,108.024615 41.5169723,108.073846 41.6644557,103.643077 L41.4678112,103.643077 L36.7975029,131.163077 L32.9137729,131.163077 C31.9305501,131.163077 31.4880999,130.769231 31.3406165,129.883077 C29.9641046,121.070769 28.6367538,112.750769 27.0635973,103.987692 L26.9161139,103.987692 L27.0635973,109.6 Z M69.4404994,131.507692 L52.7257121,131.507692 L52.7257121,130.178462 L54.6429965,128.8 L54.6429965,102.855385 L53.0206789,101.624615 L53.0206789,100.443077 L68.8505657,100.443077 L68.8505657,107.384615 L66.5399922,107.384615 L65.2618026,103.2 L59.4607881,103.2 L59.4607881,114.670769 L63.4920016,114.670769 L64.72103,112.258462 L66.0975419,112.258462 L66.0975419,119.741538 L64.72103,119.741538 L63.4920016,117.476923 L59.4607881,117.476923 L59.4607881,127.076923 C59.4607881,127.815385 59.2641436,128.209231 58.4775654,128.455385 L58.4775654,128.701538 L65.8025751,128.701538 L67.3757316,124.566154 L69.4404994,124.566154 L69.4404994,131.507692 Z M95.397581,129.046154 L95.397581,103.003077 L93.8244245,101.772308 L93.8244245,100.443077 L101.690207,100.443077 L101.690207,101.772308 L100.11705,103.003077 L100.11705,114.326154 L106.99961,114.326154 L106.99961,103.003077 L105.426453,101.772308 L105.426453,100.443077 L113.243075,100.443077 L113.243075,101.772308 L111.669918,103.003077 L111.669918,129.046154 L113.587202,130.178462 L113.587202,131.507692 L105.180648,131.507692 L105.180648,130.178462 L106.99961,129.046154 L106.99961,116.984615 L100.11705,116.984615 L100.11705,129.046154 L101.985174,130.178462 L101.985174,131.507692 L93.5294577,131.507692 L93.5294577,130.178462 L95.397581,129.046154 Z M134.923137,108.221538 L134.923137,123.778462 C134.923137,127.175385 136.201327,128.947692 139.052673,128.947692 C141.854858,128.947692 143.182208,126.633846 143.182208,123.778462 L143.182208,108.221538 C143.182208,105.366154 141.904019,103.101538 139.052673,103.101538 C136.201327,103.101538 134.923137,104.824615 134.923137,108.221538 Z M148,108.221538 L148,123.778462 C148,128.8 144.460398,132 139.052673,132 C133.595786,132 130.105345,128.750769 130.105345,123.778462 L130.105345,117.033846 L124.795942,117.033846 L124.795942,128.8 L126.614904,130.178462 L126.614904,131.507692 L118.20835,131.507692 L118.20835,130.178462 L120.076473,128.8 L120.076473,103.003077 L118.503316,101.772308 L118.503316,100.443077 L126.369099,100.443077 L126.369099,101.772308 L124.795942,103.003077 L124.795942,114.178462 L130.105345,114.178462 L130.105345,108.221538 C130.105345,103.298462 133.595786,100 139.052673,100 C144.460398,100 148,103.249231 148,108.221538 Z" id="ме-ню" fill="#FFFFFF"></path>
                <path d="M13,88 C25.0463706,46.6666667 47.7848332,26 81.2153876,26 C114.645942,26 136.574146,46.6666667 147,88" id="Path-12-Copy"></path>
                <path d="M19.9185678,65.8933629 L18.3728833,69.7934362 C18.2560977,70.0881098 18.0328076,70.2205402 17.7030063,70.1907312 C17.296817,70.1508493 16.9009383,70.0849679 16.5153582,69.9930849 C16.3452027,69.9660877 16.2120253,69.8584697 16.1158221,69.6702277 C16.0196189,69.4819858 16.0024313,69.3098655 16.064259,69.1538618 C16.2291329,68.7378519 16.3323693,68.3125809 16.3739713,67.878036 C16.4155734,67.4434911 16.4545474,67.0029065 16.4908946,66.5562689 C16.5110934,66.4038957 16.4872414,66.2992942 16.419338,66.2424612 C16.3514346,66.1856282 16.2566558,66.1332318 16.1349989,66.0852704 C15.411927,65.7801681 14.700183,65.4845424 13.9997456,65.1983844 C13.2993081,64.9122264 12.5806945,64.6339342 11.8438831,64.3634994 C10.700472,63.9528107 9.57182996,63.5429336 8.45792309,63.1338555 C7.34401622,62.7247775 6.21537417,62.3149003 5.07196308,61.9042117 C4.93292658,61.8493986 4.82521594,61.8169562 4.74882795,61.8068834 C4.50551406,61.7109605 4.31090692,61.6442604 4.16500067,61.6067811 C4.01909442,61.5693018 3.89501709,61.5654801 3.79276496,61.5953159 C3.69051282,61.6251516 3.58927483,61.6904592 3.48904793,61.7912405 C3.38882104,61.8920218 3.25929708,62.0413763 3.10047217,62.2393085 L1.87837759,63.8017937 C1.77128095,63.9199088 1.65539367,64.0095037 1.53071227,64.0705812 C1.40603087,64.1316586 1.25335977,64.1366059 1.07269439,64.0854234 C0.985796578,64.0511652 0.908499722,64.0307129 0.840801508,64.024066 C0.773103294,64.017419 0.692371619,64.0056335 0.59860406,63.9887091 C0.296281744,63.8895651 0.109249041,63.7657259 0.0375003399,63.6171878 C-0.0342483614,63.4686497 -0.00304058188,63.2504729 0.131124615,62.9626509 C0.495631412,62.1443344 0.854070506,61.3286506 1.20645265,60.5155752 C1.55883479,59.7024997 1.91727389,58.8868159 2.28178069,58.0684994 C2.30925966,57.9991644 2.33936563,57.9358768 2.37209952,57.8786345 C2.4048334,57.8213922 2.43493938,57.7581045 2.46241835,57.6887695 C2.63052185,57.2139067 2.80902989,56.7381435 2.99794783,56.2614655 C3.18686576,55.7847875 3.36537381,55.3090242 3.53347731,54.8341615 C3.69471107,54.3766325 3.84807356,54.1164255 3.9935694,54.0535329 C4.13906524,53.9906402 4.44117782,54.0395975 4.8999162,54.2004062 C5.19536878,54.3168839 5.39634596,54.4562414 5.50285379,54.6184827 C5.60936162,54.7807241 5.63898139,55.0228812 5.59171401,55.3449614 C5.55131638,55.6497079 5.49788487,55.9493111 5.43141788,56.2437801 C5.3649509,56.5382491 5.31151939,56.8378524 5.27112176,57.1425988 C5.1963754,57.534014 5.1446613,57.8292839 5.11597791,58.0284173 C5.08729451,58.2275507 5.10437942,58.3745783 5.16723313,58.4695046 C5.23008684,58.5644309 5.34406492,58.6444381 5.50917077,58.7095286 L9.06761852,60.1123933 C9.15451634,60.1466515 9.24747508,60.1782886 9.34649755,60.2073057 C9.44552002,60.2363228 9.53847877,60.26796 9.62537658,60.3022182 C9.8513109,60.3912894 10.008929,60.3231567 10.0982357,60.097818 C10.3871753,59.4701727 10.6396346,58.8331671 10.8556211,58.1867821 C11.0716076,57.5403971 11.318812,56.891299 11.5972418,56.2394683 C11.7758552,55.7887909 11.9648729,55.3372127 12.1643006,54.8847201 C12.3637284,54.4322275 12.5388016,53.965131 12.6895255,53.4834166 C12.8026711,53.1472238 12.9201598,52.8127489 13.0419951,52.4799819 C13.1638304,52.1472149 13.2726295,51.8093143 13.3683955,51.4662699 C13.6193463,50.8837742 13.8289729,50.3801955 13.9972816,49.9555187 C14.1655903,49.530842 14.3114676,49.1374128 14.4349178,48.7752194 C14.5583679,48.4130259 14.6732292,48.0725048 14.779505,47.7536458 C14.8857808,47.4347867 15.0092292,47.0725987 15.1498537,46.667071 C15.2807892,46.4381018 15.3269541,46.2709155 15.2883497,46.1655071 C15.2497453,46.0600987 15.1000986,45.9560089 14.8394051,45.8532344 C14.1858515,45.5755386 13.5262454,45.3004675 12.8605671,45.0280128 C12.1948888,44.755558 11.5318479,44.4891536 10.8714245,44.2287916 C10.5585923,44.1054622 10.3476185,44.0673829 10.2384966,44.1145524 C10.1293747,44.1617219 9.97822925,44.3276046 9.78505562,44.6122055 C9.62300104,44.8689905 9.47741819,45.1222436 9.3483027,45.3719723 C9.21918721,45.6217011 9.08229401,45.8783799 8.93761899,46.1420166 C8.76869467,46.4161353 8.58552059,46.5994539 8.38809127,46.6919776 C8.19066195,46.7845014 7.93735506,46.7898581 7.628163,46.7080478 C7.34686032,46.6572746 7.03928771,46.5460396 6.70543594,46.3743394 C6.44474249,46.2715649 6.3954238,46.0917879 6.55747837,45.8350028 C6.80238028,45.4705849 6.99251319,45.0795715 7.12788281,44.661951 C7.26325243,44.2443306 7.39255779,43.8293368 7.51580275,43.4169574 C7.58408977,43.143248 7.68278955,42.8815328 7.81190504,42.6318041 C7.94102053,42.3820754 8.06235444,42.1393042 8.17591041,41.9034834 C8.22399861,41.7821472 8.27905833,41.668572 8.34109123,41.5627542 C8.40312412,41.4569365 8.44949419,41.3399355 8.48020283,41.2117476 L9.33548158,39.0537071 C9.44539747,38.7763672 9.55622171,38.5094111 9.66795764,38.2528307 C9.77969357,37.9962503 9.90607711,37.7153865 10.047112,37.4102307 C10.1501582,37.1502245 10.2423987,37.0062133 10.3238364,36.9781928 C10.4052741,36.9501723 10.5850268,36.9909744 10.8630998,37.1006006 C11.0021363,37.1554136 11.1394533,37.2145592 11.275055,37.2780392 C11.4106566,37.3415191 11.5479736,37.4006647 11.6870101,37.4554778 C11.9755929,37.5892893 12.1618182,37.7278414 12.2456916,37.8711385 C12.3295649,38.0144355 12.3304883,38.2402691 12.2484618,38.548646 C12.1632057,38.9158758 12.0700685,39.2649614 11.9690476,39.5959131 C11.8680267,39.9268649 11.7661999,40.2725246 11.6635642,40.6329028 C11.6053766,40.8304256 11.5877029,40.9637502 11.6105426,41.0328805 C11.6333822,41.1020108 11.7369532,41.1829256 11.9212587,41.2756273 C12.2098415,41.4094388 12.487103,41.5337763 12.7530513,41.6486435 C13.0189997,41.7635107 13.2996959,41.8791814 13.5951485,41.9956592 C14.4778661,42.3035733 15.3501635,42.6123904 16.2120667,42.9221198 C17.0739699,43.2318492 17.9428324,43.549333 18.8186803,43.8745809 C19.503353,44.1244608 20.1811458,44.3916705 20.852079,44.6762179 C21.5230122,44.9607653 22.2060599,45.2400675 22.9012424,45.5141328 C23.0924176,45.5895007 23.293997,45.6639599 23.5059866,45.7375127 C23.7179762,45.8110654 23.9282453,45.8889504 24.1368,45.97117 C24.4496322,46.0944993 24.7060661,46.0051981 24.9061094,45.7032634 C25.1578811,45.3215117 25.420056,44.9388581 25.6926421,44.5552911 C25.9652282,44.1717241 26.2274031,43.7890705 26.4791748,43.4073188 C26.5963708,43.2130171 26.7294322,43.0800885 26.8783629,43.008529 C27.0272936,42.9369694 27.2129033,42.9249659 27.4351976,42.972518 C27.539475,43.0136277 27.648903,43.0417368 27.763485,43.056846 C27.878067,43.0719552 27.9788054,43.0966385 28.0657032,43.1308966 C28.4064247,43.285263 28.6109393,43.4410464 28.6792531,43.5982513 C28.747567,43.7554563 28.7217166,44.0108182 28.6017013,44.3643447 C28.2311456,45.400739 27.8258368,46.4234146 27.3857629,47.4324023 C27.0042869,48.3442392 26.6262515,49.2473957 26.2516453,50.1418988 C25.8770391,51.0364019 25.5076933,51.9429842 25.143597,52.8616727 C25.0817693,53.0176764 25.0085228,53.1391131 24.9238555,53.2259865 C24.8391881,53.3128599 24.6996541,53.3480385 24.5052492,53.3315234 C24.3282239,53.32186 24.1451391,53.3148171 23.9559891,53.3103947 C23.7668391,53.3059723 23.5698098,53.2834113 23.3648951,53.2427108 C22.9097968,53.1234212 22.7436674,52.8074055 22.866502,52.2946541 C22.9174094,52.014093 22.9743784,51.7309156 23.0374105,51.4451135 C23.1004426,51.1593113 23.1661012,50.8795598 23.2343882,50.6058503 C23.2751962,50.4014758 23.3107488,50.1850119 23.3410471,49.9564521 C23.3713453,49.7278922 23.3982082,49.5080026 23.4216367,49.2967765 C23.4588047,49.0508829 23.3557333,48.8799772 23.1124194,48.7840544 C22.9143745,48.7260202 22.7171399,48.6532738 22.5207098,48.5658132 C22.3242797,48.4783525 22.1270451,48.4056062 21.9290002,48.347572 C21.4181231,48.1662084 20.9002815,47.9770884 20.3754597,47.7802063 C19.850638,47.5833242 19.3293615,47.4028709 18.8116147,47.2388411 C18.5788106,47.1671036 18.3938031,47.1142089 18.2565866,47.0801554 C18.1193702,47.0461019 18.0066099,47.0517522 17.9183025,47.0971065 C17.829995,47.1424607 17.7540186,47.2327586 17.6903709,47.3680027 C17.6267231,47.5032469 17.5555019,47.6956281 17.4767051,47.9451522 C17.3740693,48.3055303 17.2601181,48.6564311 17.1348479,48.9978649 C17.0095777,49.3392988 16.8956264,49.6901995 16.7929907,50.0505777 C16.6661056,50.421438 16.5452847,50.7896722 16.4305243,51.1552915 C16.3157639,51.5209107 16.194943,51.8891449 16.068058,52.2600052 C15.7831688,53.0295417 15.4930291,53.786974 15.1976302,54.5323251 L14.3011332,56.7943676 C14.2154666,57.0612254 14.1315187,57.3237458 14.049287,57.5819368 C13.9670553,57.8401277 13.8744178,58.0992224 13.7713716,58.3592286 C13.599628,58.7925722 13.4235422,59.2241965 13.2431088,59.6541143 C13.0626755,60.0840321 12.8779,60.5122306 12.6887769,60.9387226 C12.6132097,61.1293938 12.5851289,61.263626 12.6045337,61.3414232 C12.6239385,61.4192203 12.729227,61.4958018 12.9204022,61.5711697 C13.6329642,61.8520867 14.3341986,62.1235274 15.0241262,62.3855 C15.7140538,62.6474726 16.4100333,62.9068208 17.1120856,63.1635523 C17.4075381,63.2800301 17.6011327,63.3112579 17.692875,63.2572368 C17.7846173,63.2032156 17.9236383,63.0425739 18.1099422,62.7753068 C18.3548441,62.4108888 18.5945901,62.0594764 18.8291874,61.721059 C19.0637847,61.3826416 19.3035307,61.0312292 19.5484326,60.6668113 C19.5864214,60.6216617 19.6495686,60.5764104 19.737876,60.5310561 C19.8261835,60.4857019 19.9050951,60.4767281 19.9746134,60.5041347 C20.2316668,60.56539 20.482654,60.629265 20.7275828,60.6957614 C20.9725115,60.7622578 21.2166291,60.8434662 21.459943,60.9393891 C21.5120817,60.959944 21.5565425,61.012545 21.5933269,61.0971939 C21.6301113,61.1818427 21.6521432,61.265685 21.6594234,61.3487232 C21.6359949,61.5599493 21.583063,61.7695617 21.5006261,61.9775666 L19.944637,65.9036403 L19.9185678,65.8933629 Z M38.4182777,13.9898072 C37.9865528,14.2190811 37.5817487,14.4298226 37.2038534,14.622038 C36.825958,14.8142534 36.4442234,15.0091129 36.0586381,15.2066224 C35.9711226,15.2442238 35.8992603,15.288035 35.8430489,15.3380573 C35.7868375,15.3880795 35.7149752,15.4318907 35.6274597,15.4694922 C35.3909093,15.5870476 35.2114918,15.6312997 35.0892017,15.6022498 C34.9669117,15.5731999 34.8184579,15.4489259 34.643836,15.2294243 C34.5164424,15.0453525 34.3878597,14.8677652 34.2580842,14.6966571 C34.1283087,14.525549 33.9997261,14.3479617 33.8723324,14.1638899 C33.7555549,13.9951574 33.7971347,13.8419705 33.9970729,13.7043245 C34.7708299,13.1489896 35.5646162,12.630823 36.3784559,12.149809 C37.1922955,11.6687951 37.9648499,11.1199503 38.6961424,10.5032581 C39.1055463,10.1761113 39.5178702,9.86960245 39.9331266,9.58372242 L41.1788894,8.72608663 C41.5480061,8.47197105 41.9212344,8.23201059 42.2985854,8.00619806 C42.6759364,7.78038554 43.0491647,7.54042508 43.4182815,7.2863095 L45.6011226,5.71560591 C46.32874,5.19203543 47.0510385,4.66080326 47.7680397,4.12189346 C47.8910786,4.03718827 48.0058815,3.92418172 48.1124519,3.78287042 C48.2699256,3.58386721 48.3823467,3.4838242 48.4497185,3.48273839 C48.5170904,3.48165258 48.6144717,3.57314421 48.7418653,3.75721603 C48.8751114,3.98255464 49.0160452,4.20259588 49.1646712,4.41734634 C49.3132971,4.6320968 49.4542309,4.85213803 49.587477,5.07747664 C49.6888746,5.2567973 49.650221,5.43061731 49.4715151,5.59894188 C49.2419058,5.82495838 49.0226437,6.04951225 48.8137224,6.27261026 C48.604801,6.49570826 48.390847,6.72793168 48.1718538,6.96928749 C48.1055707,7.03756756 48.0366345,7.10201183 47.9650432,7.16262223 C47.893452,7.22323264 47.8298238,7.29534645 47.7741567,7.37896583 C47.6877299,7.48376151 47.5974595,7.59120262 47.5033428,7.70129238 C47.4092261,7.81138213 47.3502593,7.93124388 47.3264407,8.06088122 C47.3169132,8.11273616 47.3788739,8.17765584 47.5123244,8.2556422 C47.645775,8.33362857 47.7597268,8.40805044 47.8541833,8.47891006 C47.9486399,8.54976967 48.0419041,8.62710999 48.1339788,8.71093334 C48.2260535,8.79475669 48.3246257,8.87976655 48.4296984,8.96596548 C48.6292276,9.12302403 48.8222549,9.27889244 49.0087862,9.4335754 C49.1953174,9.58825836 49.3830367,9.73645724 49.5719498,9.87817646 C49.7974751,10.0399862 50.013844,10.1967709 50.2210632,10.3485354 C50.4282823,10.5002999 50.6393433,10.6494151 50.8542524,10.7958855 C51.2002302,11.0333059 51.5527017,11.2719107 51.9116775,11.5117067 C52.2706532,11.7515028 52.6331964,11.97185 52.9993178,12.1727549 C53.8366332,12.6607636 54.6393319,13.1725879 55.4074379,13.7082433 C56.175544,14.2438987 56.9172685,14.8316716 57.6326337,15.4715797 C57.8321629,15.6286383 58.03288,15.7792127 58.2347911,15.9233075 C58.4367022,16.0674023 58.6374194,16.2179767 58.8369486,16.3750353 C59.2100111,16.6844012 59.6200885,16.7191526 60.0671933,16.4792905 C60.2162282,16.3993365 60.3691058,16.3167367 60.5258307,16.2314886 C60.6825555,16.1462405 60.8431229,16.0583467 61.0075377,15.9678045 C61.2334719,15.8349097 61.4540948,15.6943474 61.6694129,15.5461133 C61.884731,15.3978792 62.1106618,15.2649865 62.3472122,15.147431 C62.4087317,15.1050784 62.496518,15.0842759 62.6105738,15.0850227 C62.7246296,15.0857696 62.8052704,15.1038577 62.8524987,15.1392875 C63.0414118,15.2810067 63.2214413,15.4344996 63.3925927,15.5997707 C63.5637441,15.7650418 63.7053245,15.9450046 63.8173383,16.1396646 C63.9341158,16.3083971 63.965487,16.4849661 63.911453,16.6693769 C63.857419,16.8537876 63.7670463,17.0349037 63.6403324,17.2127307 C63.5846653,17.29635 63.5145382,17.3672761 63.429949,17.4255109 L63.1877173,17.5922734 C62.7629335,17.9300084 62.3316572,18.2665505 61.8938754,18.6019099 C61.4560936,18.9372693 61.0118195,19.2714358 60.5610397,19.6044196 C60.3101981,19.7997575 60.0384005,19.9812125 59.7456388,20.1487903 C59.452877,20.316368 59.1757714,20.4901535 58.9143137,20.670152 C58.4481541,21.013724 57.9896912,21.3519967 57.5389114,21.6849805 C57.0881316,22.0179643 56.6426666,22.3586127 56.2025029,22.7069358 C55.8593822,22.9658025 55.541378,23.0148732 55.2484809,22.8541493 C55.0914162,22.7584481 54.9458886,22.6548072 54.8118937,22.5432237 C54.6778988,22.4316402 54.5501327,22.3044479 54.4285915,22.1616428 C54.2173574,21.9220507 54.1233789,21.7206405 54.1466532,21.557406 C54.1699275,21.3941715 54.2963674,21.199549 54.5259767,20.9735325 C54.6277834,20.8581486 54.7322425,20.7466013 54.8393572,20.6388871 C54.9464719,20.531173 55.050931,20.4196256 55.1527377,20.3042418 C55.3054476,20.1311661 55.4608093,19.9619277 55.6188273,19.7965216 C55.7768454,19.6311155 55.9398968,19.4565831 56.1079867,19.2729192 C56.1944134,19.1681236 56.2861469,19.070999 56.3831898,18.9815426 C56.4802327,18.8920863 56.579656,18.7896677 56.6814627,18.6742839 C56.8235565,18.4858688 56.8884779,18.3335982 56.8762287,18.2174675 C56.8639796,18.1013368 56.7687079,17.9800833 56.590411,17.8537034 C56.1759726,17.5501745 55.7591587,17.2596136 55.3399566,16.9820122 C54.9207546,16.7044107 54.4962508,16.4191438 54.0664326,16.126203 C53.8255275,15.9749815 53.6027273,15.9811573 53.3980254,16.1447307 C53.1980871,16.2823766 53.0046508,16.4212083 52.8177106,16.5612298 C52.6307703,16.7012513 52.4450238,16.834789 52.2604654,16.9618468 C51.9741004,17.2042884 51.6797777,17.4352221 51.3774885,17.6546547 C51.0751993,17.8740874 50.7808766,18.105021 50.4945116,18.3474627 C49.6237117,18.9922539 48.7470726,19.5957694 47.8645679,20.1580271 C46.9820632,20.7202848 46.1054241,21.3238003 45.2346242,21.9685916 C45.0145424,22.1427531 44.7930008,22.3065955 44.5699927,22.4601237 C44.3469847,22.6136519 44.1254431,22.7774943 43.9053612,22.9516558 C43.7006593,23.1152292 43.6264828,23.3361523 43.6828295,23.6144316 C43.7933456,24.0366019 43.9159391,24.4844214 44.0506136,24.9579036 C44.1852882,25.4313858 44.3078817,25.8792053 44.4183978,26.3013755 C44.4959768,26.6103335 44.6784904,26.6771878 44.9659441,26.5019405 C45.3929052,26.298594 45.817206,26.0914158 46.2388591,25.8803997 C46.6605122,25.6693836 47.0795049,25.4545359 47.49585,25.2358501 C47.6910245,25.1241316 47.854688,25.1473442 47.9868453,25.3054886 C48.1190027,25.4636329 48.2458501,25.6141054 48.3673913,25.7569104 C48.4889325,25.8997155 48.6027821,26.0478123 48.7089435,26.2012055 C48.9154138,26.4667251 49.0067383,26.6643006 48.9829196,26.793938 C48.959101,26.9235753 48.821773,27.0860605 48.5709314,27.2813983 C48.3508496,27.4555599 48.131962,27.623237 47.914262,27.7844349 C47.696562,27.9456327 47.4723664,28.1056403 47.2416685,28.2644626 C46.4228606,28.9187562 45.5127059,29.6132879 44.5111772,30.3480784 C43.5096485,31.082869 42.4978933,31.7454327 41.4758811,32.3357895 C41.0617135,32.6888638 40.6757941,32.7054237 40.3181115,32.3854696 C40.1811904,32.2532527 40.0558061,32.1130968 39.9419548,31.9649977 C39.8281035,31.8168986 39.7127908,31.6584852 39.5960133,31.4897526 C39.5641649,31.4437347 39.5565774,31.3753537 39.5732504,31.2846075 C39.5899235,31.1938614 39.6107133,31.1172679 39.6356207,31.0548248 C39.7718621,30.825143 39.9358323,30.6273305 40.1275363,30.4613816 L40.7026453,29.9635371 C40.8943493,29.7975881 41.0754344,29.6163025 41.2459061,29.4196749 C41.4163778,29.2230472 41.5508819,28.966254 41.6494225,28.6492874 C41.9171416,28.2158511 41.9951976,27.7544577 41.8835928,27.2650933 C41.7013502,26.5752318 41.4751832,25.8137079 41.2050853,24.9804985 C40.9349873,24.1472892 40.7218182,23.3881408 40.5655715,22.7030305 C40.449203,22.2395935 40.3354903,21.7799983 40.2244298,21.3242309 C40.1133694,20.8684636 39.9919668,20.4141623 39.8602185,19.9613135 C39.7592298,19.4872884 39.629321,18.9878861 39.4704879,18.4630919 C39.3116549,17.9382976 39.163168,17.412052 39.0250229,16.8843393 C38.8868778,16.3566265 38.7620047,15.8480955 38.6504,15.3587311 C38.5387952,14.8693666 38.4614219,14.4130632 38.4182777,13.9898072 Z M49.0668528,16.1369831 C49.4099736,15.8781164 49.7442085,15.6310293 50.0695675,15.3957144 C50.3949265,15.1603995 50.7344693,14.920982 51.0882062,14.6774545 C51.2775283,14.5244693 51.2724248,14.3694497 51.0728956,14.2123912 C51.0362835,14.1923007 50.9707501,14.1468263 50.8762936,14.0759667 C49.9954249,13.4594065 49.1225314,12.8543598 48.257587,12.2608086 C47.3926425,11.6672573 46.5197491,11.0622107 45.6388804,10.4456504 C45.55504,10.3901301 45.4738548,10.3384455 45.3953225,10.2905948 C45.3167902,10.2427442 45.235605,10.1910595 45.1517646,10.1355392 C44.8896272,9.95363899 44.612454,9.96327616 44.3202366,10.164451 C43.8031736,10.5657149 43.2885002,10.9540092 42.7762009,11.3293456 C42.2639017,11.7046819 41.7439203,12.0853067 41.2162412,12.4712312 C40.9807795,12.6559809 40.8965313,12.8951615 40.9634942,13.1887802 C41.0458369,13.4718107 41.1320233,13.75219 41.2220559,14.0299265 C41.3120886,14.3076629 41.392967,14.5803727 41.4646936,14.8480639 C41.6586411,15.6204589 41.8487408,16.3954893 42.0349983,17.1731783 C42.2212559,17.9508674 42.4113556,18.7258978 42.605303,19.4982927 C42.6557974,19.7353053 42.7110546,19.9463873 42.7710763,20.1315449 C42.8417143,20.3320418 42.927833,20.4482728 43.0294351,20.4802412 C43.1310373,20.5122096 43.2688074,20.4569961 43.4427496,20.314599 C44.5537749,19.4591305 45.5497085,18.6998831 46.4305801,18.036834 C47.3114518,17.3737849 48.1902006,16.7405076 49.0668528,16.1369831 Z M118.018422,28.3737275 C115.059107,26.4454115 112.084809,24.540701 109.095439,22.6595387 L100.127373,17.0160803 C99.6974788,16.7865696 99.4791856,16.4597714 99.472487,16.0356757 C99.4657885,15.6115801 99.6012938,15.2338364 99.8790071,14.9024332 C99.9906814,14.7967626 100.106331,14.7543898 100.225959,14.7753134 C100.345588,14.796237 100.46271,14.8210897 100.577329,14.8498722 C100.926933,14.9619742 101.27259,15.0715655 101.614311,15.1786493 C101.956033,15.2857331 102.293808,15.3903063 102.627647,15.4923719 C102.716485,15.526836 102.794934,15.5602109 102.862998,15.5924975 C102.931063,15.6247842 103.014521,15.6503002 103.113377,15.6690463 C103.384161,15.7309663 103.589679,15.651902 103.729936,15.4318511 L105.713558,12.319717 C106.00409,11.8638971 106.291045,11.4223814 106.574431,10.9951566 C106.857818,10.5679318 107.136891,10.1213979 107.411659,9.6555416 C107.901085,8.81813656 108.4245,7.93610008 108.981918,7.00940568 C109.539337,6.08271128 110.06776,5.19281595 110.567205,4.33969299 C110.721753,4.06245182 110.795417,3.87734355 110.788199,3.78436263 C110.780981,3.69138172 110.655537,3.5231303 110.411863,3.27960334 C110.189697,3.07186711 109.968972,2.87057248 109.749679,2.67571341 C109.530387,2.48085435 109.30178,2.2745416 109.063851,2.05676896 C108.957777,1.94504189 108.837378,1.82971872 108.70265,1.710796 C108.567922,1.59187328 108.534886,1.4437881 108.603542,1.26653602 C108.676471,1.04781168 108.775548,0.84021558 108.900778,0.643741486 C109.026007,0.447267393 109.161621,0.25188495 109.307623,0.057588296 C109.32766,0.0261524411 109.411818,0.0244941583 109.560102,0.052613398 C109.708385,0.0807326376 109.826943,0.112023832 109.915781,0.146487919 C111.148155,0.820628502 112.295283,1.50678517 113.357201,2.20497849 C114.419119,2.90317182 115.527575,3.59785064 116.682603,4.2890358 C117.04517,4.51987307 117.2505,4.72793784 117.2986,4.91323635 C117.346699,5.09853486 117.247658,5.36691806 117.001472,5.71839399 C116.785342,6.02271614 116.606746,6.20730528 116.465681,6.27216696 C116.324615,6.33702864 116.074276,6.32126767 115.714654,6.22488358 C115.495434,6.15160052 115.277653,6.08475706 115.061306,6.02435117 C114.844958,5.96394528 114.640068,5.89426109 114.44663,5.81529652 C114.253192,5.73633194 114.09773,5.67602069 113.980238,5.63436096 C113.862746,5.59270123 113.762823,5.58432327 113.680468,5.6092268 C113.598112,5.63413034 113.52294,5.69122593 113.454948,5.7805153 C113.386956,5.86980466 113.29786,6.00089598 113.187658,6.17379318 C112.576539,7.13258675 111.994048,8.03777439 111.440166,8.88938323 C110.886284,9.74099208 110.354952,10.5572233 109.846153,11.3381015 C109.337354,12.1189797 108.845026,12.8827081 108.369154,13.6293096 L106.964088,15.833738 C106.853887,16.0066352 106.747627,16.1820388 106.645308,16.3599542 C106.542988,16.5378696 106.44461,16.7182914 106.350172,16.901225 C106.255734,17.0841586 106.222143,17.2063961 106.249397,17.2679412 C106.276652,17.3294863 106.36696,17.4311754 106.520325,17.5730117 C107.792917,18.4274326 109.026081,19.2567501 110.219855,20.0609889 C111.413628,20.8652278 112.509193,21.5627474 113.506583,22.1535685 C113.806095,22.3442601 114.031794,22.4769088 114.183686,22.5515185 C114.335578,22.6261282 114.463086,22.6520696 114.566215,22.6293435 C114.669343,22.6066174 114.764552,22.5180865 114.851845,22.363748 C114.939137,22.2094094 115.067937,21.998641 115.238249,21.7314362 C116.138428,20.2495961 117.079402,18.7385203 118.0612,17.1981634 C119.042997,15.6578065 119.995462,14.1982386 120.918622,12.8194159 C121.074643,12.6094013 121.218839,12.3918627 121.351214,12.1667935 C121.483589,11.9417243 121.604139,11.7091313 121.712868,11.4690075 C121.851653,11.1817299 121.915998,10.9851651 121.905908,10.879307 C121.895817,10.7734489 121.7847,10.6087952 121.572553,10.3853411 L121.000643,9.82235363 C120.810005,9.63469021 120.614361,9.45488845 120.413705,9.28294295 C120.13423,9.06081544 119.977259,8.87249152 119.942787,8.71796554 C119.908314,8.56343955 119.965478,8.33468224 120.114281,8.03168674 C120.158627,7.92734278 120.209418,7.82158001 120.266656,7.71439528 C120.323893,7.60721055 120.395457,7.5036252 120.481349,7.40363611 C120.683188,7.15650415 120.847493,7.02910433 120.974267,7.02143284 C121.101041,7.01376134 121.274772,7.08017942 121.495464,7.22068906 C122.78382,8.08514636 124.038089,8.87266052 125.258308,9.58325516 C126.478528,10.2938498 127.649706,11.0726543 128.771878,11.9196921 C128.834934,11.9598377 128.886901,12.0260683 128.927783,12.1183859 C128.968665,12.2107035 128.974078,12.2804382 128.944023,12.327592 C128.800966,12.6563418 128.588448,13.0071491 128.306461,13.3800245 C128.19626,13.5529217 128.002897,13.5955325 127.726367,13.5078582 C127.272163,13.3512557 126.818333,13.2114619 126.364865,13.0884727 C125.911397,12.9654835 125.452559,12.8335485 124.988336,12.692664 C124.701788,12.6207076 124.468353,12.7261891 124.288022,13.0091118 C123.168768,14.6608208 122.085699,16.3079124 121.038782,17.9504358 C119.991865,19.5929592 118.945331,21.2522644 117.89915,22.9284011 C117.77893,23.1170162 117.664089,23.3145761 117.554624,23.5210866 C117.445158,23.7275971 117.384753,23.926671 117.373407,24.1183144 C117.360588,24.2427311 117.390015,24.3443266 117.461688,24.4231037 C117.533361,24.5018808 117.616488,24.5713775 117.71107,24.6315959 C117.805653,24.6918143 117.902739,24.7481024 118.002331,24.8004619 C118.101922,24.8528213 118.199008,24.9091094 118.293591,24.9693278 C119.440073,25.7434575 120.56466,26.464979 121.667388,27.1339139 C122.770115,27.8028488 123.878939,28.514334 124.993894,29.2683909 C125.167295,29.3787913 125.299113,29.4240482 125.38935,29.4041629 C125.479588,29.3842775 125.584815,29.2800289 125.705035,29.0914137 C125.951221,28.7399378 126.18558,28.3809399 126.40812,28.0144094 C126.63066,27.6478789 126.849256,27.2788448 127.063914,26.907296 C127.418829,26.3156963 127.790939,25.7405802 128.180254,25.1819305 C128.569569,24.6232807 128.938806,24.0352876 129.287976,23.4179336 C129.512652,23.0306669 129.766312,22.6066209 130.048962,22.1457828 C130.331612,21.6849447 130.615326,21.2137456 130.900113,20.7321714 C131.184899,20.2505972 131.468613,19.7793981 131.751263,19.31856 C132.033913,18.8577219 132.287573,18.4336759 132.51225,18.0464092 C132.592396,17.9206658 132.632801,17.8138143 132.633465,17.7258516 C132.634129,17.6378889 132.581425,17.5380455 132.475352,17.4263184 C132.225932,17.1570371 131.958248,16.881653 131.672291,16.6001579 C131.386335,16.3186628 131.108632,16.0589964 130.839176,15.8211509 C130.612738,15.654887 130.559629,15.4774501 130.679849,15.2888349 C130.774287,15.1059013 130.867656,14.9333384 130.959957,14.7711409 C131.052259,14.6089434 131.1485,14.4492574 131.248684,14.2920782 C131.338849,14.1506168 131.416858,14.0456111 131.482713,13.9770579 C131.548569,13.9085046 131.611219,13.8710562 131.670665,13.8647113 C131.730111,13.8583665 131.808192,13.8749349 131.904911,13.9144172 C132.00163,13.9538995 132.128807,14.0238216 132.286444,14.1241857 C132.98005,14.5657874 133.627791,14.9837122 134.229687,15.3779727 C134.831583,15.7722332 135.412329,16.1475039 135.971943,16.5037962 L139.29414,18.6189576 C139.467541,18.729358 139.565363,18.8192589 139.587608,18.8886629 C139.609854,18.9580669 139.58164,19.089252 139.502966,19.282222 C139.442856,19.3765296 139.386687,19.4733448 139.334459,19.5726705 C139.282231,19.6719963 139.226063,19.7688115 139.165953,19.8631191 C139.085806,19.9888625 139.014978,20.1260607 138.953468,20.2747176 C138.891958,20.4233746 138.814649,20.501206 138.721539,20.5082142 C138.551082,20.532267 138.379892,20.5227066 138.207963,20.4795327 C138.036034,20.4363589 137.869117,20.3853268 137.707206,20.3264351 C137.341839,20.2042966 136.991873,20.0753899 136.657297,19.939711 C136.322722,19.8040321 135.977765,19.6672665 135.622416,19.5294102 C135.387432,19.4460907 135.199814,19.5144554 135.059557,19.7345064 C133.884611,21.6822028 132.692114,23.5965888 131.48203,25.4777219 C130.271947,27.358855 129.182504,29.128941 128.21367,30.7880332 C128.053376,31.03952 128.063539,31.2669507 128.244158,31.4703321 C128.381759,31.6021319 128.510408,31.7392796 128.630109,31.8817792 C128.74981,32.0242789 128.89135,32.1585858 129.054733,32.2847042 C129.434536,32.5928044 129.716951,32.9493798 129.901988,33.3544409 C130.016752,33.6263755 130.009015,33.8645057 129.878776,34.0688388 C129.822939,34.1216741 129.759957,34.2031033 129.689829,34.3131288 C129.52379,34.5388613 129.388876,34.7070694 129.285084,34.8177582 C129.181291,34.928447 129.081773,34.9976626 128.986527,35.0254069 C128.89128,35.0531512 128.775595,35.0347369 128.639466,34.9701636 C128.503338,34.9055904 128.317048,34.7980323 128.080591,34.6474863 C127.313912,34.1814568 126.554758,33.7036461 125.803107,33.2140398 C125.051455,32.7244335 124.29731,32.238764 123.540649,31.7570167 C122.500241,31.0946141 121.532588,30.5006294 120.637663,29.9750449 C119.742737,29.4494604 118.869665,28.9156933 118.018422,28.3737275 Z M141.49936,62.2573961 L143.762086,67.2229894 L143.862962,67.4537158 C144.037009,67.8051857 144.175099,68.0044928 144.277236,68.0516433 C144.379373,68.0987938 144.620396,68.0906997 145.000314,68.0273609 L146.191445,67.8150264 C146.588491,67.7442479 146.976966,67.6771902 147.356884,67.6138513 C147.626563,67.5780596 147.810054,67.5898715 147.907363,67.6492873 C148.004672,67.708703 148.097068,67.861765 148.184553,68.1084777 C148.27951,68.3722813 148.348313,68.5762636 148.390964,68.7204307 C148.433615,68.8645978 148.43563,68.9857407 148.397008,69.0838631 C148.358386,69.1819855 148.27617,69.2736223 148.150356,69.358776 C148.024542,69.4439298 147.836916,69.5508481 147.587471,69.6795342 C147.054326,69.9517856 146.468484,70.2316738 145.829928,70.519207 C145.191371,70.8067403 144.60553,71.0866284 144.072385,71.3588799 L143.558553,71.582069 C143.387275,71.6564657 143.21919,71.7498119 143.054293,71.8621104 C142.889396,71.9744088 142.740621,72.0186945 142.607965,71.9949689 C142.499909,71.9808944 142.430937,71.939676 142.401048,71.8713123 C142.371158,71.8029486 142.346097,71.7223208 142.325863,71.6294264 C142.305629,71.5365321 142.289677,71.4417793 142.278007,71.3451651 C142.266337,71.248551 142.245558,71.1660633 142.215669,71.0976996 C141.698816,70.1020025 141.230941,69.0901343 140.812028,68.0620645 C140.393114,67.0339948 139.933803,66.0184068 139.434078,65.0152701 C138.956771,64.0634061 138.510766,63.1132152 138.096051,62.1646686 C137.681335,61.2161221 137.256194,60.2670369 136.820615,59.3173845 C136.616678,58.897551 136.43789,58.4769696 136.284246,58.0556278 C136.130601,57.634286 135.968941,57.2062651 135.79926,56.7715522 C135.512204,56.0217629 135.209894,55.2836971 134.892319,54.5573326 C134.574744,53.8309681 134.181968,53.1423653 133.713979,52.4915033 C133.481076,52.1452616 133.399511,51.865477 133.469283,51.6521413 C133.539054,51.4388055 133.758606,51.2417587 134.127945,51.0609949 L134.513319,50.8936031 C134.701725,50.8117667 134.853459,50.7509432 134.968525,50.7111308 C135.083592,50.6713183 135.186588,50.6621693 135.277517,50.6836834 C135.368445,50.7051975 135.463884,50.7603397 135.563838,50.8491117 C135.663792,50.9378838 135.780556,51.0651084 135.914136,51.2307896 C136.173822,51.5450611 136.435372,51.8636005 136.698795,52.1864174 C136.962217,52.5092344 137.223767,52.8277738 137.483453,53.1420452 C137.681178,53.3612108 137.816938,53.4852686 137.890738,53.5142224 C137.964539,53.5431761 138.129895,53.5018561 138.386812,53.3902609 C138.883518,53.1745104 139.374067,52.9563503 139.858473,52.7357741 C140.342879,52.5151979 140.833428,52.2970378 141.330135,52.0812873 C141.973519,51.7814887 142.627325,51.4822475 143.291573,51.1835548 C143.955821,50.884862 144.605891,50.5770755 145.241803,50.260186 C145.826331,49.9656155 146.417001,49.6734623 147.013829,49.3837175 C147.610658,49.0939726 148.201327,48.8018194 148.785855,48.5072489 C148.837239,48.4849299 148.886753,48.4583385 148.934401,48.427474 C148.982048,48.3966095 149.035299,48.3785635 149.094154,48.3733354 C149.755589,48.2080527 150.041175,47.789128 149.950921,47.1165488 C149.93287,46.9820329 149.935683,46.8486249 149.95936,46.7163206 C149.983038,46.5840163 149.994414,46.4468885 149.993491,46.304933 C149.989462,46.0626434 150.000147,45.8190505 150.025545,45.574147 C150.050944,45.3292434 149.990474,45.086053 149.844133,44.8445684 C149.784354,44.707841 149.790903,44.5829783 149.863781,44.4699765 C150.174601,43.9689082 150.609339,43.6580564 151.168007,43.5374118 C151.209735,43.5396234 151.269367,43.5594785 151.346903,43.5969777 C151.42444,43.6344769 151.462116,43.6740367 151.459933,43.7156582 C151.95806,45.2279046 152.550382,46.6992107 153.236915,48.1296206 C153.923448,49.5600305 154.575716,51.0052981 155.193738,52.4654667 C155.854411,54.0698025 156.549329,55.659235 157.278513,57.233812 C157.55499,57.8661764 157.84244,58.4886789 158.140873,59.1013383 C158.439305,59.7139977 158.735319,60.3327805 159.028924,60.9577052 C159.193316,61.3337056 159.347273,61.7091475 159.490801,62.0840421 C159.634329,62.4589368 159.767422,62.8332729 159.890086,63.2070618 C160.007461,63.5221382 160.028617,63.7569845 159.953557,63.9116078 C159.878496,64.0662311 159.678255,64.2142174 159.352827,64.3555712 C158.658059,64.6776888 157.969998,64.9918091 157.288622,65.2979415 C156.607246,65.604074 155.906885,65.9133687 155.187517,66.225835 L154.90491,66.3485891 C154.770071,66.3664849 154.655321,66.3604032 154.560656,66.3303436 C154.465992,66.3002841 154.409635,66.2179976 154.391584,66.0834817 C154.339615,65.6383127 154.172581,65.2329621 153.890478,64.8674178 C153.858405,64.8406756 153.85553,64.7758315 153.881851,64.6728835 C153.908173,64.5699354 153.943289,64.4987575 153.9872,64.4593475 C154.370561,64.1708101 154.713826,63.8488498 155.017006,63.4934569 C155.320186,63.138064 155.635115,62.7979072 155.961803,62.4729764 C156.191014,62.251396 156.237276,62.0076019 156.10059,61.7415867 C155.94896,61.4413896 155.817105,61.1631133 155.705019,60.9067494 C155.592934,60.6503855 155.489414,60.3903056 155.394457,60.126502 C155.299499,59.8626984 155.188507,59.5855278 155.061477,59.2949821 C154.934447,59.0044363 154.776439,58.6663426 154.587447,58.2806909 C154.405928,57.9121301 154.241538,57.5361354 154.094274,57.1526952 C153.947011,56.7692551 153.791185,56.3895406 153.626793,56.0135401 C153.280882,55.2689789 152.941126,54.5268417 152.607515,53.7871061 C152.273904,53.0473706 151.934148,52.3052333 151.588237,51.5606721 C151.548692,51.516839 151.510239,51.4521961 151.472877,51.3667415 C151.304119,51.0739841 151.180974,50.9088583 151.103437,50.871359 C151.025901,50.8338598 150.836721,50.8906119 150.535893,51.0416169 C149.943892,51.3190965 149.356182,51.594712 148.772746,51.8684716 C148.189309,52.1422313 147.605335,52.4263922 147.020807,52.7209626 C146.832401,52.802799 146.725585,52.8847847 146.700354,52.9669219 C146.675124,53.0490592 146.703607,53.1841259 146.785802,53.3721261 C146.957667,53.7652175 147.131942,54.1521704 147.308634,54.5329965 C147.485325,54.9138225 147.668164,55.2970557 147.857156,55.6827073 C148.073854,56.1783443 148.280663,56.6630157 148.477589,57.136736 C148.674515,57.6104564 148.889887,58.091408 149.123713,58.5796053 C149.340411,59.0752422 149.563802,59.5628793 149.793892,60.0425311 C150.023982,60.5221829 150.255936,61.0061001 150.489762,61.4942974 C150.639209,61.836116 150.687379,62.0744809 150.634274,62.2093992 C150.581169,62.3443175 150.399378,62.4995422 150.088894,62.6750778 C149.925089,62.7665655 149.769849,62.854332 149.623171,62.93838 C149.476493,63.022428 149.32499,63.1187399 149.168657,63.2273185 C148.882773,63.4125054 148.657471,63.4798639 148.492742,63.4293961 C148.328013,63.3789282 148.1661,63.1950531 148.006998,62.8777651 C147.563946,61.9110218 147.139351,60.9515314 146.733199,59.999265 C146.327048,59.0469986 145.902452,58.0875082 145.459401,57.1207649 C145.270409,56.7351132 145.094265,56.3438877 144.930965,55.9470765 C144.767665,55.5502653 144.591522,55.1590397 144.40253,54.773388 C144.2509,54.4731909 144.132036,54.3062052 144.045936,54.2724258 C143.959835,54.2386464 143.771202,54.2849933 143.480029,54.4114678 C142.8463,54.6867357 142.214449,54.9662722 141.584457,55.2500856 C140.954464,55.533899 140.326349,55.8219809 139.700093,56.1143397 C139.511687,56.1961762 139.374121,56.2660979 139.287391,56.324107 C139.20066,56.3821162 139.147094,56.4460558 139.126692,56.5159277 C139.106289,56.5857997 139.116091,56.6781397 139.156098,56.7929506 C139.196104,56.9077615 139.257204,57.0591648 139.3394,57.247165 C139.722673,58.0771808 140.091226,58.9084912 140.445071,59.7411211 C140.798917,60.573751 141.158906,61.4087812 141.525051,62.2462367 L141.49936,62.2573961 Z" id="Н-а-ш-е" fill="#FFFFFF"></path>
                <g id="Group-Copy" transform="translate(59.000000, 42.000000)" fill="#FFFFFF">
                    <path d="M10.9478433,11.7578306 L10.9241265,11.7321643 L11.4426969,11.073877 L3.3380669,2.58090803 L3.71899517,2.1398024 L12.3643401,10.2131183 L12.8137339,9.48066637 L4.71448773,1.14889814 L5.02288726,0.773580377 C11.2512846,6.04301176 14.8328908,9.1895244 15.7677057,10.2131183 C17.1699281,11.7485091 17.5311496,13.3033094 17.5311496,14.9271666 C17.5311496,16.009738 17.8045669,16.8010606 18.3514013,17.3011345 L19.5473268,18.5038202 L18.9545602,19.1380092 L19.0030921,19.1828548 L17.7302398,20.3725699 L16.5275541,19.1766444 C16.0274802,18.62981 15.2361576,18.3563928 14.1535862,18.3563928 C12.529729,18.3563928 10.9749287,17.9951712 9.43953791,16.5929488 C8.41594402,15.6581339 5.26943138,12.0765278 0,5.84813039 L0.37531776,5.53973086 L8.70708599,13.638977 L9.43953791,13.1895832 L1.36622202,4.54423831 L1.80732766,4.16331003 L10.3002966,12.26794 L10.9478433,11.7578306 Z" id="Combined-Shape"></path>
                    <path d="M18.6392888,17.4677677 L16.4464204,19.4108998 L36.1522551,39.5626219 C37.4468953,41.0496245 38.7173326,41.1342108 39.963567,39.8163806 C41.2098014,38.4985505 41.2098014,37.3878632 39.963567,36.484319 L18.6392888,17.4677677 Z" id="Path-7"></path>
                    <path d="M6.86695336,26.0316171 L4.67408489,27.9747492 L16.2873943,40.6944313 C17.5820345,42.1814339 18.8524718,42.2660202 20.0987062,40.9481901 C21.3449406,39.6303599 21.3449406,38.5196727 20.0987062,37.6161284 L6.86695336,26.0316171 Z" id="Path-7-Copy" transform="translate(12.853733, 33.954283) scale(-1, 1) translate(-12.853733, -33.954283) "></path>
                    <path d="M27.1656208,21.5043794 L25.7074669,19.9024827 C26.9580277,18.3806217 27.5833081,16.9069491 27.5833081,15.4814648 C27.5833081,13.3432383 27.7988214,7.41231962 32.6130635,3.91376391 C37.4273057,0.415208194 41.7100595,3.42583106 42.6165076,4.34432971 C43.5229558,5.26282835 45.9357044,9.95441013 42.972709,14.4937085 C40.0097137,19.0330068 33.967004,19.4272749 31.773312,19.4272749 C30.3108506,19.4272749 28.7749536,20.1196431 27.1656208,21.5043794 Z" id="Path-8"></path>
                </g>
                <g id="Group-7" transform="translate(32.000000, 65.000000)" stroke="#FFFFFF" stroke-width="1.18">
                    <path d="M11.5671798,2.11271096 C11.5671798,3.86299651 8.9776989,5.28177739 5.78358989,5.28177739 C2.58948089,5.28177739 0,3.86299651 0,2.11271096" id="Stroke-63"></path>
                    <path d="M11.5671798,3.16906643 C11.5671798,1.41878088 14.1563989,0 17.3506011,0 C20.5451404,0 23.1343596,1.41878088 23.1343596,3.16906643" id="Stroke-1"></path>
                    <path d="M34.7015394,2.11271096 C34.7015394,3.86299651 32.111983,5.28177739 28.9181181,5.28177739 C25.7235787,5.28177739 23.1343596,3.86299651 23.1343596,2.11271096" id="Stroke-3"></path>
                </g>
                <g id="Group-6" transform="translate(95.000000, 65.000000)" stroke="#FFFFFF" stroke-width="1.18">
                    <path d="M11.5671798,2.11271096 C11.5671798,3.86299651 8.9776989,5.28177739 5.78358989,5.28177739 C2.58948089,5.28177739 0,3.86299651 0,2.11271096" id="Stroke-63-Copy"></path>
                    <path d="M11.5671798,3.16906643 C11.5671798,1.41878088 14.1563989,0 17.3506011,0 C20.5451404,0 23.1343596,1.41878088 23.1343596,3.16906643" id="Stroke-1-Copy"></path>
                    <path d="M34.7015394,2.11271096 C34.7015394,3.86299651 32.111983,5.28177739 28.9181181,5.28177739 C25.7235787,5.28177739 23.1343596,3.86299651 23.1343596,2.11271096" id="Stroke-3-Copy"></path>
                </g>
                <g id="Group-6-Copy" transform="translate(82.500000, 31.000000) rotate(90.000000) translate(-82.500000, -31.000000) translate(65.000000, 28.000000)" stroke="#FFFFFF" stroke-width="1.18">
                    <path d="M11.5671798,2.11271096 C11.5671798,3.86299651 8.9776989,5.28177739 5.78358989,5.28177739 C2.58948089,5.28177739 0,3.86299651 0,2.11271096" id="Stroke-63-Copy"></path>
                    <path d="M11.5671798,3.16906643 C11.5671798,1.41878088 14.1563989,0 17.3506011,0 C20.5451404,0 23.1343596,1.41878088 23.1343596,3.16906643" id="Stroke-1-Copy"></path>
                    <path d="M34.7015394,2.11271096 C34.7015394,3.86299651 32.111983,5.28177739 28.9181181,5.28177739 C25.7235787,5.28177739 23.1343596,3.86299651 23.1343596,2.11271096" id="Stroke-3-Copy"></path>
                </g>
                <g id="Group-6-Copy-2" transform="translate(82.500000, 107.000000) rotate(90.000000) translate(-82.500000, -107.000000) translate(65.000000, 104.000000)" stroke="#FFFFFF" stroke-width="1.18">
                    <path d="M11.5671798,2.11271096 C11.5671798,3.86299651 8.9776989,5.28177739 5.78358989,5.28177739 C2.58948089,5.28177739 0,3.86299651 0,2.11271096" id="Stroke-63-Copy"></path>
                    <path d="M11.5671798,3.16906643 C11.5671798,1.41878088 14.1563989,0 17.3506011,0 C20.5451404,0 23.1343596,1.41878088 23.1343596,3.16906643" id="Stroke-1-Copy"></path>
                    <path d="M34.7015394,2.11271096 C34.7015394,3.86299651 32.111983,5.28177739 28.9181181,5.28177739 C25.7235787,5.28177739 23.1343596,3.86299651 23.1343596,2.11271096" id="Stroke-3-Copy"></path>
                </g>
            </g>
        </g>
    </g>
</svg>