<?xml version="1.0" encoding="UTF-8"?>
<svg width="237px" height="85px" viewBox="0 0 237 85" version="1.1" xmlns="http://www.w3.org/2000/svg" xmlns:xlink="http://www.w3.org/1999/xlink">
    <!-- Generator: Sketch 52.1 (67048) - http://www.bohemiancoding.com/sketch -->
    <title>o-teremke</title>
    <desc>Created with Sketch.</desc>
    <g id="0-Navigation-menu-" stroke="none" stroke-width="1" fill="none" fill-rule="evenodd">
        <g id="0.2.-Main-menu-D" transform="translate(-152.000000, -170.000000)">
            <g id="o-teremke" transform="translate(150.000000, 171.000000)">
                <path d="M16.00016,50.03968 C15.8302392,50.0207999 15.6556009,50.0019201 15.47624,49.98304 C15.2968791,49.9641599 15.103361,49.9452801 14.89568,49.9264 C14.291517,49.8508796 13.6968029,49.7848003 13.11152,49.72816 C12.5262371,49.6715197 11.931523,49.6054404 11.32736,49.52992 C10.6854368,49.3788792 10.0293634,49.1853612 9.35912,48.94936 C8.68887665,48.7133588 8.05168302,48.4301617 7.44752,48.09976 C6.84335698,47.7693583 6.2816826,47.3964821 5.76248,46.98112 C5.2432774,46.5657579 4.80432179,46.1032025 4.4456,45.59344 C4.18127868,45.1780779 3.92640123,44.7627221 3.68096,44.34736 C3.43551877,43.9319979 3.20896104,43.5072022 3.00128,43.07296 C2.73695868,42.4499169 2.55760047,41.7702437 2.4632,41.03392 C2.36879953,40.2975963 2.36407958,39.5612837 2.44904,38.82496 C2.53400042,38.0886363 2.70391873,37.3759234 2.9588,36.6868 C3.21368127,35.9976766 3.55823783,35.3699228 3.99248,34.80352 C4.69104349,33.9539158 5.34239698,33.2459228 5.94656,32.67952 C6.55072302,32.1131172 7.17847674,31.631682 7.82984,31.2352 C8.48120326,30.838718 9.19391613,30.4941615 9.968,30.20152 C10.7420839,29.9088785 11.6388749,29.6209614 12.6584,29.33776 C12.7716806,29.2999998 12.8896794,29.2764 13.0124,29.26696 C13.1351206,29.25752 13.2625593,29.2433601 13.39472,29.22448 C13.7534418,29.1867198 14.1121582,29.1536801 14.47088,29.12536 C14.8296018,29.0970399 15.1883182,29.0640002 15.54704,29.02624 C15.9624021,28.9884798 16.3211185,28.9979197 16.6232,29.05456 C18.4923293,29.3000012 20.1584727,29.6398378 21.62168,30.07408 C23.0848873,30.5083222 24.3262349,31.1171961 25.34576,31.90072 C26.3652851,32.6842439 27.1582372,33.675434 27.72464,34.87432 C28.2910428,36.073206 28.6119996,37.5505512 28.68752,39.3064 C28.7252802,40.307045 28.6497609,41.2179959 28.46096,42.03928 C28.2721591,42.8605641 28.0220016,43.5921568 27.71048,44.23408 C27.3989584,44.8760032 27.0591218,45.4235177 26.69096,45.87664 C26.3227982,46.3297623 25.9876815,46.6884787 25.6856,46.9528 C25.5534393,47.0660806 25.4212807,47.1746395 25.28912,47.27848 C25.1569593,47.3823205 25.0153608,47.4719996 24.86432,47.54752 C24.5244783,47.755201 24.1846417,47.9487191 23.8448,48.12808 C23.5049583,48.3074409 23.1651217,48.4915191 22.82528,48.68032 C22.0700762,49.0579219 21.296004,49.3269592 20.50304,49.48744 C19.710076,49.6479208 18.8982442,49.7659196 18.06752,49.84144 C17.7276783,49.8792002 17.3925617,49.9122399 17.06216,49.94056 C16.7317583,49.9688801 16.3777619,50.0019198 16.00016,50.03968 Z M16.65152,32.33968 C16.443839,32.3774402 16.141762,32.4104799 15.74528,32.4388 C15.348798,32.4671201 14.9334422,32.5001598 14.4992,32.53792 C13.9139171,32.6323205 13.4041622,32.7314395 12.96992,32.83528 C12.5356778,32.9391205 12.1486417,33.0476794 11.8088,33.16096 C11.4689583,33.2742406 11.1621614,33.3922394 10.8884,33.51496 C10.6146386,33.6376806 10.3550412,33.7651193 10.1096,33.89728 C9.90191896,34.0105606 9.69424104,34.1143995 9.48656,34.2088 C9.27887896,34.3032005 9.07120104,34.4164793 8.86352,34.54864 C8.67471906,34.6619206 8.4906409,34.7846393 8.31128,34.9168 C8.1319191,35.0489607 7.95728085,35.1905592 7.78736,35.3416 C7.4663984,35.6436815 7.19264113,36.0259977 6.96608,36.48856 C6.73951887,36.9511223 6.53184094,37.380638 6.34304,37.77712 C5.96543811,38.6267242 5.83799939,39.4621559 5.96072,40.28344 C6.08344061,41.1047241 6.28639858,41.9307158 6.5696,42.76144 C6.64512038,42.9880011 6.80087882,43.2287187 7.03688,43.4836 C7.27288118,43.7384813 7.53247858,43.9791989 7.81568,44.20576 C8.09888142,44.4323211 8.39151849,44.6352791 8.6936,44.81464 C8.99568151,44.9940009 9.25055896,45.1308795 9.45824,45.22528 C9.87360208,45.3952008 10.3691971,45.5651192 10.94504,45.73504 C11.5208829,45.9049608 12.1203169,46.0512794 12.74336,46.174 C13.3664031,46.2967206 13.9941568,46.3958396 14.62664,46.47136 C15.2591232,46.5468804 15.8302375,46.5657602 16.34,46.528 C16.7931223,46.5091199 17.2084781,46.49496 17.58608,46.48552 C17.9636819,46.47608 18.3318382,46.4477602 18.69056,46.40056 C19.0492818,46.3533598 19.3985583,46.2967203 19.7384,46.23064 C20.0782417,46.1645597 20.4369581,46.0654407 20.81456,45.93328 C21.3998429,45.7067189 21.9803971,45.3999219 22.55624,45.01288 C23.1320829,44.6258381 23.6418378,44.1821625 24.08552,43.68184 C24.5292022,43.1815175 24.8737588,42.6387229 25.1192,42.05344 C25.3646412,41.4681571 25.4590403,40.8545632 25.4024,40.21264 L25.4024,39.63208 C25.4024,39.4527191 25.3835202,39.2686409 25.34576,39.07984 C25.2135993,38.0603149 24.9823217,37.2060034 24.65192,36.51688 C24.3215183,35.8277566 23.9203224,35.2472024 23.44832,34.7752 C22.9763176,34.3031976 22.4476829,33.9114416 21.8624,33.59992 C21.2771171,33.2883984 20.6729631,33.0099212 20.04992,32.76448 C19.5779176,32.5756791 19.0728827,32.47656 18.5348,32.46712 C17.9967173,32.45768 17.3689636,32.4152004 16.65152,32.33968 Z M51.76832,49.36 L47.94512,49.36 C47.6996788,49.3788801 47.4542412,49.38832 47.2088,49.38832 C46.9633588,49.38832 46.7179212,49.4071998 46.47248,49.44496 C46.1892786,49.4827202 45.9957605,49.4638404 45.89192,49.38832 C45.7880795,49.3127996 45.7267201,49.1334414 45.70784,48.85024 L45.70784,47.68912 C45.70784,47.3870385 45.8777583,47.2076803 46.2176,47.15104 C46.7462426,47.0755196 47.2654375,46.9952804 47.7752,46.91032 C48.2849625,46.8253596 48.8041574,46.7356805 49.3328,46.64128 L49.7576,46.55632 C49.965281,46.4996797 50.0879998,46.4477602 50.12576,46.40056 C50.1635202,46.3533598 50.1918399,46.1976013 50.21072,45.93328 C50.2673603,43.8564696 50.29568,41.8316099 50.29568,39.85864 C50.29568,37.8856701 50.2768002,35.89857 50.23904,33.89728 L50.23904,33.72736 C50.2012798,33.3686382 50.17768,33.0948809 50.16824,32.90608 C50.1588,32.7172791 50.1116004,32.5851204 50.02664,32.5096 C49.9416796,32.4340796 49.795361,32.39632 49.58768,32.39632 L48.65312,32.39632 C48.445439,32.3774399 48.2472009,32.3821599 48.0584,32.41048 C47.8695991,32.4388001 47.671361,32.45296 47.46368,32.45296 C46.6140758,32.4907202 45.7644842,32.51432 44.91488,32.52376 C44.0652758,32.5332 43.2156842,32.5567998 42.36608,32.59456 C42.1017587,32.59456 41.9318404,32.6275997 41.85632,32.69368 C41.7807996,32.7597603 41.7052804,32.9249587 41.62976,33.18928 L41.20496,34.97344 C41.1483197,35.2755215 41.0775204,35.4643196 40.99256,35.53984 C40.9075996,35.6153604 40.7046416,35.6625599 40.38368,35.68144 L39.93056,35.68144 C39.7795192,35.68144 39.6284808,35.6720001 39.47744,35.65312 C39.1187182,35.6342399 38.9299201,35.4360019 38.91104,35.0584 L38.91104,34.97344 C38.8732798,34.2748765 38.8402401,33.5810434 38.81192,32.89192 C38.7835999,32.2027966 38.7505602,31.5089635 38.7128,30.8104 L38.7128,30.18736 C38.7128,30.0363192 38.7458397,29.9277603 38.81192,29.86168 C38.8780003,29.7955997 38.9865592,29.7531201 39.1376,29.73424 C39.2886408,29.7153599 39.4963187,29.70592 39.76064,29.70592 C40.2704025,29.6870399 40.7848774,29.6587202 41.30408,29.62096 C41.8232826,29.5831998 42.3283175,29.5737599 42.8192,29.59264 C45.2547322,29.6492803 47.6194285,29.6681601 49.91336,29.64928 C52.2072915,29.6303999 54.4964686,29.6398398 56.78096,29.6776 C57.6494443,29.6776 58.5131957,29.67288 59.37224,29.66344 C60.2312843,29.654 61.0950357,29.6587199 61.96352,29.6776 C62.2844816,29.6964801 62.6007184,29.7247998 62.91224,29.76256 C63.2237616,29.8003202 63.5399984,29.8380798 63.86096,29.87584 C63.9742406,29.8947201 64.0686396,29.9324797 64.14416,29.98912 C64.2196804,30.0457603 64.2385602,30.1401593 64.2008,30.27232 C64.0686393,30.7632025 64.0355997,31.2446376 64.10168,31.71664 C64.1677603,32.1886424 64.1913601,32.6700775 64.17248,33.16096 C64.17248,33.4064012 64.1772,33.6471188 64.18664,33.88312 C64.19608,34.1191212 64.2008,34.3598388 64.2008,34.60528 C64.1819199,34.7940809 64.1394403,34.9167997 64.07336,34.97344 C64.0072797,35.0300803 63.870401,35.0489601 63.66272,35.03008 C63.3417584,35.03008 63.0113617,35.0583997 62.67152,35.11504 C62.3883186,35.1716803 62.1995205,35.0584014 62.10512,34.7752 C62.0107195,34.567519 61.9352003,34.3692809 61.87856,34.18048 C61.8219197,33.9916791 61.7558404,33.793441 61.68032,33.58576 C61.6614399,33.4913595 61.64728,33.4064004 61.63784,33.33088 C61.6284,33.2553596 61.6048002,33.1798404 61.56704,33.10432 C61.4537594,32.8022385 61.3546404,32.6276002 61.26968,32.5804 C61.1847196,32.5331998 60.9817616,32.5096 60.6608,32.5096 C59.867836,32.4907199 59.0937638,32.48128 58.33856,32.48128 C57.5833562,32.48128 56.8187239,32.4718401 56.04464,32.45296 C55.6670381,32.4340799 55.2941618,32.4152001 54.926,32.39632 C54.5578382,32.3774399 54.1849619,32.368 53.80736,32.368 C53.5807989,32.368 53.4344803,32.3963197 53.3684,32.45296 C53.3023197,32.5096003 53.26928,32.641759 53.26928,32.84944 C53.2503999,34.0955262 53.23624,35.2707945 53.2268,36.37528 C53.21736,37.4797655 53.21264,38.5559148 53.21264,39.60376 L53.21264,42.71896 C53.21264,43.7479251 53.2032001,44.8004746 53.18432,45.87664 C53.1465598,46.1976016 53.2787185,46.3675199 53.5808,46.3864 C54.2227232,46.4808005 54.8221572,46.6223991 55.37912,46.8112 C55.9360828,47.0000009 56.5449567,47.1038399 57.20576,47.12272 C57.4889614,47.12272 57.63056,47.2548787 57.63056,47.5192 C57.6494401,47.6136005 57.65888,47.7551991 57.65888,47.944 C57.65888,48.2460815 57.65416,48.4820792 57.64472,48.652 C57.63528,48.8219208 57.5880804,48.9493596 57.50312,49.03432 C57.4181596,49.1192804 57.2907208,49.1759199 57.1208,49.20424 C56.9508792,49.2325601 56.7148815,49.24672 56.4128,49.24672 C56.0351981,49.24672 55.6576019,49.25144 55.28,49.26088 C54.9023981,49.27032 54.5248019,49.27504 54.1472,49.27504 C53.7695981,49.2939201 53.3872819,49.30808 53.00024,49.31752 C52.6131981,49.32696 52.2025622,49.3411199 51.76832,49.36 Z M80.42816,46.18816 L85.95056,46.1032 L86.20544,46.1032 C86.601922,46.0843199 86.8426396,46.0371204 86.9276,45.9616 C87.0125604,45.8860796 87.1022395,45.6595219 87.19664,45.28192 L87.47984,44.09248 C87.5742405,43.695998 87.6686395,43.3089619 87.76304,42.93136 C87.8385604,42.6670387 87.9235195,42.5018403 88.01792,42.43576 C88.1123205,42.3696797 88.2916787,42.3460799 88.556,42.36496 C88.8392014,42.3838401 89.0563192,42.4027199 89.20736,42.4216 C89.3584008,42.4404801 89.4716796,42.4876796 89.5472,42.5632 C89.6227204,42.6387204 89.6746399,42.7519992 89.70296,42.90304 C89.7312801,43.0540808 89.7548799,43.2711986 89.77376,43.5544 C89.8115202,44.158563 89.83512,44.8146365 89.84456,45.52264 C89.854,46.2306435 89.8775998,46.886717 89.91536,47.49088 L89.91536,48.05728 C89.91536,48.2460809 89.9342398,48.439599 89.972,48.63784 C90.0097602,48.836081 89.9908804,48.9918394 89.91536,49.10512 C89.8587197,49.1995205 89.7926404,49.24672 89.71712,49.24672 C89.6415996,49.24672 89.5566405,49.2372801 89.46224,49.2184 C89.3678395,49.1995199 89.2734405,49.1759201 89.17904,49.1476 C89.0846395,49.1192799 88.9996804,49.10512 88.92416,49.10512 C87.7913543,49.1806404 86.6632856,49.2042401 85.53992,49.17592 C84.4165544,49.1475999 83.2884857,49.1617597 82.15568,49.2184 C81.0795146,49.2750403 80.0175252,49.30336 78.96968,49.30336 C77.9218348,49.30336 76.8692853,49.3127999 75.812,49.33168 C75.3399976,49.3505601 74.8774423,49.3458401 74.42432,49.31752 C73.9711977,49.2891999 73.5086424,49.2656001 73.03664,49.24672 C72.2247959,49.2089598 71.417684,49.19008 70.61528,49.19008 C69.812876,49.19008 69.015204,49.2750392 68.22224,49.44496 C67.8068779,49.5204804 67.5142408,49.4827208 67.34432,49.33168 C67.1743992,49.1806392 67.0800001,48.8974421 67.06112,48.48208 L67.06112,48.05728 C67.06112,47.849599 67.06584,47.6844006 67.07528,47.56168 C67.08472,47.4389594 67.1177597,47.3398404 67.1744,47.26432 C67.2310403,47.1887996 67.3207194,47.1227203 67.44344,47.06608 C67.5661606,47.0094397 67.731359,46.9528003 67.93904,46.89616 C68.335522,46.7828794 68.736718,46.6696006 69.14264,46.55632 C69.548562,46.4430394 69.949758,46.3297606 70.34624,46.21648 C70.6294414,46.1220795 70.7993597,46.0465603 70.856,45.98992 C70.9126403,45.9332797 70.94096,45.7633614 70.94096,45.48016 C70.94096,44.9326373 70.93624,44.3898427 70.9268,43.85176 C70.91736,43.3136773 70.91264,42.7708827 70.91264,42.22336 C70.8937599,41.5059164 70.8796,40.7790437 70.87016,40.04272 C70.86072,39.3063963 70.8371202,38.5795236 70.79936,37.86208 C70.7615998,37.2012767 70.7285601,36.5357634 70.70024,35.86552 C70.6719199,35.1952766 70.6388802,34.5297633 70.60112,33.86896 C70.60112,33.8123197 70.5964,33.7556803 70.58696,33.69904 C70.57752,33.6423997 70.5822399,33.5857603 70.60112,33.52912 C70.7144006,32.8494366 70.4406433,32.4152009 69.77984,32.2264 C69.6476793,32.1886398 69.5249606,32.1320004 69.41168,32.05648 C69.2983994,31.9809596 69.1756807,31.9148803 69.04352,31.85824 C68.8169589,31.7638395 68.5951211,31.6552806 68.378,31.53256 C68.1608789,31.4098394 67.9107214,31.3673598 67.62752,31.40512 C67.4764792,31.40512 67.3632004,31.3484806 67.28768,31.2352 C66.9478383,30.7443175 66.8345594,30.2156828 66.94784,29.64928 C66.9667201,29.6115198 67.0091997,29.5643203 67.07528,29.50768 C67.1413603,29.4510397 67.1932798,29.4321599 67.23104,29.45104 C68.835848,29.6020808 70.440632,29.6492803 72.04544,29.59264 C73.650248,29.5359997 75.255032,29.5171199 76.85984,29.536 C78.6156888,29.5737602 80.3715112,29.5737602 82.12736,29.536 C82.8259235,29.536 83.5197566,29.5218401 84.20888,29.49352 C84.8980034,29.4651999 85.5918365,29.4416001 86.2904,29.42272 C86.7057621,29.42272 87.116398,29.4321599 87.52232,29.45104 C87.928242,29.4699201 88.329438,29.4982398 88.72592,29.536 C89.0657617,29.5548801 89.2923194,29.6303993 89.4056,29.76256 C89.5188806,29.8947207 89.57552,30.1401582 89.57552,30.49888 C89.5944001,31.2729639 89.60856,32.0375962 89.618,32.7928 C89.62744,33.5480038 89.63216,34.322076 89.63216,35.11504 L89.63216,35.42656 C89.5943998,35.5587207 89.5424803,35.6625596 89.4764,35.73808 C89.4103197,35.8136004 89.3112007,35.8324802 89.17904,35.79472 C88.7447978,35.6625593 88.3011223,35.6531194 87.848,35.7664 C87.8102398,35.7852801 87.7488804,35.7616803 87.66392,35.6956 C87.5789596,35.6295197 87.5270401,35.5681603 87.50816,35.51152 C87.3948794,35.0395176 87.234401,34.5911221 87.02672,34.16632 C86.819039,33.7415179 86.6302408,33.3120022 86.46032,32.87776 C86.3470394,32.5756785 86.1393615,32.4340799 85.83728,32.45296 C85.4974383,32.4718401 85.1859214,32.48128 84.90272,32.48128 C84.6195186,32.48128 84.3363214,32.4718401 84.05312,32.45296 C83.7699186,32.4340799 83.4678416,32.42464 83.14688,32.42464 C82.8259184,32.42464 82.4483222,32.4340799 82.01408,32.45296 C81.5987179,32.4718401 81.1833621,32.4718401 80.768,32.45296 C80.3526379,32.4340799 79.9372821,32.42464 79.52192,32.42464 C78.6911958,32.4435201 77.8652041,32.45768 77.04392,32.46712 C76.2226359,32.47656 75.3966442,32.4907199 74.56592,32.5096 C74.5092797,32.5284801 74.4337605,32.53792 74.33936,32.53792 C73.9995183,32.5756802 73.7965603,32.6228797 73.73048,32.67952 C73.6643997,32.7361603 73.6407999,32.9343983 73.65968,33.27424 C73.6785601,33.9350433 73.6974399,34.5911167 73.71632,35.24248 C73.7352001,35.8938433 73.7635198,36.5499167 73.80128,37.21072 C73.80128,37.418401 73.8343197,37.5505597 73.9004,37.6072 C73.9664803,37.6638403 74.103359,37.69216 74.31104,37.69216 C74.7452822,37.69216 75.1747979,37.68744 75.5996,37.678 C76.0244021,37.66856 76.4539178,37.6544001 76.88816,37.63552 C77.4356827,37.63552 77.9690374,37.64024 78.48824,37.64968 C79.0074426,37.65912 79.5407973,37.6544001 80.08832,37.63552 C80.6358427,37.63552 81.1786373,37.6260801 81.71672,37.6072 C82.2548027,37.5883199 82.7975973,37.5694401 83.34512,37.55056 C83.7227219,37.55056 83.9634395,37.6024795 84.06728,37.70632 C84.1711205,37.8101605 84.2419198,38.0414382 84.27968,38.40016 C84.2985601,38.5889609 84.3174399,38.7683192 84.33632,38.93824 C84.3552001,39.1081608 84.3835198,39.2875191 84.42128,39.47632 C84.4779203,39.8161617 84.4496006,40.0521593 84.33632,40.18432 C84.2230394,40.3164807 83.9870418,40.3919999 83.62832,40.41088 C82.5521546,40.4297601 81.4901652,40.43448 80.44232,40.42504 C79.3944748,40.4156 78.3324854,40.4203199 77.25632,40.4392 C76.8220778,40.4580801 76.3878422,40.4628 75.9536,40.45336 C75.5193578,40.44392 75.0851222,40.4486399 74.65088,40.46752 C74.3110383,40.4864001 74.1080803,40.5288797 74.042,40.59496 C73.9759197,40.6610403 73.94288,40.8545584 73.94288,41.17552 C73.94288,41.8740835 73.9476,42.5726365 73.95704,43.2712 C73.96648,43.9697635 73.9806399,44.6683165 73.99952,45.36688 C73.99952,45.574561 74.0089599,45.7303195 74.02784,45.83416 C74.0467201,45.9380005 74.0844797,46.0135198 74.14112,46.06072 C74.1977603,46.1079202 74.2874394,46.13624 74.41016,46.14568 C74.5328806,46.15512 74.698079,46.15984 74.90576,46.15984 C75.8308846,46.1409599 76.7512754,46.13624 77.66696,46.14568 C78.5826446,46.15512 79.5030354,46.15984 80.42816,46.15984 L80.42816,46.18816 Z M97.10864,35.908 C97.10864,35.4737578 97.0944801,35.0442421 97.06616,34.61944 C97.0378399,34.1946379 97.0048002,33.7651222 96.96704,33.33088 C96.9481599,33.0287985 96.9151202,32.8400004 96.86792,32.76448 C96.8207198,32.6889596 96.6083219,32.6323202 96.23072,32.59456 C95.834238,32.5567998 95.437762,32.5096003 95.04128,32.45296 L93.85184,32.28304 C93.6063988,32.28304 93.4742401,32.1697611 93.45536,31.9432 C93.4364799,31.7166389 93.4176001,31.4948011 93.39872,31.27768 C93.3798399,31.0605589 93.3704,30.8387211 93.3704,30.61216 C93.3704,30.3855989 93.4175995,30.2251205 93.512,30.13072 C93.6064005,30.0363195 93.757439,29.9702402 93.96512,29.93248 C94.0217603,29.93248 94.0783997,29.92776 94.13504,29.91832 C94.1916803,29.90888 94.2483197,29.90416 94.30496,29.90416 C95.6454467,29.7153591 96.9859133,29.6539997 98.3264,29.72008 C99.6668867,29.7861603 101.007353,29.8192 102.34784,29.8192 C102.819842,29.8569602 103.282398,29.8664001 103.73552,29.84752 C104.188642,29.8286399 104.651198,29.8192 105.1232,29.8192 C106.161605,29.8380801 107.195275,29.8428 108.22424,29.83336 C109.253205,29.82392 110.296315,29.8758394 111.3536,29.98912 C112.712967,30.2156811 113.897675,30.6215971 114.90776,31.20688 C115.917845,31.7921629 116.677757,32.6606342 117.18752,33.81232 C117.414081,34.3976029 117.5368,35.0253566 117.55568,35.6956 C117.57456,36.3658434 117.527361,36.9935971 117.41408,37.57888 C117.263039,38.2396833 117.022322,38.8391173 116.69192,39.3772 C116.361518,39.9152827 115.922563,40.4014378 115.37504,40.83568 C114.412155,41.5720037 113.392645,42.0487189 112.31648,42.26584 C111.240315,42.4829611 110.126406,42.5726402 108.97472,42.53488 C108.483838,42.53488 108.007122,42.5396 107.54456,42.54904 C107.081998,42.55848 106.605282,42.5537601 106.1144,42.53488 C105.680158,42.53488 105.236482,42.53016 104.78336,42.52072 C104.330238,42.51128 103.886562,42.4971201 103.45232,42.47824 C103.055838,42.4593599 102.664082,42.44992 102.27704,42.44992 C101.889998,42.44992 101.507682,42.4404801 101.13008,42.4216 C101.03568,42.4216 100.95072,42.4310399 100.8752,42.44992 C100.79968,42.4688001 100.71472,42.4876799 100.62032,42.50656 C100.337119,42.5632003 100.20496,42.7142388 100.22384,42.95968 C100.24272,43.4505625 100.25688,43.9272777 100.26632,44.38984 C100.27576,44.8524023 100.29936,45.3196776 100.33712,45.79168 C100.356,45.999361 100.431519,46.1645594 100.56368,46.28728 C100.695841,46.4100006 100.856319,46.4902398 101.04512,46.528 C101.460482,46.5846403 101.852238,46.7026391 102.2204,46.882 C102.588562,47.0613609 102.980318,47.1982395 103.39568,47.29264 C103.697762,47.3492803 103.8488,47.5569582 103.8488,47.91568 C103.8488,48.0667208 103.84408,48.2177592 103.83464,48.3688 C103.8252,48.5198408 103.82992,48.6708792 103.8488,48.82192 C103.8488,48.9729608 103.81104,49.0767997 103.73552,49.13344 C103.66,49.1900803 103.556161,49.2278399 103.424,49.24672 L102.39032,49.24672 C102.041038,49.24672 101.696482,49.2561599 101.35664,49.27504 C100.903518,49.27504 100.455122,49.2844799 100.01144,49.30336 C99.5677578,49.3222401 99.1193623,49.3411199 98.66624,49.36 C98.1753575,49.3788801 97.6892024,49.38832 97.20776,49.38832 L95.74928,49.38832 C95.4849587,49.38832 95.2206413,49.39304 94.95632,49.40248 C94.6919987,49.41192 94.4276813,49.4072001 94.16336,49.38832 C93.9367989,49.3694399 93.7857604,49.3269603 93.71024,49.26088 C93.6347196,49.1947997 93.5780802,49.057921 93.54032,48.85024 C93.5214399,48.7558395 93.50728,48.6520006 93.49784,48.53872 C93.4884,48.4254394 93.48368,48.3121606 93.48368,48.19888 C93.4459198,47.6891175 93.6819175,47.3587208 94.19168,47.20768 C94.5692819,47.0755193 94.9421582,46.9528006 95.31032,46.83952 C95.6784818,46.7262394 96.0513581,46.6035207 96.42896,46.47136 C96.5611207,46.4335998 96.6696796,46.4005601 96.75464,46.37224 C96.8396004,46.3439199 96.9009598,46.3061602 96.93872,46.25896 C96.9764802,46.2117598 97.00008,46.1456804 97.00952,46.06072 C97.01896,45.9757596 97.02368,45.8577608 97.02368,45.70672 C96.9859198,43.7998305 97.0000797,42.0676078 97.06616,40.51 C97.1322403,38.9523922 97.1464002,37.4184076 97.10864,35.908 Z M109.25792,39.75952 C109.654402,39.7217598 110.046158,39.6792802 110.4332,39.63208 C110.820242,39.5848798 111.202558,39.5140805 111.58016,39.41968 C112.184323,39.2686392 112.694078,39.0326416 113.10944,38.71168 C113.524802,38.3907184 113.892958,37.9376029 114.21392,37.35232 C114.402721,37.0313584 114.53488,36.7151216 114.6104,36.4036 C114.68592,36.0920784 114.619841,35.7758416 114.41216,35.45488 C114.31776,35.3227193 114.23752,35.1905607 114.17144,35.0584 C114.10536,34.9262393 114.02512,34.7940807 113.93072,34.66192 C113.83632,34.5108792 113.737201,34.3645607 113.63336,34.22296 C113.529519,34.0813593 113.402081,33.9539206 113.25104,33.84064 C112.873438,33.5574386 112.472242,33.3356008 112.04744,33.17512 C111.622638,33.0146392 111.183682,32.9060803 110.73056,32.84944 C110.164157,32.7927997 109.593043,32.75976 109.0172,32.75032 C108.441357,32.74088 107.870243,32.7172802 107.30384,32.67952 C107.039519,32.6606399 106.775201,32.64648 106.51088,32.63704 C106.246559,32.6276 105.982241,32.6323199 105.71792,32.6512 C105.227038,32.6512 104.750322,32.6606399 104.28776,32.67952 C103.825198,32.6984001 103.357922,32.7267198 102.88592,32.76448 C102.602719,32.8022402 102.324241,32.8447198 102.05048,32.89192 C101.776719,32.9391202 101.498241,32.9344003 101.21504,32.87776 C101.101759,32.8399998 100.983761,32.8352799 100.86104,32.8636 C100.738319,32.8919201 100.610881,32.9249598 100.47872,32.96272 C100.42208,32.9816001 100.36544,33.0193597 100.3088,33.076 C100.25216,33.1326403 100.22384,33.1798398 100.22384,33.2176 C100.1672,33.7651227 100.13888,34.2937575 100.13888,34.80352 C100.13888,35.4643233 100.1436,36.1298366 100.15304,36.80008 C100.16248,37.4703234 100.17664,38.1452766 100.19552,38.82496 C100.19552,39.2025619 100.22856,39.4291196 100.29464,39.50464 C100.36072,39.5801604 100.582558,39.6273599 100.96016,39.64624 L101.63984,39.64624 C102.678245,39.6651201 103.575036,39.67456 104.33024,39.67456 C105.085444,39.67456 105.755677,39.67928 106.34096,39.68872 C106.926243,39.69816 107.450158,39.7076 107.91272,39.71704 C108.375282,39.72648 108.823678,39.7406399 109.25792,39.75952 Z M133.75472,46.18816 L139.27712,46.1032 L139.532,46.1032 C139.928482,46.0843199 140.1692,46.0371204 140.25416,45.9616 C140.33912,45.8860796 140.4288,45.6595219 140.5232,45.28192 L140.8064,44.09248 C140.9008,43.695998 140.9952,43.3089619 141.0896,42.93136 C141.16512,42.6670387 141.25008,42.5018403 141.34448,42.43576 C141.43888,42.3696797 141.618239,42.3460799 141.88256,42.36496 C142.165761,42.3838401 142.382879,42.4027199 142.53392,42.4216 C142.684961,42.4404801 142.79824,42.4876796 142.87376,42.5632 C142.94928,42.6387204 143.0012,42.7519992 143.02952,42.90304 C143.05784,43.0540808 143.08144,43.2711986 143.10032,43.5544 C143.13808,44.158563 143.16168,44.8146365 143.17112,45.52264 C143.18056,46.2306435 143.20416,46.886717 143.24192,47.49088 L143.24192,48.05728 C143.24192,48.2460809 143.2608,48.439599 143.29856,48.63784 C143.33632,48.836081 143.31744,48.9918394 143.24192,49.10512 C143.18528,49.1995205 143.1192,49.24672 143.04368,49.24672 C142.96816,49.24672 142.8832,49.2372801 142.7888,49.2184 C142.6944,49.1995199 142.6,49.1759201 142.5056,49.1476 C142.4112,49.1192799 142.32624,49.10512 142.25072,49.10512 C141.117914,49.1806404 139.989846,49.2042401 138.86648,49.17592 C137.743114,49.1475999 136.615046,49.1617597 135.48224,49.2184 C134.406075,49.2750403 133.344085,49.30336 132.29624,49.30336 C131.248395,49.30336 130.195845,49.3127999 129.13856,49.33168 C128.666558,49.3505601 128.204002,49.3458401 127.75088,49.31752 C127.297758,49.2891999 126.835202,49.2656001 126.3632,49.24672 C125.551356,49.2089598 124.744244,49.19008 123.94184,49.19008 C123.139436,49.19008 122.341764,49.2750392 121.5488,49.44496 C121.133438,49.5204804 120.840801,49.4827208 120.67088,49.33168 C120.500959,49.1806392 120.40656,48.8974421 120.38768,48.48208 L120.38768,48.05728 C120.38768,47.849599 120.3924,47.6844006 120.40184,47.56168 C120.41128,47.4389594 120.44432,47.3398404 120.50096,47.26432 C120.5576,47.1887996 120.647279,47.1227203 120.77,47.06608 C120.892721,47.0094397 121.057919,46.9528003 121.2656,46.89616 C121.662082,46.7828794 122.063278,46.6696006 122.4692,46.55632 C122.875122,46.4430394 123.276318,46.3297606 123.6728,46.21648 C123.956001,46.1220795 124.12592,46.0465603 124.18256,45.98992 C124.2392,45.9332797 124.26752,45.7633614 124.26752,45.48016 C124.26752,44.9326373 124.2628,44.3898427 124.25336,43.85176 C124.24392,43.3136773 124.2392,42.7708827 124.2392,42.22336 C124.22032,41.5059164 124.20616,40.7790437 124.19672,40.04272 C124.18728,39.3063963 124.16368,38.5795236 124.12592,37.86208 C124.08816,37.2012767 124.05512,36.5357634 124.0268,35.86552 C123.99848,35.1952766 123.96544,34.5297633 123.92768,33.86896 C123.92768,33.8123197 123.92296,33.7556803 123.91352,33.69904 C123.90408,33.6423997 123.9088,33.5857603 123.92768,33.52912 C124.040961,32.8494366 123.767203,32.4152009 123.1064,32.2264 C122.974239,32.1886398 122.851521,32.1320004 122.73824,32.05648 C122.624959,31.9809596 122.502241,31.9148803 122.37008,31.85824 C122.143519,31.7638395 121.921681,31.6552806 121.70456,31.53256 C121.487439,31.4098394 121.237281,31.3673598 120.95408,31.40512 C120.803039,31.40512 120.68976,31.3484806 120.61424,31.2352 C120.274398,30.7443175 120.161119,30.2156828 120.2744,29.64928 C120.29328,29.6115198 120.33576,29.5643203 120.40184,29.50768 C120.46792,29.4510397 120.51984,29.4321599 120.5576,29.45104 C122.162408,29.6020808 123.767192,29.6492803 125.372,29.59264 C126.976808,29.5359997 128.581592,29.5171199 130.1864,29.536 C131.942249,29.5737602 133.698071,29.5737602 135.45392,29.536 C136.152483,29.536 136.846317,29.5218401 137.53544,29.49352 C138.224563,29.4651999 138.918397,29.4416001 139.61696,29.42272 C140.032322,29.42272 140.442958,29.4321599 140.84888,29.45104 C141.254802,29.4699201 141.655998,29.4982398 142.05248,29.536 C142.392322,29.5548801 142.618879,29.6303993 142.73216,29.76256 C142.845441,29.8947207 142.90208,30.1401582 142.90208,30.49888 C142.92096,31.2729639 142.93512,32.0375962 142.94456,32.7928 C142.954,33.5480038 142.95872,34.322076 142.95872,35.11504 L142.95872,35.42656 C142.92096,35.5587207 142.86904,35.6625596 142.80296,35.73808 C142.73688,35.8136004 142.637761,35.8324802 142.5056,35.79472 C142.071358,35.6625593 141.627682,35.6531194 141.17456,35.7664 C141.1368,35.7852801 141.07544,35.7616803 140.99048,35.6956 C140.90552,35.6295197 140.8536,35.5681603 140.83472,35.51152 C140.721439,35.0395176 140.560961,34.5911221 140.35328,34.16632 C140.145599,33.7415179 139.956801,33.3120022 139.78688,32.87776 C139.673599,32.5756785 139.465922,32.4340799 139.16384,32.45296 C138.823998,32.4718401 138.512481,32.48128 138.22928,32.48128 C137.946079,32.48128 137.662881,32.4718401 137.37968,32.45296 C137.096479,32.4340799 136.794402,32.42464 136.47344,32.42464 C136.152478,32.42464 135.774882,32.4340799 135.34064,32.45296 C134.925278,32.4718401 134.509922,32.4718401 134.09456,32.45296 C133.679198,32.4340799 133.263842,32.42464 132.84848,32.42464 C132.017756,32.4435201 131.191764,32.45768 130.37048,32.46712 C129.549196,32.47656 128.723204,32.4907199 127.89248,32.5096 C127.83584,32.5284801 127.76032,32.53792 127.66592,32.53792 C127.326078,32.5756802 127.12312,32.6228797 127.05704,32.67952 C126.99096,32.7361603 126.96736,32.9343983 126.98624,33.27424 C127.00512,33.9350433 127.024,34.5911167 127.04288,35.24248 C127.06176,35.8938433 127.09008,36.5499167 127.12784,37.21072 C127.12784,37.418401 127.16088,37.5505597 127.22696,37.6072 C127.29304,37.6638403 127.429919,37.69216 127.6376,37.69216 C128.071842,37.69216 128.501358,37.68744 128.92616,37.678 C129.350962,37.66856 129.780478,37.6544001 130.21472,37.63552 C130.762243,37.63552 131.295597,37.64024 131.8148,37.64968 C132.334003,37.65912 132.867357,37.6544001 133.41488,37.63552 C133.962403,37.63552 134.505197,37.6260801 135.04328,37.6072 C135.581363,37.5883199 136.124157,37.5694401 136.67168,37.55056 C137.049282,37.55056 137.289999,37.6024795 137.39384,37.70632 C137.497681,37.8101605 137.56848,38.0414382 137.60624,38.40016 C137.62512,38.5889609 137.644,38.7683192 137.66288,38.93824 C137.68176,39.1081608 137.71008,39.2875191 137.74784,39.47632 C137.80448,39.8161617 137.776161,40.0521593 137.66288,40.18432 C137.549599,40.3164807 137.313602,40.3919999 136.95488,40.41088 C135.878715,40.4297601 134.816725,40.43448 133.76888,40.42504 C132.721035,40.4156 131.659045,40.4203199 130.58288,40.4392 C130.148638,40.4580801 129.714402,40.4628 129.28016,40.45336 C128.845918,40.44392 128.411682,40.4486399 127.97744,40.46752 C127.637598,40.4864001 127.43464,40.5288797 127.36856,40.59496 C127.30248,40.6610403 127.26944,40.8545584 127.26944,41.17552 C127.26944,41.8740835 127.27416,42.5726365 127.2836,43.2712 C127.29304,43.9697635 127.3072,44.6683165 127.32608,45.36688 C127.32608,45.574561 127.33552,45.7303195 127.3544,45.83416 C127.37328,45.9380005 127.41104,46.0135198 127.46768,46.06072 C127.52432,46.1079202 127.613999,46.13624 127.73672,46.14568 C127.859441,46.15512 128.024639,46.15984 128.23232,46.15984 C129.157445,46.1409599 130.077835,46.13624 130.99352,46.14568 C131.909205,46.15512 132.829595,46.15984 133.75472,46.15984 L133.75472,46.18816 Z M154.1168,43.35616 C154.13568,43.8281624 154.15456,44.2199184 154.17344,44.53144 C154.19232,44.8429616 154.22064,45.2347176 154.2584,45.70672 C154.2584,45.914401 154.362239,46.0465597 154.56992,46.1032 C155.060802,46.2542408 155.613037,46.3958393 156.22664,46.528 C156.840243,46.6601607 157.392478,46.7923193 157.88336,46.92448 C158.034401,46.9622402 158.14296,47.0141597 158.20904,47.08024 C158.27512,47.1463203 158.29872,47.2643192 158.27984,47.43424 C158.27984,47.641921 158.28928,47.8590389 158.30816,48.0856 L158.3648,48.76528 C158.38368,48.9918411 158.36008,49.1475996 158.294,49.23256 C158.22792,49.3175204 158.062721,49.3505601 157.7984,49.33168 C156.212472,49.2939198 154.683207,49.2939198 153.21056,49.33168 C151.737913,49.3694402 150.236968,49.4260796 148.70768,49.5016 C148.518879,49.5204801 148.330081,49.5252 148.14128,49.51576 C147.952479,49.50632 147.754241,49.5110399 147.54656,49.52992 C147.206718,49.5676802 146.9896,49.4260816 146.8952,49.10512 C146.85744,48.9163191 146.81496,48.7275209 146.76776,48.53872 C146.72056,48.3499191 146.7064,48.1611209 146.72528,47.97232 C146.76304,47.6891186 146.833839,47.5097604 146.93768,47.43424 C147.041521,47.3587196 147.244478,47.3115201 147.54656,47.29264 C147.6032,47.29264 147.65984,47.29736 147.71648,47.3068 C147.77312,47.31624 147.82976,47.3115201 147.8864,47.29264 C148.320642,47.1982395 148.764318,47.0991205 149.21744,46.99528 C149.670562,46.8914395 150.114238,46.7828806 150.54848,46.6696 C150.793921,46.6129597 150.94024,46.5516003 150.98744,46.48552 C151.03464,46.4194397 151.06768,46.2731211 151.08656,46.04656 L151.08656,42.33664 C151.08656,41.4115154 151.07712,40.4769647 151.05824,39.53296 C151.05824,39.2119984 151.0488,38.8910416 151.02992,38.57008 C151.01104,38.2491184 151.0016,37.9281616 151.0016,37.6072 C151.0016,36.8331161 151.01104,36.148723 151.02992,35.554 C151.0488,34.959277 151.05824,34.3881627 151.05824,33.84064 C151.03936,33.5196784 150.99216,33.3025606 150.91664,33.18928 C150.84112,33.0759994 150.652322,32.9721605 150.35024,32.87776 C149.972638,32.7267192 149.590322,32.5851207 149.20328,32.45296 C148.816238,32.3207993 148.433922,32.1886407 148.05632,32.05648 C147.773119,31.9809596 147.6032,31.7921615 147.54656,31.49008 C147.5088,31.3390392 147.47104,31.1927207 147.43328,31.05112 C147.39552,30.9095193 147.35776,30.7632008 147.32,30.61216 C147.168959,30.1212775 147.348317,29.8569602 147.85808,29.8192 C149.198567,29.7814398 150.529593,29.7389602 151.8512,29.69176 C153.172807,29.6445598 154.513273,29.6020802 155.87264,29.56432 C156.269122,29.5265598 156.708078,29.5265598 157.18952,29.56432 C157.670962,29.6020802 158.072158,29.6870393 158.39312,29.8192 C158.44976,29.8192 158.45448,29.8380798 158.40728,29.87584 C158.36008,29.9136002 158.33648,29.9513598 158.33648,29.98912 C158.563041,30.2534413 158.7188,30.5224786 158.80376,30.79624 C158.88872,31.0700014 159.006719,31.3579185 159.15776,31.66 L161.79152,38.28688 C162.301283,39.5518463 162.811037,40.8120737 163.3208,42.0676 C163.830563,43.3231263 164.349757,44.5927936 164.8784,45.87664 C164.91616,45.9710405 164.95864,46.0843193 165.00584,46.21648 C165.05304,46.3486407 165.152159,46.41472 165.3032,46.41472 C165.492001,46.41472 165.60056,46.3439207 165.62888,46.20232 C165.6572,46.0607193 165.69024,45.9238407 165.728,45.79168 C166.200002,44.186872 166.690877,42.6056878 167.20064,41.04808 C167.710403,39.4904722 168.257917,37.9281678 168.8432,36.36112 C169.164162,35.5303958 169.466239,34.7044041 169.74944,33.88312 C170.032641,33.0618359 170.315839,32.2358442 170.59904,31.40512 C170.69344,31.1407987 170.75952,30.909521 170.79728,30.71128 C170.83504,30.513039 170.89168,30.2817613 170.9672,30.01744 C171.02384,29.7908789 171.09464,29.6445603 171.1796,29.57848 C171.26456,29.5123997 171.420319,29.4887999 171.64688,29.50768 L172.70888,29.50768 C173.058162,29.50768 173.402718,29.5171199 173.74256,29.536 C173.931361,29.5548801 174.110719,29.5501601 174.28064,29.52184 C174.450561,29.4935199 174.629919,29.4887999 174.81872,29.50768 L177.6932,29.50768 C178.401204,29.50768 178.953438,29.50296 179.34992,29.49352 C179.746402,29.48408 180.029599,29.47936 180.19952,29.47936 L180.65264,29.47936 C180.822561,29.4604799 180.992479,29.44632 181.1624,29.43688 C181.332321,29.42744 181.502239,29.42272 181.67216,29.42272 C182.163042,29.42272 182.493439,29.6587176 182.66336,30.13072 C182.75776,30.3761612 182.7908,30.6121589 182.76248,30.83872 C182.73416,31.0652811 182.663361,31.282399 182.55008,31.49008 C182.49344,31.5656004 182.370721,31.6222398 182.18192,31.66 C181.709918,31.8110408 181.204883,31.9573593 180.6668,32.09896 C180.128717,32.2405607 179.614242,32.3868792 179.12336,32.53792 C178.896799,32.5945603 178.77408,32.726719 178.7552,32.9344 C178.69856,33.8784047 178.65608,34.6996765 178.62776,35.39824 C178.59944,36.0968035 178.58056,36.743437 178.57112,37.33816 C178.56168,37.932883 178.55696,38.5087172 178.55696,39.06568 L178.55696,43.342 C178.55696,44.144404 178.5664,44.9515159 178.58528,45.76336 C178.58528,46.0843216 178.6136,46.2778397 178.67024,46.34392 C178.72688,46.4100003 178.915678,46.4713597 179.23664,46.528 C179.614242,46.5846403 179.996558,46.6365598 180.3836,46.68376 C180.770642,46.7309602 181.152958,46.7828797 181.53056,46.83952 C181.62496,46.83952 181.70992,46.84424 181.78544,46.85368 C181.86096,46.86312 181.94592,46.8772799 182.04032,46.89616 C182.266881,46.9528003 182.39904,47.1132787 182.4368,47.3776 C182.4368,47.6041611 182.44624,47.8259989 182.46512,48.04312 C182.484,48.2602411 182.49344,48.4820789 182.49344,48.70864 C182.47456,48.9352011 182.42264,49.0909596 182.33768,49.17592 C182.25272,49.2608804 182.096961,49.3127999 181.8704,49.33168 C181.379518,49.3505601 180.888642,49.36 180.39776,49.36 L178.92512,49.36 C178.018875,49.3788801 177.126804,49.3836 176.24888,49.37416 C175.370956,49.36472 174.478885,49.3694399 173.57264,49.38832 C173.364959,49.38832 173.147841,49.3788801 172.92128,49.36 C172.694719,49.3411199 172.477601,49.3505598 172.26992,49.38832 C171.986719,49.4449603 171.82624,49.369441 171.78848,49.16176 C171.75072,48.8974387 171.679921,48.6472812 171.57608,48.41128 C171.472239,48.1752788 171.4392,47.9156814 171.47696,47.63248 C171.47696,47.4059189 171.590239,47.2454405 171.8168,47.15104 C172.137762,47.0755196 172.449278,47.0283201 172.75136,47.00944 C173.053442,46.9905599 173.364958,46.9433604 173.68592,46.86784 C173.931361,46.7923196 174.172079,46.7262403 174.40808,46.6696 C174.644081,46.6129597 174.894239,46.5563203 175.15856,46.49968 C175.366241,46.4430397 175.47008,46.3014411 175.47008,46.07488 C175.48896,45.9615994 175.4984,45.8530405 175.4984,45.7492 L175.4984,45.42352 C175.4984,44.5172755 175.50312,43.6252044 175.51256,42.74728 C175.522,41.8693556 175.52672,40.9772845 175.52672,40.07104 C175.52672,39.8067187 175.51256,39.5424013 175.48424,39.27808 C175.45592,39.0137587 175.44176,38.7494413 175.44176,38.48512 C175.42288,37.880957 175.41344,37.2909629 175.41344,36.71512 L175.41344,34.32208 C175.41344,34.114399 175.39456,33.906721 175.3568,33.69904 C175.31904,33.4158386 175.286,33.1987208 175.25768,33.04768 C175.22936,32.8966392 175.17272,32.7880803 175.08776,32.722 C175.0028,32.6559197 174.884801,32.61816 174.73376,32.60872 C174.582719,32.59928 174.356162,32.59456 174.05408,32.59456 C173.733118,32.59456 173.516001,32.7644783 173.40272,33.10432 C172.930718,34.3315261 172.454002,35.549274 171.97256,36.7576 C171.491118,37.965926 171.061602,39.2025537 170.684,40.46752 C170.62736,40.675201 170.56128,40.8875989 170.48576,41.10472 C170.41024,41.3218411 170.33472,41.534239 170.2592,41.74192 L168.89984,45.93328 C168.729919,46.4241625 168.560001,46.9008777 168.39008,47.36344 C168.220159,47.8260023 168.050241,48.2932776 167.88032,48.76528 C167.767039,49.0862416 167.592401,49.3175193 167.3564,49.45912 C167.120399,49.6007207 166.851362,49.6809599 166.54928,49.69984 C166.058398,49.7376002 165.572242,49.75176 165.0908,49.74232 C164.609358,49.73288 164.123202,49.7187201 163.63232,49.69984 C163.443519,49.69984 163.268881,49.6384806 163.1084,49.51576 C162.947919,49.3930394 162.8488,49.2561608 162.81104,49.10512 C162.641119,48.6331176 162.480641,48.1611224 162.3296,47.68912 C162.178559,47.2171176 161.999201,46.7545623 161.79152,46.30144 C161.168477,44.9798334 160.587923,43.6488067 160.04984,42.30832 C159.511757,40.9678333 158.968963,39.6273667 158.42144,38.28688 C158.119358,37.5694364 157.812562,36.7623245 157.50104,35.86552 C157.189518,34.9687155 156.882722,34.1616036 156.58064,33.44416 C156.448479,33.1609586 156.292721,32.9532807 156.11336,32.82112 C155.933999,32.6889593 155.683842,32.6417598 155.36288,32.67952 C155.32512,32.6984001 155.28736,32.70312 155.2496,32.69368 C155.21184,32.68424 155.17408,32.67952 155.13632,32.67952 C154.796478,32.6606399 154.522721,32.6889596 154.31504,32.76448 C154.107359,32.8400004 154.00352,33.0382384 154.00352,33.3592 L154.00352,38.85328 C154.06016,39.6084838 154.08848,40.3589563 154.08848,41.10472 C154.08848,41.8504837 154.09792,42.6009562 154.1168,43.35616 Z M202.4024,39.13648 C202.591201,39.2497606 202.765839,39.3488796 202.92632,39.43384 C203.086801,39.5188004 203.233119,39.6179194 203.36528,39.7312 C203.780642,40.0710417 204.186558,40.4250382 204.58304,40.7932 C204.979522,41.1613618 205.291039,41.6097574 205.5176,42.1384 C205.57424,42.2894408 205.64976,42.4357593 205.74416,42.57736 C205.83856,42.7189607 205.93296,42.8558393 206.02736,42.988 C206.291681,43.4222422 206.560719,43.8470379 206.83448,44.2624 C207.108241,44.6777621 207.396158,45.083678 207.69824,45.48016 C208.340163,46.4052846 209.208635,46.8961597 210.30368,46.9528 C210.586881,46.9716801 210.865359,46.9575202 211.13912,46.91032 C211.412881,46.8631198 211.691359,46.8206402 211.97456,46.78288 C212.201121,46.7451198 212.375759,46.72624 212.49848,46.72624 C212.621201,46.72624 212.72032,46.7545597 212.79584,46.8112 C212.87136,46.8678403 212.91856,46.9575194 212.93744,47.08024 C212.95632,47.2029606 212.9752,47.3775989 212.99408,47.60416 C213.01296,47.8684813 213.01296,48.1280787 212.99408,48.38296 C212.9752,48.6378413 212.94688,48.8974387 212.90912,49.16176 C212.87136,49.2939207 212.795841,49.3977596 212.68256,49.47328 C212.531519,49.5488004 212.375761,49.6243196 212.21528,49.69984 C212.054799,49.7753604 211.899041,49.8225599 211.748,49.84144 C210.955036,49.9358405 210.190404,49.9311205 209.45408,49.82728 C208.717756,49.7234395 207.990884,49.473282 207.27344,49.0768 C206.971358,48.9257592 206.707041,48.7322412 206.48048,48.49624 C206.253919,48.2602388 206.036801,48.0006414 205.82912,47.71744 C205.545919,47.3020779 205.267441,46.8867221 204.99368,46.47136 C204.719919,46.0559979 204.450881,45.6312022 204.18656,45.19696 C204.035519,44.989279 203.884481,44.7768811 203.73344,44.55976 C203.582399,44.3426389 203.431361,44.1208011 203.28032,43.89424 C203.18592,43.7620793 203.09624,43.6393606 203.01128,43.52608 C202.92632,43.4127994 202.85552,43.2806408 202.79888,43.1296 C202.628959,42.6953578 202.345762,42.3649611 201.94928,42.1384 C201.779359,42.0251194 201.609441,41.9024007 201.43952,41.77024 C201.269599,41.6380793 201.090241,41.5248005 200.90144,41.4304 C200.693759,41.3171194 200.471921,41.2085605 200.23592,41.10472 C199.999919,41.0008795 199.759201,40.94896 199.51376,40.94896 C199.136158,40.94896 198.730242,40.9017605 198.296,40.80736 C197.616317,40.6751993 196.917764,40.6232799 196.20032,40.6516 C195.482876,40.6799201 194.793763,40.7129598 194.13296,40.75072 C193.944159,40.75072 193.764801,40.7601599 193.59488,40.77904 C193.424959,40.7979201 193.245601,40.8167999 193.0568,40.83568 C192.849119,40.8734402 192.74528,40.9867191 192.74528,41.17552 L192.74528,42.59152 C192.76416,43.1012825 192.75944,43.6063175 192.73112,44.10664 C192.7028,44.6069625 192.70752,45.1119975 192.74528,45.62176 C192.74528,46.1126425 192.811359,46.4288793 192.94352,46.57048 C193.075681,46.7120807 193.311678,46.8111997 193.65152,46.86784 C193.991362,46.9244803 194.350078,46.9905596 194.72768,47.06608 C195.105282,47.1416004 195.463998,47.2171196 195.80384,47.29264 C196.124802,47.3492803 196.27584,47.5475183 196.25696,47.88736 C196.25696,48.0572808 196.2664,48.2319191 196.28528,48.41128 C196.30416,48.5906409 196.3136,48.7747191 196.3136,48.96352 C196.3136,49.1900811 196.190881,49.2939201 195.94544,49.27504 C195.794399,49.2561599 195.643361,49.242 195.49232,49.23256 C195.341279,49.22312 195.190241,49.2278399 195.0392,49.24672 L192.32048,49.30336 C191.414235,49.3222401 190.508005,49.3505598 189.60176,49.38832 L188.35568,49.44496 C187.940318,49.4638401 187.524962,49.47328 187.1096,49.47328 C186.826399,49.4921601 186.6376,49.4496805 186.5432,49.34584 C186.4488,49.2419995 186.39216,49.0390415 186.37328,48.73696 C186.3544,48.6425595 186.34496,48.5576004 186.34496,48.48208 L186.34496,48.2272 C186.38272,47.9628787 186.4488,47.7693606 186.5432,47.64664 C186.6376,47.5239194 186.816959,47.4248004 187.08128,47.34928 C187.364481,47.2737596 187.647679,47.2124002 187.93088,47.1652 C188.214081,47.1179998 188.497279,47.0566404 188.78048,46.98112 C188.950401,46.9622399 189.139199,46.9150404 189.34688,46.83952 C189.554561,46.7639996 189.682,46.6884804 189.7292,46.61296 C189.7764,46.5374396 189.8,46.3864011 189.8,46.15984 L189.8,39.63208 C189.8,38.6031149 189.79528,37.5694452 189.78584,36.53104 C189.7764,35.4926348 189.74336,34.3881659 189.68672,33.2176 C189.66784,33.009919 189.6112,32.8730403 189.5168,32.80696 C189.4224,32.7408797 189.290241,32.6889602 189.12032,32.6512 C188.686078,32.5567995 188.261282,32.4624005 187.84592,32.368 L186.59984,32.0848 C186.411039,32.0470398 186.27888,31.9668006 186.20336,31.84408 C186.12784,31.7213594 186.08064,31.5844808 186.06176,31.43344 L186.06176,31.05112 C186.06176,30.9283994 186.08064,30.8009607 186.1184,30.6688 C186.15616,30.3100782 186.21752,30.0976803 186.30248,30.0316 C186.38744,29.9655197 186.618718,29.9136002 186.99632,29.87584 C187.317282,29.8569599 187.647678,29.85224 187.98752,29.86168 C188.327362,29.87112 188.657758,29.87584 188.97872,29.87584 C189.922725,29.8380798 190.852555,29.8097601 191.76824,29.79088 C192.683925,29.7719999 193.594875,29.7531201 194.50112,29.73424 C194.746561,29.7153599 194.991999,29.7200799 195.23744,29.7484 C195.482881,29.7767201 195.737759,29.79088 196.00208,29.79088 C196.266401,29.79088 196.408,29.9230387 196.42688,30.18736 L196.54016,30.75376 C196.55904,30.9803211 196.5732,31.1643993 196.58264,31.306 C196.59208,31.4476007 196.56848,31.5608796 196.51184,31.64584 C196.4552,31.7308004 196.365521,31.7968798 196.2428,31.84408 C196.120079,31.8912802 195.936001,31.9431997 195.69056,31.99984 C195.331838,32.0942405 194.973122,32.2027994 194.6144,32.32552 C194.255678,32.4482406 193.887522,32.5190399 193.50992,32.53792 C193.170078,32.5756802 192.95768,32.6417595 192.87272,32.73616 C192.78776,32.8305605 192.74528,33.0476783 192.74528,33.38752 C192.74528,33.8595224 192.75,34.3315176 192.75944,34.80352 C192.76888,35.2755224 192.7736,35.7475176 192.7736,36.21952 C192.7736,36.4460811 192.76888,36.6726389 192.75944,36.8992 C192.75,37.1257611 192.74528,37.3523189 192.74528,37.57888 C192.74528,37.8054411 192.858559,37.9281599 193.08512,37.94704 C193.330561,37.9848002 193.571279,38.0178399 193.80728,38.04616 C194.043281,38.0744801 194.293439,38.0697602 194.55776,38.032 C195.312964,37.9942398 196.044556,37.9847999 196.75256,38.00368 C197.460564,38.0225601 198.154397,38.032 198.83408,38.032 C198.87184,38.032 198.90016,38.0225601 198.91904,38.00368 C198.93792,37.9847999 198.96624,37.9847999 199.004,38.00368 C199.230561,38.0792004 199.424079,38.0980802 199.58456,38.06032 C199.745041,38.0225598 199.896079,37.9564805 200.03768,37.86208 C200.179281,37.7676795 200.306719,37.6544007 200.42,37.52224 C200.533281,37.3900793 200.655999,37.2579207 200.78816,37.12576 L201.72272,36.1912 C202.194722,35.6625574 202.657278,35.1433625 203.1104,34.6336 C203.563522,34.1238375 204.016638,33.6046426 204.46976,33.076 C204.54528,33.0004796 204.60192,32.9060806 204.63968,32.7928 C204.69632,32.6228792 204.639681,32.5190402 204.46976,32.48128 L204.08744,32.48128 C203.964719,32.48128 203.837281,32.4718401 203.70512,32.45296 C203.421919,32.4151998 203.134001,32.3821601 202.84136,32.35384 C202.548719,32.3255199 202.260801,32.2924802 201.9776,32.25472 C201.713279,32.1980797 201.57168,32.0470412 201.5528,31.8016 L201.49616,31.12192 C201.47728,30.8953589 201.4584,30.678241 201.43952,30.47056 C201.42064,30.262879 201.44424,30.1260003 201.51032,30.05992 C201.5764,29.9938397 201.703839,29.9608 201.89264,29.9608 C202.477923,29.9419199 203.063197,29.93248 203.64848,29.93248 L205.40432,29.93248 C206.008483,29.9135999 206.607917,29.90416 207.20264,29.90416 L211.91792,29.90416 C212.201121,29.90416 212.3852,29.9466396 212.47016,30.0316 C212.55512,30.1165604 212.57872,30.3006386 212.54096,30.58384 C212.54096,30.7348808 212.53152,30.8481596 212.51264,30.92368 C212.47488,31.0747208 212.45128,31.2351992 212.44184,31.40512 C212.4324,31.5750408 212.4088,31.7355192 212.37104,31.88656 C212.163359,31.9620804 211.955681,32.0328797 211.748,32.09896 C211.540319,32.1650403 211.332641,32.2263997 211.12496,32.28304 C210.955039,32.3208002 210.785121,32.33968 210.6152,32.33968 C210.445279,32.33968 210.284801,32.3585598 210.13376,32.39632 C209.114235,32.5473608 208.292963,32.9721565 207.66992,33.67072 C207.122397,34.3315233 206.560723,34.9734369 205.98488,35.59648 C205.409037,36.2195231 204.837923,36.8519968 204.27152,37.49392 C204.120479,37.6449608 203.978881,37.7959992 203.84672,37.94704 C203.714559,38.0980808 203.572961,38.2491192 203.42192,38.40016 C203.270879,38.5323207 203.115121,38.6503195 202.95464,38.75416 C202.794159,38.8580005 202.610081,38.9854392 202.4024,39.13648 Z M229.1648,46.18816 L234.6872,46.1032 L234.94208,46.1032 C235.338562,46.0843199 235.57928,46.0371204 235.66424,45.9616 C235.7492,45.8860796 235.83888,45.6595219 235.93328,45.28192 L236.21648,44.09248 C236.31088,43.695998 236.40528,43.3089619 236.49968,42.93136 C236.5752,42.6670387 236.66016,42.5018403 236.75456,42.43576 C236.84896,42.3696797 237.028319,42.3460799 237.29264,42.36496 C237.575841,42.3838401 237.792959,42.4027199 237.944,42.4216 C238.095041,42.4404801 238.20832,42.4876796 238.28384,42.5632 C238.35936,42.6387204 238.41128,42.7519992 238.4396,42.90304 C238.46792,43.0540808 238.49152,43.2711986 238.5104,43.5544 C238.54816,44.158563 238.57176,44.8146365 238.5812,45.52264 C238.59064,46.2306435 238.61424,46.886717 238.652,47.49088 L238.652,48.05728 C238.652,48.2460809 238.67088,48.439599 238.70864,48.63784 C238.7464,48.836081 238.72752,48.9918394 238.652,49.10512 C238.59536,49.1995205 238.52928,49.24672 238.45376,49.24672 C238.37824,49.24672 238.29328,49.2372801 238.19888,49.2184 C238.10448,49.1995199 238.01008,49.1759201 237.91568,49.1476 C237.82128,49.1192799 237.73632,49.10512 237.6608,49.10512 C236.527994,49.1806404 235.399926,49.2042401 234.27656,49.17592 C233.153194,49.1475999 232.025126,49.1617597 230.89232,49.2184 C229.816155,49.2750403 228.754165,49.30336 227.70632,49.30336 C226.658475,49.30336 225.605925,49.3127999 224.54864,49.33168 C224.076638,49.3505601 223.614082,49.3458401 223.16096,49.31752 C222.707838,49.2891999 222.245282,49.2656001 221.77328,49.24672 C220.961436,49.2089598 220.154324,49.19008 219.35192,49.19008 C218.549516,49.19008 217.751844,49.2750392 216.95888,49.44496 C216.543518,49.5204804 216.250881,49.4827208 216.08096,49.33168 C215.911039,49.1806392 215.81664,48.8974421 215.79776,48.48208 L215.79776,48.05728 C215.79776,47.849599 215.80248,47.6844006 215.81192,47.56168 C215.82136,47.4389594 215.8544,47.3398404 215.91104,47.26432 C215.96768,47.1887996 216.057359,47.1227203 216.18008,47.06608 C216.302801,47.0094397 216.467999,46.9528003 216.67568,46.89616 C217.072162,46.7828794 217.473358,46.6696006 217.87928,46.55632 C218.285202,46.4430394 218.686398,46.3297606 219.08288,46.21648 C219.366081,46.1220795 219.536,46.0465603 219.59264,45.98992 C219.64928,45.9332797 219.6776,45.7633614 219.6776,45.48016 C219.6776,44.9326373 219.67288,44.3898427 219.66344,43.85176 C219.654,43.3136773 219.64928,42.7708827 219.64928,42.22336 C219.6304,41.5059164 219.61624,40.7790437 219.6068,40.04272 C219.59736,39.3063963 219.57376,38.5795236 219.536,37.86208 C219.49824,37.2012767 219.4652,36.5357634 219.43688,35.86552 C219.40856,35.1952766 219.37552,34.5297633 219.33776,33.86896 C219.33776,33.8123197 219.33304,33.7556803 219.3236,33.69904 C219.31416,33.6423997 219.31888,33.5857603 219.33776,33.52912 C219.451041,32.8494366 219.177283,32.4152009 218.51648,32.2264 C218.384319,32.1886398 218.261601,32.1320004 218.14832,32.05648 C218.035039,31.9809596 217.912321,31.9148803 217.78016,31.85824 C217.553599,31.7638395 217.331761,31.6552806 217.11464,31.53256 C216.897519,31.4098394 216.647361,31.3673598 216.36416,31.40512 C216.213119,31.40512 216.09984,31.3484806 216.02432,31.2352 C215.684478,30.7443175 215.571199,30.2156828 215.68448,29.64928 C215.70336,29.6115198 215.74584,29.5643203 215.81192,29.50768 C215.878,29.4510397 215.92992,29.4321599 215.96768,29.45104 C217.572488,29.6020808 219.177272,29.6492803 220.78208,29.59264 C222.386888,29.5359997 223.991672,29.5171199 225.59648,29.536 C227.352329,29.5737602 229.108151,29.5737602 230.864,29.536 C231.562563,29.536 232.256397,29.5218401 232.94552,29.49352 C233.634643,29.4651999 234.328477,29.4416001 235.02704,29.42272 C235.442402,29.42272 235.853038,29.4321599 236.25896,29.45104 C236.664882,29.4699201 237.066078,29.4982398 237.46256,29.536 C237.802402,29.5548801 238.028959,29.6303993 238.14224,29.76256 C238.255521,29.8947207 238.31216,30.1401582 238.31216,30.49888 C238.33104,31.2729639 238.3452,32.0375962 238.35464,32.7928 C238.36408,33.5480038 238.3688,34.322076 238.3688,35.11504 L238.3688,35.42656 C238.33104,35.5587207 238.27912,35.6625596 238.21304,35.73808 C238.14696,35.8136004 238.047841,35.8324802 237.91568,35.79472 C237.481438,35.6625593 237.037762,35.6531194 236.58464,35.7664 C236.54688,35.7852801 236.48552,35.7616803 236.40056,35.6956 C236.3156,35.6295197 236.26368,35.5681603 236.2448,35.51152 C236.131519,35.0395176 235.971041,34.5911221 235.76336,34.16632 C235.555679,33.7415179 235.366881,33.3120022 235.19696,32.87776 C235.083679,32.5756785 234.876002,32.4340799 234.57392,32.45296 C234.234078,32.4718401 233.922561,32.48128 233.63936,32.48128 C233.356159,32.48128 233.072961,32.4718401 232.78976,32.45296 C232.506559,32.4340799 232.204482,32.42464 231.88352,32.42464 C231.562558,32.42464 231.184962,32.4340799 230.75072,32.45296 C230.335358,32.4718401 229.920002,32.4718401 229.50464,32.45296 C229.089278,32.4340799 228.673922,32.42464 228.25856,32.42464 C227.427836,32.4435201 226.601844,32.45768 225.78056,32.46712 C224.959276,32.47656 224.133284,32.4907199 223.30256,32.5096 C223.24592,32.5284801 223.1704,32.53792 223.076,32.53792 C222.736158,32.5756802 222.5332,32.6228797 222.46712,32.67952 C222.40104,32.7361603 222.37744,32.9343983 222.39632,33.27424 C222.4152,33.9350433 222.43408,34.5911167 222.45296,35.24248 C222.47184,35.8938433 222.50016,36.5499167 222.53792,37.21072 C222.53792,37.418401 222.57096,37.5505597 222.63704,37.6072 C222.70312,37.6638403 222.839999,37.69216 223.04768,37.69216 C223.481922,37.69216 223.911438,37.68744 224.33624,37.678 C224.761042,37.66856 225.190558,37.6544001 225.6248,37.63552 C226.172323,37.63552 226.705677,37.64024 227.22488,37.64968 C227.744083,37.65912 228.277437,37.6544001 228.82496,37.63552 C229.372483,37.63552 229.915277,37.6260801 230.45336,37.6072 C230.991443,37.5883199 231.534237,37.5694401 232.08176,37.55056 C232.459362,37.55056 232.700079,37.6024795 232.80392,37.70632 C232.907761,37.8101605 232.97856,38.0414382 233.01632,38.40016 C233.0352,38.5889609 233.05408,38.7683192 233.07296,38.93824 C233.09184,39.1081608 233.12016,39.2875191 233.15792,39.47632 C233.21456,39.8161617 233.186241,40.0521593 233.07296,40.18432 C232.959679,40.3164807 232.723682,40.3919999 232.36496,40.41088 C231.288795,40.4297601 230.226805,40.43448 229.17896,40.42504 C228.131115,40.4156 227.069125,40.4203199 225.99296,40.4392 C225.558718,40.4580801 225.124482,40.4628 224.69024,40.45336 C224.255998,40.44392 223.821762,40.4486399 223.38752,40.46752 C223.047678,40.4864001 222.84472,40.5288797 222.77864,40.59496 C222.71256,40.6610403 222.67952,40.8545584 222.67952,41.17552 C222.67952,41.8740835 222.68424,42.5726365 222.69368,43.2712 C222.70312,43.9697635 222.71728,44.6683165 222.73616,45.36688 C222.73616,45.574561 222.7456,45.7303195 222.76448,45.83416 C222.78336,45.9380005 222.82112,46.0135198 222.87776,46.06072 C222.9344,46.1079202 223.024079,46.13624 223.1468,46.14568 C223.269521,46.15512 223.434719,46.15984 223.6424,46.15984 C224.567525,46.1409599 225.487915,46.13624 226.4036,46.14568 C227.319285,46.15512 228.239675,46.15984 229.1648,46.15984 L229.1648,46.18816 Z" id="-" fill="#FFFFFF"></path>
                <g id="Group-2-Copy-4" transform="translate(37.760000, 0.000000)" stroke="#FFFFFF" stroke-width="1.18">
                    <polyline id="Path-10" points="167.56 0 156.046374 9.44 144.532749 0 133.019123 9.44 121.505497 0 109.991871 9.44 98.4782456 0 86.9646199 9.44 75.4509942 0 63.9373684 9.44 52.4237427 0 40.910117 9.44 29.3964912 0 17.8828655 9.44 6.36923977 0 0.23327173 4.72"></polyline>
                    <polyline id="Path-10" transform="translate(83.909697, 4.720000) scale(1, -1) translate(-83.909697, -4.720000) " points="167.56 0 156.046374 9.44 144.532749 0 133.019123 9.44 121.505497 0 109.991871 9.44 98.4782456 0 86.9646199 9.44 75.4509942 0 63.9373684 9.44 52.4237427 0 40.910117 9.44 29.3964912 0 17.8828655 9.44 6.36923977 0 0.259394504 4.72"></polyline>
                </g>
                <g id="Group-2-Copy-8" transform="translate(37.760000, 73.160000)" stroke="#FFFFFF" stroke-width="1.18">
                    <polyline id="Path-10" points="167.56 0 156.046374 9.44 144.532749 0 133.019123 9.44 121.505497 0 109.991871 9.44 98.4782456 0 86.9646199 9.44 75.4509942 0 63.9373684 9.44 52.4237427 0 40.910117 9.44 29.3964912 0 17.8828655 9.44 6.36923977 0 0.23327173 4.72"></polyline>
                    <polyline id="Path-10" transform="translate(83.909697, 4.720000) scale(1, -1) translate(-83.909697, -4.720000) " points="167.56 0 156.046374 9.44 144.532749 0 133.019123 9.44 121.505497 0 109.991871 9.44 98.4782456 0 86.9646199 9.44 75.4509942 0 63.9373684 9.44 52.4237427 0 40.910117 9.44 29.3964912 0 17.8828655 9.44 6.36923977 0 0.259394504 4.72"></polyline>
                </g>
            </g>
        </g>
    </g>
</svg>