<?xml version="1.0" encoding="UTF-8"?>
<svg width="11px" height="18px" viewBox="0 0 11 18" version="1.1" xmlns="http://www.w3.org/2000/svg" xmlns:xlink="http://www.w3.org/1999/xlink">
    <!-- Generator: Sketch 49.3 (51167) - http://www.bohemiancoding.com/sketch -->
    <title>icons/social/ok/white</title>
    <desc>Created with Sketch.</desc>
    <defs></defs>
    <g id="icons/social/ok/white" stroke="none" stroke-width="1" fill="none" fill-rule="evenodd">
        <path d="M10.494,10.9713913 C9.94486957,11.5351304 9.28382609,11.9431304 8.54973913,12.2277391 C7.85582609,12.4966957 7.0953913,12.632087 6.34252174,12.7223478 C6.45652174,12.846 6.51,12.9067826 6.58095652,12.9777391 C7.60252174,14.0047826 8.62904348,15.0266087 9.64721739,16.0565217 C9.99417391,16.4076522 10.0664348,16.8427826 9.87547826,17.2505217 C9.66704348,17.6966087 9.19930435,17.9898261 8.74043478,17.9582609 C8.44982609,17.9381739 8.22313043,17.793913 8.022,17.5912174 C7.25086957,16.8153913 6.46513043,16.0533913 5.71017391,15.2629565 C5.48973913,15.0328696 5.38434783,15.0766957 5.19,15.2765217 C4.41443478,16.0753043 3.62608696,16.8613043 2.83330435,17.6431304 C2.47721739,17.9942609 2.05356522,18.057913 1.64034783,17.8570435 C1.20130435,17.6446957 0.922173913,17.1962609 0.943565217,16.7452174 C0.958695652,16.4410435 1.10843478,16.2078261 1.31765217,15.9996522 C2.32904348,14.9903478 3.33730435,13.977913 4.34582609,12.9662609 C4.41286957,12.8992174 4.47495652,12.828 4.57226087,12.7236522 C3.19669565,12.579913 1.95626087,12.2413043 0.89426087,11.4109565 C0.76226087,11.3076522 0.626347826,11.208 0.506347826,11.0921739 C0.0412173913,10.6458261 -0.00547826087,10.1342609 0.362086957,9.60782609 C0.676956522,9.15704348 1.20495652,9.03652174 1.75408696,9.29556522 C1.86052174,9.3453913 1.96173913,9.40852174 2.05878261,9.47530435 C4.03773913,10.8352174 6.75652174,10.8725217 8.74330435,9.53608696 C8.94,9.38582609 9.15052174,9.26217391 9.39443478,9.19982609 C9.86817391,9.07773913 10.3106087,9.25226087 10.5646957,9.66704348 C10.8555652,10.1410435 10.8521739,10.6033043 10.494,10.9713913 Z M5.46391304,0.225130435 C7.9473913,0.231913043 9.94069565,2.26330435 9.92791304,4.77417391 C9.9153913,7.22713043 7.88947826,9.21521739 5.41017391,9.20686957 C2.95617391,9.19852174 0.943565217,7.164 0.958173913,4.70608696 C0.972,2.22130435 2.98565217,0.218347826 5.46391304,0.225130435 Z M5.45765217,6.91486957 C6.67513043,6.91043478 7.64478261,5.93243478 7.64034783,4.71234783 C7.63591304,3.49173913 6.66417391,2.52052174 5.44617391,2.51947826 C4.218,2.51817391 3.23713043,3.5073913 3.24652174,4.73895652 C3.25565217,5.9546087 4.23626087,6.91930435 5.45765217,6.91486957 Z" id="Combined-Shape" fill="#FFFFFF"></path>
    </g>
</svg>