<?xml version="1.0" encoding="UTF-8"?>
<svg width="42px" height="48px" viewBox="0 0 42 48" version="1.1" xmlns="http://www.w3.org/2000/svg" xmlns:xlink="http://www.w3.org/1999/xlink">
    <!-- Generator: Sketch 49.3 (51167) - http://www.bohemiancoding.com/sketch -->
    <title>icons/map/single</title>
    <desc>Created with Sketch.</desc>
    <defs>
        <path d="M20.6511628,0.0712405611 C24.875165,-0.359632281 29.1618895,1.16397913 33.5113364,4.64207479 C40.1806684,9.97529881 39.2271012,20.240814 39.2271012,24.6592434 C39.2271012,27.6048631 39.9188427,30.6569009 41.3023256,33.8153571 C40.5980156,34.2559453 39.2583465,34.8739761 37.2833183,35.6694497 C35.3082902,36.4649232 32.8292269,37.3964086 29.8461286,38.4639057 C30.7353259,39.3680466 31.5652042,40.7079224 32.3357636,42.483533 C33.1063229,44.2591436 33.1063229,46.0979659 32.3357636,48 C29.1301898,48 26.4845636,47.4608062 24.398885,46.3824187 C23.0691436,45.694884 21.8199029,44.663026 20.6511628,43.2868446 C19.4824227,44.663026 18.233182,45.694884 16.9034406,46.3824187 C14.817762,47.4608062 12.1721358,48 8.96656201,48 C8.19600268,46.0979659 8.19600268,44.2591436 8.96656201,42.483533 C9.73712134,40.7079224 10.5669997,39.3680466 11.4561969,38.4639057 C8.47309863,37.3964086 5.99403541,36.4649232 4.01900726,35.6694497 C2.04397911,34.8739761 0.704310026,34.2559453 0,33.8153571 C1.3834829,30.6569009 2.07522435,27.6048631 2.07522435,24.6592434 C2.07522435,20.240814 1.12165718,9.97529881 7.79098917,4.64207479 C12.1404361,1.16397913 16.4271606,-0.359632281 20.6511628,0.0712405611 Z" id="path-1"></path>
        <filter x="-14.5%" y="-8.3%" width="129.1%" height="125.0%" filterUnits="objectBoundingBox" id="filter-2">
            <feMorphology radius="2" operator="dilate" in="SourceAlpha" result="shadowSpreadOuter1"></feMorphology>
            <feOffset dx="0" dy="2" in="shadowSpreadOuter1" result="shadowOffsetOuter1"></feOffset>
            <feGaussianBlur stdDeviation="1" in="shadowOffsetOuter1" result="shadowBlurOuter1"></feGaussianBlur>
            <feComposite in="shadowBlurOuter1" in2="SourceAlpha" operator="out" result="shadowBlurOuter1"></feComposite>
            <feColorMatrix values="0 0 0 0 0   0 0 0 0 0   0 0 0 0 0  0 0 0 0.5 0" type="matrix" in="shadowBlurOuter1"></feColorMatrix>
        </filter>
    </defs>
    <g id="icons/map/single" stroke="none" stroke-width="1" fill="none" fill-rule="evenodd">
        <g id="Group-6-Copy">
            <path d="" id="Path-2" stroke="#979797"></path>
            <g id="Combined-Shape">
                <use fill="black" fill-opacity="1" filter="url(#filter-2)" xlink:href="#path-1"></use>
                <use fill="#C3151C" fill-rule="evenodd" xlink:href="#path-1"></use>
                <path stroke="#EAD7B6" stroke-width="2" d="M20.6511628,-0.933597763 C25.124523,-1.35898106 29.6289023,0.257017475 34.1358714,3.86107795 C37.1054928,6.23577697 38.854333,9.62042334 39.6812919,13.8358232 C40.2263945,16.6144686 40.3259771,19.0260049 40.250497,23.0024161 C40.230274,24.0677925 40.2271012,24.2687033 40.2271012,24.6592434 C40.2271012,27.4607425 40.8881786,30.3774872 42.2183062,33.4141346 L42.5647921,34.2051531 L41.8326659,34.663142 C41.0642206,35.1438506 39.6838028,35.7806801 37.6569195,36.5970391 C35.9727636,37.2753593 33.9283343,38.0505018 31.5227755,38.9228864 C32.1366738,39.7839307 32.7117596,40.8380018 33.2531064,42.0854349 C34.1322941,44.1113592 34.1322941,46.228729 33.2625937,48.375481 L33.0095861,49 L32.3357636,49 C28.980895,49 26.1802189,48.4292062 23.9396004,47.2707079 C22.7786041,46.6704218 21.6827009,45.8370028 20.6511628,44.7745839 C19.6196247,45.8370028 18.5237214,46.6704218 17.3627252,47.2707079 C15.1221067,48.4292062 12.3214305,49 8.96656201,49 L8.29273945,49 L8.0397319,48.375481 C7.17003151,46.228729 7.17003151,44.1113592 8.04921914,42.0854349 C8.590566,40.8380018 9.16565181,39.7839307 9.77955009,38.9228864 C7.37399127,38.0505018 5.32956198,37.2753593 3.64540607,36.5970391 C1.61852282,35.7806801 0.238105005,35.1438506 -0.530340297,34.663142 L-1.26246653,34.2051531 L-0.915980641,33.4141346 C0.414146978,30.3774872 1.07522435,27.4607425 1.07522435,24.6592434 C1.07522435,24.2687033 1.07205157,24.0677925 1.05182863,23.0024161 C0.976348507,19.0260049 1.0759311,16.6144686 1.62103369,13.8358232 C2.44799254,9.62042334 4.1968328,6.23577697 7.1664542,3.86107795 C11.6734233,0.257017475 16.1778026,-1.35898106 20.6511628,-0.933597763 Z"></path>
            </g>
            <path d="M20.5704533,10.2944824 L20.6052781,10.0465116 C20.6202626,10.0774303 20.6355575,10.1083697 20.6511628,10.1393298 C20.6667681,10.1083697 20.682063,10.0774303 20.6970475,10.0465116 L20.7318722,10.2944824 C21.1161292,11.0109701 21.6658878,11.7385037 22.3811481,12.4770831 C23.5780323,13.7129887 26.5294285,13.9830846 28.5156609,14.4135236 C30.5018933,14.8439627 32.9674656,15.4892746 34.0112846,16.9826416 C35.0551035,18.4760085 34.6453284,21.4447208 33.378279,24.9215037 C32.1112295,28.3982865 25.8334338,32.0564984 22.3811481,32.3089741 C21.7530141,32.3549114 21.1763523,32.3757741 20.6511628,32.3715625 C20.1259733,32.3757741 19.5493115,32.3549114 18.9211775,32.3089741 C15.4688917,32.0564984 9.19109606,28.3982865 7.92404661,24.9215037 C6.65699716,21.4447208 6.24722209,18.4760085 7.29104103,16.9826416 C8.33485997,15.4892746 10.8004323,14.8439627 12.7866647,14.4135236 C14.7728971,13.9830846 17.7242933,13.7129887 18.9211775,12.4770831 C19.6364377,11.7385037 20.1861963,11.0109701 20.5704533,10.2944824 Z" id="Combined-Shape" fill="#F6F5F4"></path>
            <circle id="Oval-3" fill="#C3151C" cx="27.9069767" cy="22.3255814" r="2.23255814"></circle>
            <circle id="Oval-3-Copy" fill="#C3151C" cx="12.2790698" cy="22.3255814" r="2.23255814"></circle>
            <path d="M23.4816769,27.185205 C23.894701,26.8647345 24.4673433,26.9706989 24.7607092,27.4218832 C25.0540751,27.8730674 24.9570729,28.4986172 24.5440487,28.8190878 C21.9179728,30.8566922 19.1358195,30.8566922 16.4024756,28.8314286 C15.9832123,28.5207765 15.8738659,27.897661 16.1582438,27.4396611 C16.4426216,26.9816612 17.0130355,26.8622122 17.4322989,27.1728642 C19.5383101,28.7333075 21.4864738,28.7333075 23.4816769,27.185205 Z" id="Path-5" fill="#F7941F" fill-rule="nonzero"></path>
        </g>
    </g>
</svg>