<svg width="360" height="72" xmlns="http://www.w3.org/2000/svg"><g fill="none" fill-rule="evenodd" stroke="#FFF" stroke-width="2"><path d="M42.046 5.247c-7.353-1.098-4.772-1.43-15.042-1.43C16.735 3.816 1 16.221 1 35s15.222 34 34 34 34-15.222 34-34S53.778 1 35 1m122.058 7.613C149.019 13.686 145 22.482 145 35c0 18.778 15.222 34 34 34s34-15.222 34-34-15.222-34-34-34m93.942 60.387C280.981 56.314 285 47.518 285 35c0-18.778-15.222-34-34-34s-34 15.222-34 34 15.222 34 34 34m106-34c0 18.778-15.222 34-34 34s-34-15.222-34-34 15.222-34 34-34M134.707 21.349c-2.12-4.85-13.308-15.004-20.661-16.102-7.353-1.098-4.772-1.43-15.042-1.43C88.735 3.816 73 16.221 73 35s15.222 34 34 34 34-15.222 34-34m20.162-28.336c6.147-2.684 10.194-4.026 12.139-4.026M281.914 36c-1.025 17.557-12.07 27.133-33.134 28.727m-111.862-23.42c1.537-4.804.96-9.446-1.734-13.927"/><path d="M353.125 40.923c.9-7.72-.638-15.13-4.615-22.228-5.965-10.647-16.49-15.187-21.522-15.187"/></g></svg>