<?xml version="1.0" encoding="UTF-8"?>
<svg width="229px" height="15px" viewBox="0 0 229 15" version="1.1" xmlns="http://www.w3.org/2000/svg" xmlns:xlink="http://www.w3.org/1999/xlink">
    <!-- Generator: Sketch 49.3 (51167) - http://www.bohemiancoding.com/sketch -->
    <title>teremok_slogan_line_left_big</title>
    <desc>Created with Sketch.</desc>
    <defs></defs>
    <g id="0-Style-and-UI" stroke="none" stroke-width="1" fill="none" fill-rule="evenodd">
        <g id="big_headers" transform="translate(-398.000000, -1635.000000)" fill="#FFFFFF" fill-rule="nonzero">
            <g id="teremok_slogan_line_left_big" transform="translate(398.000000, 1635.000000)">
                <polygon id="Path-10" transform="translate(114.847360, 7.500000) scale(-1, 1) translate(-114.847360, -7.500000) " points="213.015919 13.3502795 228.363299 0.615219153 229.001872 1.38478085 213.015919 14.6497205 197.349252 1.64972049 181.682586 14.6497205 166.015919 1.64972049 150.349252 14.6497205 134.682586 1.64972049 119.015919 14.6497205 103.349252 1.64972049 87.6825856 14.6497205 72.0159189 1.64972049 56.3492523 14.6497205 40.6825856 1.64972049 25.0159189 14.6497205 9.3392641 1.64143242 1.30715097 7.89453553 0.692849031 7.10546447 9.35924046 0.358567576 25.0159189 13.3502795 40.6825856 0.350279511 56.3492523 13.3502795 72.0159189 0.350279511 87.6825856 13.3502795 103.349252 0.350279511 119.015919 13.3502795 134.682586 0.350279511 150.349252 13.3502795 166.015919 0.350279511 181.682586 13.3502795 197.349252 0.350279511"></polygon>
                <polygon id="Path-10" transform="translate(114.829180, 7.500000) scale(-1, -1) translate(-114.829180, -7.500000) " points="228.327754 0.615219153 228.966326 1.38478085 212.980374 14.6497205 197.313707 1.64972049 181.64704 14.6497205 165.980374 1.64972049 150.313707 14.6497205 134.64704 1.64972049 118.980374 14.6497205 103.313707 1.64972049 87.6470402 14.6497205 71.9803735 1.64972049 56.3137069 14.6497205 40.6470402 1.64972049 24.9803735 14.6497205 9.30437451 1.64197663 1.30796665 7.89389915 0.692033347 7.10610085 9.32303919 0.358023368 24.9803735 13.3502795 40.6470402 0.350279511 56.3137069 13.3502795 71.9803735 0.350279511 87.6470402 13.3502795 103.313707 0.350279511 118.980374 13.3502795 134.64704 0.350279511 150.313707 13.3502795 165.980374 0.350279511 181.64704 13.3502795 197.313707 0.350279511 212.980374 13.3502795"></polygon>
            </g>
        </g>
    </g>
</svg>