<?xml version="1.0" encoding="UTF-8"?>
<svg width="112px" height="8px" viewBox="0 0 112 8" version="1.1" xmlns="http://www.w3.org/2000/svg" xmlns:xlink="http://www.w3.org/1999/xlink">
    <!-- Generator: Sketch 49.3 (51167) - http://www.bohemiancoding.com/sketch -->
    <title>teremok_slogan_line_left_small</title>
    <desc>Created with Sketch.</desc>
    <defs></defs>
    <g id="0-Style-and-UI" stroke="none" stroke-width="1" fill="none" fill-rule="evenodd">
        <g id="big_headers" transform="translate(-538.000000, -1863.000000)" fill="#FFFFFF" fill-rule="nonzero">
            <g id="teremok_slogan_line_left_small" transform="translate(538.000000, 1863.000000)">
                <polygon id="Path-10" transform="translate(55.929538, 4.000000) scale(-1, 1) translate(-55.929538, -4.000000) " points="110.535994 0.608385995 111.157729 1.39161401 103.288382 7.63838371 95.7299024 1.63838371 88.1714229 7.63838371 80.6129434 1.63838371 73.0544638 7.63838371 65.4959843 1.63838371 57.9375048 7.63838371 50.3790252 1.63838371 42.8205457 7.63838371 35.2620662 1.63838371 27.7035866 7.63838371 20.1451071 1.63838371 12.5866276 7.63838371 5.01842962 1.63066913 1.29865326 4.40100652 0.701346736 3.59899348 5.03786644 0.369330867 12.5866276 6.36161629 20.1451071 0.361616294 27.7035866 6.36161629 35.2620662 0.361616294 42.8205457 6.36161629 50.3790252 0.361616294 57.9375048 6.36161629 65.4959843 0.361616294 73.0544638 6.36161629 80.6129434 0.361616294 88.1714229 6.36161629 95.7299024 0.361616294 103.288382 6.36161629"></polygon>
                <polygon id="Path-10" transform="translate(55.920553, 4.000000) scale(-1, -1) translate(-55.920553, -4.000000) " points="110.518845 0.608385995 111.14058 1.39161401 103.271233 7.63838371 95.7127533 1.63838371 88.1542738 7.63838371 80.5957942 1.63838371 73.0373147 7.63838371 65.4788352 1.63838371 57.9203556 7.63838371 50.3618761 1.63838371 42.8033966 7.63838371 35.244917 1.63838371 27.6864375 7.63838371 20.127958 1.63838371 12.5694785 7.63838371 5.00191825 1.63117538 1.29947272 4.40039492 0.700527281 3.59960508 5.02007959 0.368824624 12.5694785 6.36161629 20.127958 0.361616294 27.6864375 6.36161629 35.244917 0.361616294 42.8033966 6.36161629 50.3618761 0.361616294 57.9203556 6.36161629 65.4788352 0.361616294 73.0373147 6.36161629 80.5957942 0.361616294 88.1542738 6.36161629 95.7127533 0.361616294 103.271233 6.36161629"></polygon>
            </g>
        </g>
    </g>
</svg>