<?xml version="1.0" encoding="UTF-8"?>
<svg width="18px" height="15px" viewBox="0 0 18 15" version="1.1" xmlns="http://www.w3.org/2000/svg" xmlns:xlink="http://www.w3.org/1999/xlink">
    <!-- Generator: Sketch 49.3 (51167) - http://www.bohemiancoding.com/sketch -->
    <title>icons/social/twitter/white</title>
    <desc>Created with Sketch.</desc>
    <defs></defs>
    <g id="icons/social/twitter/white" stroke="none" stroke-width="1" fill="none" fill-rule="evenodd">
        <path d="M16.17791,3.82689424 C16.1835919,3.97272161 16.1865563,4.11880171 16.1865563,4.26564001 C16.1865563,9.54221496 12.2618619,15 5.69410665,15 C3.68642792,15 1.73161535,14.4139105 0.0411335618,13.3046621 C0.00580711193,13.2816633 -0.00876813661,13.2369295 0.00531303571,13.1967448 C0.019394208,13.1568129 0.0591673439,13.132045 0.0999286321,13.1368469 C0.383528383,13.1714714 0.673551125,13.1886573 0.961350524,13.1886573 C2.5233725,13.1886573 4.00214263,12.6945629 5.25289659,11.7571734 C3.75362229,11.6277738 2.4650715,10.5897963 2.00162801,9.10902933 C1.99199352,9.07819582 1.99891059,9.04458223 2.01966179,9.02031979 C2.04066003,8.99605735 2.07277498,8.98544254 2.10340771,8.99125541 C2.51892581,9.07187747 2.94136098,9.07718488 3.34847979,9.00945224 C1.80226825,8.51788512 0.715547604,7.03610723 0.715547604,5.34910953 L0.71604168,5.30007919 C0.716782795,5.26798201 0.733828424,5.23866489 0.761002617,5.22274267 C0.787929771,5.20656771 0.821526954,5.20631497 0.848701146,5.22198447 C1.25186734,5.45096123 1.69801817,5.59805227 2.15577979,5.65441189 C1.26718371,4.92982427 0.745439216,3.83144345 0.745439216,2.65648431 C0.745439216,1.97865242 0.920836274,1.31244629 1.2528555,0.729895031 C1.26767778,0.703863456 1.29386382,0.68718303 1.32301432,0.684908426 C1.35241185,0.681875621 1.38082124,0.695017776 1.39934909,0.718269279 C3.21804367,3.00045492 5.89321937,4.4056545 8.75392069,4.58635912 C8.70624234,4.34070193 8.6820326,4.08746272 8.6820326,3.83194891 C8.6820326,1.71884214 10.3623858,0 12.4276244,0 C13.4429511,0 14.4241864,0.426867281 15.1275039,1.17293727 C15.9202492,1.00764941 16.6754448,0.709423599 17.3730804,0.286347324 C17.4049483,0.266886826 17.4449685,0.269919631 17.474366,0.293423868 C17.5030224,0.317180839 17.5148803,0.356607302 17.5035165,0.39300096 C17.267101,1.14943303 16.8061279,1.80932082 16.1868034,2.28572391 C16.7700603,2.18185035 17.3360247,2.00645313 17.8743207,1.76205961 C17.9103883,1.74512645 17.9531259,1.75574127 17.9790649,1.78682752 C18.0047568,1.8181665 18.0069802,1.86290037 17.9847467,1.89676669 C17.4943761,2.64763862 16.8866623,3.29691159 16.17791,3.82689424 Z" id="Shape" fill="#FFFFFF" fill-rule="nonzero"></path>
    </g>
</svg>