<?xml version="1.0" encoding="UTF-8"?>
<svg width="159px" height="128px" viewBox="0 0 159 128" version="1.1" xmlns="http://www.w3.org/2000/svg" xmlns:xlink="http://www.w3.org/1999/xlink">
    <!-- Generator: Sketch 52.1 (67048) - http://www.bohemiancoding.com/sketch -->
    <title>vashe-mnenie</title>
    <desc>Created with Sketch.</desc>
    <g id="0-Navigation-menu-" stroke="none" stroke-width="1" fill="none" fill-rule="evenodd">
        <g id="0.2.-Main-menu-D" transform="translate(-676.000000, -142.000000)">
            <g id="vashe-mnenie" transform="translate(676.000000, 142.000000)">
                <path d="M12.62746,105.1858 L12.62746,124.56376 L14.46118,125.80276 L14.46118,127.24 L7.52278,127.24 L7.52278,125.80276 L9.30694,124.56376 L9.30694,98.54476 L7.6219,97.30576 L7.6219,95.96764 L11.98318,95.96764 C15.45238,95.96764 16.49314,95.67028 17.08786,98.14828 C18.67378,106.9204 19.56586,112.6198 20.45794,121.34236 L20.55706,121.34236 L24.32362,97.90048 C24.67054,96.16588 25.26526,96.0172 26.99986,96.0172 C29.62654,96.0172 31.06378,95.96764 33.69046,95.96764 L33.69046,97.30576 L32.00542,98.54476 L32.00542,124.5142 L33.8887,125.90188 L33.8887,127.24 L25.31482,127.24 L25.31482,125.90188 L27.1981,124.5142 L27.1981,103.55032 C27.1981,103.59988 27.1981,103.64944 27.34678,99.18904 L27.14854,99.18904 L22.44034,126.89308 L18.5251,126.89308 C17.5339,126.89308 17.08786,126.4966 16.93918,125.60452 C15.5515,116.73328 14.21338,108.35764 12.62746,99.53596 L12.47878,99.53596 L12.62746,105.1858 Z M40.43062,124.762 L40.43062,98.54476 L38.8447,97.30576 L38.8447,95.96764 L46.7743,95.96764 L46.7743,97.30576 L45.18838,98.54476 L45.18838,109.94356 L52.12678,109.94356 L52.12678,98.54476 L50.54086,97.30576 L50.54086,95.96764 L58.4209,95.96764 L58.4209,97.30576 L56.83498,98.54476 L56.83498,124.762 L58.76782,125.90188 L58.76782,127.24 L50.29306,127.24 L50.29306,125.90188 L52.12678,124.762 L52.12678,112.6198 L45.18838,112.6198 L45.18838,124.762 L47.07166,125.90188 L47.07166,127.24 L38.54734,127.24 L38.54734,125.90188 L40.43062,124.762 Z M80.17774,127.24 L63.32734,127.24 L63.32734,125.90188 L65.26018,124.5142 L65.26018,98.39608 L63.6247,97.15708 L63.6247,95.96764 L79.58302,95.96764 L79.58302,102.9556 L77.2537,102.9556 L75.96514,98.743 L70.11706,98.743 L70.11706,110.29048 L74.18098,110.29048 L75.41998,107.86204 L76.80766,107.86204 L76.80766,115.39516 L75.41998,115.39516 L74.18098,113.1154 L70.11706,113.1154 L70.11706,122.7796 C70.11706,123.523 69.91882,123.91948 69.12586,124.16728 L69.12586,124.41508 L76.5103,124.41508 L78.09622,120.25204 L80.17774,120.25204 L80.17774,127.24 Z M86.52142,124.762 L86.52142,98.54476 L84.9355,97.30576 L84.9355,95.96764 L92.8651,95.96764 L92.8651,97.30576 L91.27918,98.54476 L91.27918,109.94356 L98.21758,109.94356 L98.21758,98.54476 L96.63166,97.30576 L96.63166,95.96764 L104.5117,95.96764 L104.5117,97.30576 L102.92578,98.54476 L102.92578,124.762 L104.85862,125.90188 L104.85862,127.24 L96.38386,127.24 L96.38386,125.90188 L98.21758,124.762 L98.21758,112.6198 L91.27918,112.6198 L91.27918,124.762 L93.16246,125.90188 L93.16246,127.24 L84.63814,127.24 L84.63814,125.90188 L86.52142,124.762 Z M121.80814,97.30576 L121.80814,96.0172 L129.68818,96.0172 L129.68818,97.30576 L128.15182,98.54476 L128.15182,124.5142 L129.98554,125.95144 L129.98554,127.24 L121.51078,127.24 L121.51078,125.95144 L123.39406,124.5142 C123.39406,118.22008 123.3445,110.93476 123.3445,104.6902 L121.6099,110.3896 L116.20786,124.56376 L117.99202,125.95144 L117.99202,127.24 L109.51726,127.24 L109.51726,125.95144 L111.35098,124.5142 L111.35098,98.54476 L109.81462,97.30576 L109.81462,96.0172 L117.69466,96.0172 L117.69466,97.30576 L116.1583,98.54476 L116.1583,118.96348 L117.84334,113.3632 L123.39406,98.64388 C122.89846,98.19784 122.3533,97.7518 121.80814,97.30576 Z M151.49458,127.24 L134.64418,127.24 L134.64418,125.90188 L136.57702,124.5142 L136.57702,98.39608 L134.94154,97.15708 L134.94154,95.96764 L150.89986,95.96764 L150.89986,102.9556 L148.57054,102.9556 L147.28198,98.743 L141.4339,98.743 L141.4339,110.29048 L145.49782,110.29048 L146.73682,107.86204 L148.1245,107.86204 L148.1245,115.39516 L146.73682,115.39516 L145.49782,113.1154 L141.4339,113.1154 L141.4339,122.7796 C141.4339,123.523 141.23566,123.91948 140.4427,124.16728 L140.4427,124.41508 L147.82714,124.41508 L149.41306,120.25204 L151.49458,120.25204 L151.49458,127.24 Z" id="мнение" fill="#FFFFFF"></path>
                <path d="M77.4292668,37.76 L82.5868315,37.76 C84.5423485,37.9070377 85.520107,38.8949213 85.520107,40.7236507 C85.520107,42.5523802 84.5654704,43.5850518 82.6561972,43.8216656 L82.6561972,45.9156933 C83.5193494,45.9156933 85.106184,46.2522118 87.4167011,46.9252489 C90.8824768,47.9348045 94.1393403,49.5997583 99.8405339,55.0087888 C103.64133,58.6148091 105.861152,63.4852128 106.5,69.62 L74.64,69.62 L52.22,69.62 C52.8588483,63.4852128 55.0786703,58.6148091 58.8794661,55.0087888 C64.5806597,49.5997583 67.8375232,47.9348045 71.3032989,46.9252489 C73.613816,46.2522118 75.2006506,45.9156933 76.0638028,45.9156933 L76.0638028,43.8216656 C74.1545296,43.5850518 73.199893,42.5523802 73.199893,40.7236507 C73.199893,38.8949213 74.1776515,37.9070377 76.1331685,37.76 L77.4292668,37.76 Z M53.4,71.98 L106.5,71.98 C108.455088,71.98 110.04,73.564912 110.04,75.52 C110.04,77.475088 108.455088,79.06 106.5,79.06 L53.4,79.06 C51.444912,79.06 49.86,77.475088 49.86,75.52 C49.86,73.564912 51.444912,71.98 53.4,71.98 Z" id="Combined-Shape" fill="#FFFFFF"></path>
                <path d="M10.92,83.3566341 C22.9893072,41.158878 45.7710642,20.06 79.265271,20.06 C112.759478,20.06 134.729434,41.158878 145.175139,83.3566341" id="Path-12"></path>
                <path d="M22.8802622,56.0127552 C22.6805956,56.3552917 22.4873867,56.6961222 22.3006297,57.0352569 C22.1138727,57.3743917 21.9125083,57.7104683 21.6965304,58.0434968 C21.2333463,58.8006181 20.7725461,59.5536502 20.3141159,60.3026158 C19.8556858,61.0515814 19.3819762,61.8080151 18.8929728,62.5719397 C18.7788776,62.7676748 18.6729397,62.9681609 18.5751557,63.1734039 C18.4773718,63.378647 18.3843432,63.5757314 18.2960672,63.7646632 C18.1249244,64.0582659 17.9377799,64.2387326 17.734628,64.3060688 C17.5314761,64.373405 17.2817503,64.3425674 16.985443,64.213555 C16.9106901,64.1918346 16.8471468,64.1602581 16.7948114,64.1188247 C16.7424759,64.0773913 16.6789327,64.0458149 16.6041797,64.0240944 C16.2630374,63.9345079 16.0758092,63.8526879 16.0424897,63.778632 C16.0091701,63.7045761 16.0373031,63.4969801 16.1268896,63.1558377 C16.2721296,62.6067478 16.4197444,62.0535883 16.5697383,61.4963427 C16.7197323,60.9390971 16.8673471,60.3859376 17.012587,59.8368476 C17.0736498,59.544639 16.9736925,59.3224746 16.7127124,59.1703477 C16.0738687,58.8416688 15.4414893,58.5112939 14.8155551,58.1792133 C14.189621,57.8471327 13.5572416,57.5167579 12.9183979,57.188079 C12.7620886,57.1188188 12.6146134,57.0437812 12.4759677,56.9629637 L12.0477992,56.7133817 C11.0501078,56.1755283 10.0588861,55.635982 9.07410428,55.0947269 C8.08932247,54.5534718 7.10285463,54.0057701 6.11467115,53.4516053 C5.86049433,53.3252976 5.65660665,53.2064502 5.503002,53.0950596 C5.34939734,52.983669 5.1734196,53.0231361 4.9750635,53.213462 C4.69654521,53.4663283 4.39528629,53.7769555 4.0712777,54.145353 C3.74726911,54.5137504 3.4494118,54.837287 3.17769685,55.1159725 C3.0241758,55.2668726 2.89782815,55.3899022 2.7986501,55.4850652 C2.69947205,55.5802281 2.60232391,55.6437923 2.50720277,55.6757595 C2.41208164,55.7077268 2.30030239,55.7026662 2.17186167,55.6605776 C2.04342096,55.6184889 1.85211506,55.534292 1.59793825,55.4079843 L1.45113765,55.3224133 C0.692705911,55.0114397 0.527421018,54.4889574 0.955278012,53.7549508 C1.17666508,53.3376614 1.4055282,52.9356646 1.64187422,52.5489483 C1.87822025,52.1622321 2.12339438,51.7697431 2.37740397,51.3714695 C2.85009602,50.598037 3.32448179,49.8310708 3.8005755,49.0705479 C4.27666922,48.310025 4.74289948,47.5383049 5.19928027,46.7553645 C5.61492473,46.0797995 5.99081007,45.3974624 6.32694759,44.7083326 C6.66308511,44.0192028 7.04712596,43.3416196 7.47908167,42.6755626 C7.96808498,41.911638 8.45878177,41.1541796 8.95118674,40.4031646 C9.44359171,39.6521497 10.0158436,38.9422302 10.6679595,38.273385 C11.0836875,37.8601107 11.5959232,37.5249542 12.2046817,37.2679056 C12.8134403,37.0108569 13.3943634,36.8577844 13.9474685,36.8086834 C14.6269649,36.7676962 15.220184,36.8184695 15.7271435,36.9610049 C16.2341031,37.1035403 16.7832266,37.3799214 17.3745307,37.7901567 C17.8611638,38.1175251 18.2445354,38.5376732 18.5246568,39.0506136 C18.8047782,39.563554 18.8987756,40.2739405 18.8066517,41.1817946 C18.8501763,41.2945793 18.8896015,41.3394137 18.9249287,41.3162991 C18.9602558,41.2931845 18.9928778,41.3122001 19.0227957,41.3733464 C19.5145873,40.829582 19.9357391,40.397626 20.286264,40.0774653 C20.6367888,39.7573045 20.9825754,39.5108758 21.3236341,39.3381717 C21.5328923,39.2416146 21.7764701,39.1705293 22.0543749,39.1249136 C22.3322798,39.0792978 22.5999965,39.0605263 22.8575332,39.0685983 C23.1150699,39.0766703 23.3630949,39.1010532 23.6016157,39.1417477 C23.8401365,39.1824423 24.034147,39.2245094 24.1836529,39.2679503 C25.1826548,39.6535932 26.0050297,40.2203733 26.6508021,40.9683073 C27.2965746,41.7162414 27.71544,42.6378487 27.9074108,43.7331568 C28.0149535,44.2984745 28.005613,44.8393589 27.8793888,45.3558264 C27.7531647,45.8722938 27.6221886,46.396909 27.4864565,46.9296878 C27.3683462,47.3197639 27.2719578,47.6350823 27.1972885,47.8756524 C27.1226191,48.1162226 27.0285868,48.3618916 26.9151887,48.6126667 C26.8017905,48.8634419 26.6629238,49.1485361 26.4985843,49.467958 C26.3342448,49.7873798 26.0999517,50.2080646 25.7956978,50.7300249 C25.4167746,51.4925553 25.0263,52.237411 24.6242622,52.9646144 C24.2222244,53.6918177 23.8235942,54.4319195 23.4283597,55.1849421 C23.3686075,55.3249401 23.291869,55.4659606 23.198142,55.608008 C23.104415,55.7500554 23.0147671,55.8944775 22.9291957,56.0412789 L22.8802622,56.0127552 Z M23.5649144,48.7085259 C23.8691682,48.1865656 24.1336647,47.6578308 24.3584116,47.1223057 C24.5831585,46.5867805 24.7647476,46.0315717 24.9031842,45.4566625 C25.032113,44.8980646 24.9456368,44.3341078 24.6437531,43.764775 C24.2562143,43.079953 23.8269628,42.6166713 23.3559857,42.3749161 C22.8850085,42.1331608 22.3954132,42.0826942 21.887185,42.2235147 C21.3789568,42.3643352 20.873852,42.6872584 20.3718555,43.192294 C19.8698589,43.6973295 19.3859236,44.3494634 18.9200348,45.1487151 C18.5492254,45.7848542 18.1848763,46.419283 17.8269765,47.0520204 C17.4690767,47.6847578 17.0884166,48.3096788 16.6849847,48.926802 C16.1593437,49.8660517 15.6744464,50.6979135 15.2302782,51.4224122 C14.7861099,52.1469109 14.3895291,52.920987 14.0405238,53.7446638 C13.9020035,54.0572823 13.8419246,54.2353303 13.8602852,54.2788131 C13.8786458,54.3222958 14.039379,54.4214515 14.3424896,54.576283 C14.9487108,54.8859461 15.5892457,55.2210748 16.2641136,55.5816792 C16.9389815,55.9422836 17.5795164,56.2774123 18.1857376,56.5870754 C18.4331111,56.687564 18.5931473,56.7316804 18.6658509,56.7194261 C18.7385545,56.7071717 18.8740823,56.6058831 19.0724384,56.4155572 C19.1362893,56.3435088 19.1960615,56.2690846 19.2517568,56.1922823 C19.3074521,56.11548 19.3590688,56.0363018 19.4066085,55.9547455 C19.8752018,55.1133634 20.2718036,54.4048589 20.5964256,53.8292109 C20.9210476,53.2535629 21.2331039,52.7088447 21.5326038,52.19504 L23.5649144,48.7085259 Z M8.09840394,47.8552402 C7.92455653,48.1909733 7.74663398,48.5243244 7.56463095,48.8553036 C7.38262791,49.1862827 7.20470536,49.5196338 7.03085796,49.855367 C6.93036941,50.1027404 6.88625297,50.2627766 6.89850732,50.3354802 C6.91076167,50.4081838 7.03106585,50.5110896 7.25942348,50.6442007 C7.83982548,50.9606671 8.42837428,51.2818826 9.02508753,51.607857 C9.62180079,51.9338313 10.2103496,52.2550469 10.7907516,52.5715133 C11.0286172,52.6883131 11.1838994,52.740585 11.256603,52.7283307 C11.3293066,52.7160763 11.4322124,52.5957721 11.5653235,52.3674145 C11.8383489,51.9365184 12.0988094,51.5365501 12.3467127,51.1674974 C12.5946161,50.7984447 12.846921,50.3937224 13.1036352,49.9533184 C13.3915778,49.4218502 13.6662791,48.9318436 13.9277473,48.483284 C14.1892154,48.0347244 14.4849816,47.5460701 14.8150546,47.0173065 C15.0052133,46.6910813 15.2299987,46.2867076 15.4894175,45.8041731 C15.7488363,45.3216387 15.9654661,44.912511 16.1393135,44.5767779 C16.3702085,44.1431772 16.5249959,43.7089278 16.6036804,43.2740167 C16.6823649,42.8391055 16.652322,42.38453 16.5135509,41.9102767 C16.2754345,41.0066049 15.7608568,40.3897836 14.9698026,40.0597942 C14.6571841,39.9212739 14.309613,39.8989612 13.9270791,39.9928555 C13.5445452,40.0867497 13.2269335,40.2567258 12.9742344,40.5027888 C12.7921895,40.7026226 12.6203314,40.87561 12.4586547,41.0217561 C12.296978,41.1679021 12.1274968,41.3368118 11.9502059,41.5284899 C11.772915,41.7201681 11.5823898,41.9532971 11.3786245,42.2278839 C11.1748592,42.5024707 10.9446229,42.8599608 10.6879087,43.3003648 C10.2885755,43.9854376 9.83558224,44.7157041 9.32891536,45.4911859 C8.82224849,46.2666678 8.41208212,47.054678 8.09840394,47.8552402 Z M44.5974118,12.2190263 C44.1203087,12.347659 43.6739172,12.4640891 43.258224,12.56832 C42.8425308,12.672551 42.4224574,12.7785234 41.9979913,12.8862404 C41.9032911,12.9035543 41.8225938,12.930541 41.7558971,12.9672015 C41.6892004,13.003862 41.6085031,13.0308488 41.5138029,13.0481627 C41.2542197,13.1106781 41.0675234,13.1137584 40.9537084,13.0574036 C40.8398933,13.0010489 40.7219254,12.8447673 40.5998011,12.5885542 C40.5161381,12.3780062 40.4298331,12.1735907 40.3408832,11.9753015 C40.2519334,11.7770123 40.1656284,11.5725967 40.0819654,11.3620487 C40.0052744,11.1690464 40.0809746,11.0272299 40.3090683,10.9365951 C41.1969254,10.563482 42.0960694,10.2315946 43.0065272,9.94092289 C43.9169851,9.65025123 44.8021855,9.28327301 45.6621549,8.83997723 C46.1394898,8.60967239 46.6150166,8.40040231 47.0887496,8.21216072 L48.5099415,7.64743877 C48.9310375,7.48011291 49.3529697,7.32769157 49.7757507,7.19017016 C50.1985317,7.05264876 50.6204639,6.90022741 51.0415599,6.73290156 L53.5472077,5.67631468 C54.3824278,5.3241173 55.2141495,4.96315249 56.0423977,4.59340944 C56.182763,4.53763415 56.3214412,4.4520557 56.4584365,4.3366715 C56.6586425,4.17585399 56.7920339,4.10253414 56.8586147,4.11670974 C56.9251956,4.13088534 57.0003163,4.24324546 57.0839792,4.45379346 C57.1640403,4.7064047 57.2528729,4.95552626 57.3504797,5.20116559 C57.4480864,5.44680493 57.536919,5.69592648 57.6169801,5.94853773 C57.6761254,6.14851198 57.5986244,6.31135974 57.3844745,6.43708592 C57.1071139,6.6082454 56.8402731,6.78030277 56.5839441,6.95326317 C56.3276152,7.12622358 56.0642603,7.30705364 55.7938716,7.4957588 C55.7131151,7.54816402 55.630617,7.5961821 55.5463746,7.63981449 C55.4621322,7.68344688 55.38312,7.74023766 55.3093355,7.81018855 C55.2004596,7.89408326 55.087199,7.97971966 54.9695504,8.06710033 C54.8519017,8.15448099 54.7666442,8.25946369 54.7137755,8.38205158 C54.6926279,8.43108673 54.7389031,8.50919855 54.8526022,8.61638936 C54.9663014,8.72358017 55.061611,8.82283918 55.1385338,8.91416936 C55.2154566,9.00549954 55.2897348,9.10295765 55.3613707,9.20654662 C55.4330066,9.31013559 55.5107708,9.4163664 55.5946655,9.52524225 C55.755483,9.72544827 55.9101688,9.9230079 56.0587275,10.117927 C56.2072862,10.3128462 56.3584861,10.5016331 56.5123317,10.6842935 C56.6976668,10.8950733 56.8751269,11.0988201 57.0447172,11.2955402 C57.2143075,11.4922603 57.3882817,11.6872344 57.5666449,11.8804685 C57.8534203,12.1931523 58.1463208,12.5084747 58.445355,12.8264453 C58.7443893,13.1444159 59.0513493,13.4439938 59.3662441,13.725188 C60.0799286,14.3964523 60.7541252,15.0833931 61.3888542,15.786031 C62.0235832,16.4886689 62.6205105,17.2367869 63.179654,18.0304073 C63.3404715,18.2306133 63.50393,18.424687 63.6700344,18.6126343 C63.8361388,18.8005815 63.9995973,18.9946552 64.1604148,19.1948612 C64.4575322,19.5846995 64.8534094,19.7118145 65.3480581,19.5762099 C65.512941,19.5310084 65.6822078,19.4840646 65.8558636,19.4353771 C66.0295193,19.3866896 66.2075588,19.3362599 66.3899874,19.2840864 C66.6425986,19.2040253 66.8917202,19.1151928 67.1373595,19.017586 C67.3829989,18.9199793 67.6356063,18.8399194 67.8951895,18.777404 C67.9653721,18.7495163 68.0565271,18.7488476 68.1686571,18.7753979 C68.2807872,18.8019482 68.3560818,18.8380553 68.3945432,18.8837204 C68.5483887,19.0663808 68.6908159,19.2586536 68.821829,19.4605447 C68.952842,19.6624357 69.0514057,19.8721381 69.117523,20.089658 C69.194214,20.2826603 69.1850357,20.4640698 69.0899878,20.633892 C68.9949399,20.8037141 68.8648605,20.9620596 68.6997458,21.1089333 C68.6259613,21.1788842 68.5408197,21.2330316 68.4443186,21.2713771 L68.1679757,21.3811841 C67.6730952,21.6184609 67.1720928,21.8530907 66.6649535,22.0850805 C66.1578142,22.3170704 65.6445532,22.5464134 65.1251551,22.7731164 C64.8338507,22.9091845 64.5250631,23.0268048 64.1987833,23.1259807 C63.8725034,23.2251566 63.56023,23.3340041 63.2619537,23.4525266 C62.7250099,23.6862015 62.1968469,23.916387 61.6774488,24.14309 C61.1580507,24.369793 60.6421463,24.6052653 60.1297201,24.8495139 C59.7331417,25.0274136 59.4088994,25.003886 59.1569835,24.7789306 C59.0240536,24.6489073 58.9042848,24.513657 58.7976734,24.3731758 C58.6910621,24.2326946 58.5941255,24.0782139 58.5068607,23.9097291 C58.3532469,23.6253966 58.3064189,23.4052945 58.3663755,23.2494162 C58.4263321,23.0935379 58.5949882,22.9300215 58.8723488,22.758862 C58.9987703,22.6679954 59.1269329,22.5815165 59.2568403,22.4994227 C59.3867478,22.4173289 59.5149104,22.33085 59.6413319,22.2399834 C59.8309641,22.1036834 60.0223365,21.9717719 60.2154547,21.8442448 C60.408573,21.7167177 60.608718,21.5813203 60.815896,21.4380484 C60.9247718,21.3541537 61.0371319,21.279033 61.1529797,21.2126839 C61.2688275,21.1463349 61.3899603,21.0677282 61.5163818,20.9768616 C61.6990422,20.823016 61.7975166,20.6873868 61.8118081,20.5699699 C61.8260996,20.452553 61.7598095,20.3112893 61.6129358,20.1461746 C61.2737551,19.7527345 60.9292927,19.3715589 60.5795383,19.0026363 C60.2297838,18.6337137 59.8765487,18.256024 59.5198224,17.8695558 C59.3169416,17.6657479 59.0961709,17.6214208 58.8575034,17.7365733 C58.6294098,17.8272081 58.4074488,17.920485 58.1916139,18.0164067 C57.9757791,18.1123284 57.7625908,18.2021194 57.5520428,18.2857823 C57.2150733,18.4603119 56.87288,18.6216798 56.5254526,18.7698908 C56.1780252,18.9181019 55.8358319,19.0794697 55.4988624,19.2539993 C54.4951575,19.6934614 53.4950695,20.0908544 52.4985684,20.4461901 C51.5020672,20.8015257 50.5019792,21.1989187 49.4982743,21.6383809 C49.2420613,21.7605052 48.9867525,21.872112 48.7323403,21.9732047 C48.4779281,22.0742974 48.2226193,22.1859043 47.9664062,22.3080286 C47.7277388,22.423181 47.6045733,22.6244896 47.5969061,22.9119604 C47.6099228,23.3537404 47.6290106,23.8235748 47.6541702,24.3214777 C47.6793298,24.8193806 47.6984177,25.289215 47.7114344,25.7309949 C47.717711,26.0535571 47.8822438,26.1608622 48.2050377,26.0529134 C48.671567,25.9487983 49.1363463,25.8402984 49.5993897,25.7274105 C50.0624331,25.6145226 50.5237265,25.49725 50.9832839,25.3755892 C51.2008038,25.3094719 51.3566798,25.3694276 51.4509165,25.555458 C51.5451532,25.7414885 51.6359025,25.9187434 51.7231673,26.0872282 C51.8104321,26.2557129 51.8889229,26.4276811 51.958642,26.6031377 C52.101682,26.9119878 52.146767,27.1277036 52.0938982,27.2502915 C52.0410294,27.3728793 51.8689454,27.5022054 51.577641,27.6382736 C51.3214279,27.7603979 51.067862,27.8763911 50.8169358,27.9862566 C50.5660096,28.0961222 50.3089579,28.2033427 50.0457729,28.3079213 C49.0911032,28.768531 48.0373626,29.2481903 46.8845196,29.7469137 C45.7316766,30.2456372 44.585154,30.6707435 43.4449174,31.0222455 C42.9570088,31.277068 42.5732744,31.2060751 42.2937026,30.8092649 C42.1888922,30.6477521 42.0972423,30.4810128 42.0187504,30.3090421 C41.9402585,30.1370714 41.8626681,29.9545876 41.7859771,29.7615853 C41.7650614,29.7089482 41.7731075,29.639725 41.8101156,29.5539135 C41.8471238,29.468102 41.8849739,29.3971938 41.923667,29.3411867 C42.1099292,29.1452778 42.3162616,28.9871061 42.5426702,28.8666669 L43.2218927,28.5053508 C43.4483013,28.3849115 43.6677348,28.2469286 43.8801996,28.091398 C44.0926644,27.9358673 44.2833681,27.7128008 44.4523164,27.4221917 C44.8142671,27.0548916 44.9958191,26.6170677 44.996978,26.108707 C44.9740829,25.3864281 44.9242014,24.5834628 44.8473319,23.699787 C44.7704624,22.8161112 44.7328394,22.0184328 44.7344619,21.3067277 C44.725047,20.8228845 44.7173753,20.3434349 44.7114464,19.8683645 C44.7055175,19.3932941 44.689073,18.9173304 44.6621125,18.4404592 C44.6702433,17.949644 44.6556577,17.4272314 44.6183552,16.8732055 C44.5810527,16.3191797 44.5542664,15.7660625 44.5379955,15.2138376 C44.5217246,14.6616127 44.5141687,14.1313277 44.5153276,13.622967 C44.5164865,13.1146062 44.5438476,12.6466306 44.5974118,12.2190263 Z M54.594783,16.7486992 C54.9913614,16.5707996 55.3765178,16.4025178 55.7502637,16.2438489 C56.1240096,16.08518 56.5126518,15.925671 56.9162022,15.765317 C57.1373239,15.6571365 57.1674756,15.5029456 57.0066581,15.3027395 C56.9751686,15.2746201 56.9209633,15.2148962 56.8440405,15.123566 C56.116644,14.3155382 55.3944872,13.5206816 54.6775486,12.7389723 C53.9606099,11.957263 53.2384531,11.1624064 52.5110566,10.3543786 C52.4411057,10.2805941 52.3728989,10.211197 52.3064339,10.1461854 C52.239969,10.0811737 52.1717621,10.0117766 52.1018112,9.93799212 C51.8849866,9.69909292 51.6098946,9.64587727 51.276527,9.77834357 C50.6763725,10.0574518 50.0815137,10.3242972 49.491933,10.5788878 C48.9023522,10.8334785 48.3040076,11.0915512 47.6968812,11.3531137 C47.4231224,11.48221 47.2858974,11.6992631 47.2852021,12.0042795 C47.3020524,12.3023241 47.3232888,12.5986212 47.348912,12.8931798 C47.3745352,13.1877384 47.3922857,13.4752629 47.4021641,13.7557618 C47.4178555,14.5621671 47.4291604,15.3703033 47.436079,16.1801946 C47.4429976,16.9900859 47.4543024,17.7982221 47.4699938,18.6046274 C47.4659284,18.8500349 47.4724367,19.0709216 47.4895188,19.267294 C47.5135728,19.4812121 47.5719907,19.615446 47.6647741,19.6699998 C47.7575575,19.7245536 47.9057351,19.7012266 48.1093112,19.600018 C49.3973485,19.006942 50.5502322,18.4828084 51.5679968,18.0276015 C52.5857613,17.5723946 53.59468,17.1460981 54.594783,16.7486992 Z M107.100344,29.6533857 C103.817961,28.2532354 100.524792,26.8792711 97.2207377,25.5314514 L87.3086249,21.4880126 C86.8406454,21.3350857 86.566262,21.0477653 86.4854663,20.6260427 C86.4046707,20.2043201 86.4735087,19.8036994 86.6919825,19.4241687 C86.7846585,19.2990675 86.892355,19.2363843 87.0150754,19.2361171 C87.1377957,19.23585 87.2587083,19.2399436 87.3778168,19.2483982 C87.7453623,19.2984291 88.1085414,19.3466535 88.4673651,19.3930726 C88.8261888,19.4394917 89.1806463,19.4841043 89.5307483,19.5269116 C89.6251896,19.5455862 89.709102,19.5650095 89.782488,19.5851822 C89.855874,19.6053548 89.9433982,19.6160565 90.0450632,19.6172875 C90.3253909,19.6312004 90.5161172,19.5160537 90.6172478,19.271844 L92.0475164,15.8180389 C92.2570013,15.312176 92.4654261,14.821209 92.6727973,14.3451233 C92.8801685,13.8690375 93.0798718,13.3744588 93.271913,12.8613723 C93.6126539,11.9398606 93.979421,10.9678388 94.3722254,9.94527759 C94.7650297,8.92271641 95.1354086,7.9419729 95.4833731,7.00301765 C95.588731,6.69925373 95.6296912,6.50165221 95.606255,6.41020718 C95.5828188,6.31876214 95.4285584,6.17314218 95.143469,5.97334292 C94.8860431,5.80543444 94.6311759,5.64369518 94.37886,5.48812028 C94.126544,5.33254538 93.8629553,5.16719436 93.5880858,4.99206226 C93.4629847,4.89938625 93.3229971,4.80565482 93.1681188,4.71086515 C93.0132405,4.61607549 92.9544768,4.47424143 92.9918258,4.28535873 C93.0261786,4.05436531 93.0885016,3.8298498 93.1787968,3.61180546 C93.269092,3.39376111 93.3699133,3.17497097 93.4812638,2.95542846 C93.4957111,2.92054137 93.5791822,2.9040213 93.7316796,2.90586777 C93.8841771,2.90771424 94.0076446,2.91797459 94.102086,2.93664911 C95.4464701,3.39120249 96.7081121,3.87279663 97.8870497,4.38144599 C99.0659873,4.89009535 100.290629,5.38701917 101.561012,5.87223234 C101.962213,6.03837548 102.202941,6.20958546 102.283202,6.3858674 C102.363464,6.56214935 102.311802,6.84727503 102.128215,7.24125301 C101.966299,7.58290035 101.820813,7.79852007 101.691752,7.88811863 C101.56269,7.9777172 101.310779,8.00622236 100.93601,7.97363496 C100.705017,7.93928222 100.476581,7.9110967 100.250698,7.88907755 C100.024815,7.86705839 99.808713,7.83376298 99.6023867,7.78919031 C99.3960605,7.74461764 99.2307906,7.71193771 99.1065721,7.69114954 C98.9823536,7.67036136 98.8814393,7.67965792 98.803826,7.71903949 C98.7262127,7.75842106 98.6613753,7.82863554 98.6093118,7.92968501 C98.5572483,8.03073449 98.4914877,8.17719655 98.4120279,8.36907557 C97.9713874,9.43313197 97.5498691,10.4386759 97.1474603,11.3857374 C96.7450515,12.3327989 96.3589017,13.2405989 95.9889992,14.1091644 C95.6190967,14.97773 95.2625899,15.8262843 94.9194682,16.6548528 L93.9063613,19.1012982 C93.8269015,19.2931772 93.7518037,19.4868592 93.6810658,19.68235 C93.6103278,19.8778409 93.5439517,20.0751346 93.4819354,20.2742373 C93.4199192,20.4733399 93.407853,20.6011683 93.4457364,20.6577262 C93.4836198,20.7142842 93.5912758,20.7997353 93.7687076,20.9140821 C95.1846313,21.5413057 96.5569255,22.150461 97.8856314,22.7415664 C99.2143374,23.3326719 100.426646,23.8347056 101.522593,24.2476826 C101.85402,24.3849313 102.101838,24.4773387 102.266054,24.5249077 C102.430269,24.5724767 102.561709,24.5758213 102.660378,24.5349416 C102.759047,24.4940618 102.838331,24.3889608 102.898234,24.2196353 C102.958136,24.0503098 103.049487,23.8173804 103.172288,23.52084 C103.809197,21.8841429 104.481599,20.2110856 105.189513,18.5016179 C105.897427,16.7921502 106.590269,15.1684265 107.268057,13.630398 C107.386632,13.393412 107.492121,13.1510118 107.58453,12.9031904 C107.676939,12.6553689 107.756264,12.4021335 107.822508,12.1434766 C107.910422,11.8324891 107.940106,11.6251091 107.91156,11.5213305 C107.883013,11.4175519 107.743641,11.2729887 107.493439,11.0876367 L106.825826,10.6272552 C106.603287,10.473794 106.37714,10.3290567 106.147377,10.193039 C105.830397,10.0209032 105.64125,9.86083621 105.57993,9.71283324 C105.518611,9.56483027 105.53552,9.32661681 105.630658,8.99818572 C105.656556,8.88630082 105.68862,8.77186265 105.726852,8.65486779 C105.765084,8.53787292 105.818203,8.42193662 105.886212,8.3070554 C106.043901,8.02496232 106.18516,7.86889597 106.309994,7.83885166 C106.434828,7.80880735 106.619347,7.84434997 106.863557,7.94548057 C108.296924,8.5799277 109.682916,9.14366895 111.021575,9.63672123 C112.360233,10.1297735 113.662005,10.6995073 114.92693,11.3459397 C114.996704,11.3748342 115.060003,11.431699 115.116828,11.5165359 C115.173653,11.6013728 115.19123,11.6699556 115.169559,11.7222862 C115.084641,12.0753845 114.934445,12.4627485 114.718968,12.88439 C114.639508,13.076269 114.454507,13.1529173 114.163959,13.1143373 C113.684529,13.0384082 113.20841,12.9791745 112.735588,12.9366343 C112.262765,12.8940942 111.783034,12.8435821 111.29638,12.7850966 C110.998609,12.7639601 110.784714,12.9103816 110.654689,13.2243654 C109.829432,15.0691542 109.039381,16.9029464 108.284513,18.7257971 C107.529645,20.5486478 106.778093,22.3881654 106.029833,24.2444051 C105.94315,24.4537277 105.863384,24.6710197 105.790532,24.8962876 C105.71768,25.1215556 105.692358,25.3307414 105.714563,25.5238514 C105.723552,25.6501836 105.770598,25.7462958 105.855702,25.812191 C105.940806,25.8780862 106.035687,25.9327038 106.140348,25.9760455 C106.24501,26.0193872 106.351475,26.0583674 106.459748,26.0929873 C106.568021,26.1276073 106.674487,26.1665875 106.779148,26.2099292 C108.055524,26.7793638 109.300913,27.3002053 110.515353,27.7724694 C111.729793,28.2447335 112.957739,28.7583515 114.199227,29.3133389 C114.391106,29.3927987 114.530211,29.4146433 114.616546,29.3788736 C114.702881,29.3431038 114.789389,29.2205595 114.876072,29.0112369 C115.059659,28.6172589 115.230161,28.2178692 115.387582,27.8130558 C115.545003,27.4082424 115.698062,27.0016292 115.846761,26.593204 C116.096591,25.9405691 116.366416,25.3013343 116.656243,24.6754802 C116.946071,24.0496261 117.210785,23.3980578 117.450396,22.7207558 C117.606319,22.2948871 117.784659,21.8272223 117.985422,21.3177477 C118.186185,20.808273 118.386196,20.2882784 118.585461,19.7577484 C118.784726,19.2272183 118.984737,18.7072238 119.1855,18.1977491 C119.386263,17.6882744 119.564604,17.2206097 119.720527,16.7947409 C119.778316,16.6551925 119.799853,16.5415034 119.785138,16.4536702 C119.770424,16.365837 119.700517,16.2755837 119.575416,16.1829077 C119.280107,15.9584413 118.965553,15.7311155 118.631744,15.5009237 C118.297936,15.2707318 117.976159,15.0608493 117.666402,14.87127 C117.411972,14.7454722 117.328101,14.5779146 117.414784,14.368592 C117.4768,14.1694894 117.539565,13.9809172 117.603079,13.80287 C117.666593,13.6248227 117.734468,13.4485839 117.806704,13.2741485 C117.871716,13.1171565 117.931002,12.9986653 117.984564,12.9186712 C118.038126,12.838677 118.093934,12.7902667 118.15199,12.7734386 C118.210046,12.7566106 118.290654,12.7593397 118.393817,12.781626 C118.496981,12.8039123 118.635778,12.8511729 118.810213,12.923409 C119.577729,13.2412481 120.295459,13.5435785 120.963424,13.8304095 C121.631389,14.1172404 122.274984,14.388871 122.89423,14.6453093 L126.570439,16.1676785 C126.762318,16.2471383 126.875392,16.3195069 126.909664,16.3847867 C126.943935,16.4500664 126.938785,16.5858673 126.894212,16.7921936 C126.850871,16.8968549 126.81189,17.0033205 126.77727,17.1115935 C126.74265,17.2198666 126.70367,17.3263322 126.660329,17.4309935 C126.60254,17.5705419 126.556028,17.7198666 126.520793,17.8789722 C126.485557,18.0380778 126.422218,18.1293473 126.330773,18.1527835 C126.165327,18.2068795 125.993274,18.2275862 125.814612,18.2149043 C125.635949,18.2022224 125.460901,18.1808191 125.289461,18.1506936 C124.904472,18.0934391 124.533628,18.0267147 124.176918,17.9505184 C123.820208,17.8743221 123.452976,17.7988761 123.075211,17.724178 C122.826774,17.6826016 122.651993,17.7839168 122.550862,18.0281264 C121.721912,20.1779101 120.869671,22.2975771 119.994116,24.387191 C119.11856,26.4768049 118.343665,28.4343724 117.669407,30.2599522 C117.553829,30.539049 117.603697,30.7640464 117.819012,30.9349512 C117.979,31.0420745 118.131014,31.1561119 118.275057,31.2770668 C118.419099,31.3980218 118.583446,31.5069493 118.768102,31.6038526 C119.199963,31.8439973 119.54337,32.1496842 119.798334,32.5209226 C119.960088,32.7718216 119.994011,33.0106505 119.900104,33.2374166 C119.853766,33.2999672 119.805315,33.3922935 119.75475,33.5143983 C119.628952,33.7688279 119.524077,33.9603963 119.440123,34.0891093 C119.356169,34.2178223 119.26922,34.3044232 119.179273,34.3489147 C119.089326,34.3934063 118.970968,34.3954793 118.824196,34.355134 C118.677424,34.3147886 118.473215,34.2404399 118.211561,34.1320857 C117.367048,33.8027957 116.527964,33.4604282 115.694285,33.1049729 C114.860607,32.7495177 114.025135,32.3984285 113.187845,32.051695 C112.036571,31.5749364 110.969668,31.1535517 109.987103,30.7875282 C109.004539,30.4215046 108.042296,30.0434609 107.100344,29.6533857 Z M139.427567,59.3252967 L141.863601,64.282096 L141.972488,64.5125466 C142.158939,64.8629612 142.304451,65.0604427 142.409029,65.104997 C142.513606,65.1495513 142.756761,65.1338475 143.1385,65.0578852 L144.334921,64.8058023 C144.73373,64.7217743 145.123998,64.6417803 145.505737,64.565818 C145.776987,64.5211796 145.962646,64.5274216 146.062722,64.584544 C146.162797,64.6416664 146.260758,64.7937516 146.356608,65.0408043 C146.460524,65.3049275 146.536208,65.5093008 146.583664,65.6539305 C146.631119,65.7985602 146.636837,65.9211457 146.600818,66.0216907 C146.564799,66.1222356 146.484558,66.2175725 146.360093,66.3077041 C146.235627,66.3978358 146.049402,66.5119282 145.80141,66.6499848 C145.271286,66.9422294 144.688177,67.2438474 144.052066,67.5548479 C143.415955,67.8658483 142.832847,68.1674664 142.302722,68.459711 L141.79061,68.701682 C141.619905,68.7823394 141.453001,68.8820822 141.289892,69.0009134 C141.126783,69.1197447 140.977888,69.1692158 140.843202,69.1493282 C140.733652,69.1384455 140.662747,69.0988637 140.630484,69.0305817 C140.598221,68.9622997 140.570461,68.8814508 140.547203,68.7880326 C140.523945,68.6946144 140.504954,68.5991812 140.490232,68.5017301 C140.475509,68.404279 140.452016,68.3214137 140.419753,68.2531317 C139.867527,67.2611649 139.364268,66.2513001 138.909962,65.2235071 C138.455657,64.195714 137.960933,63.1818164 137.425778,62.1817838 C136.914819,61.2329628 136.435523,60.2848603 135.987874,59.3374478 C135.540226,58.3900353 135.082032,57.4424022 134.61328,56.4945202 C134.394566,56.0758236 134.201226,55.6555863 134.033254,55.2337958 C133.865282,54.8120053 133.689012,54.3837024 133.504439,53.9488743 C133.191754,53.1987115 132.864019,52.4608931 132.521225,51.7353971 C132.178431,51.009901 131.760843,50.3249787 131.268447,49.6806095 C131.022719,49.3373215 130.931842,49.0566016 130.995814,48.8384412 C131.059787,48.6202809 131.275512,48.4139454 131.642997,48.2194286 L132.027082,48.0379504 C132.214857,47.9492273 132.366238,47.8829207 132.481229,47.8390286 C132.59622,47.7951366 132.699954,47.782665 132.792433,47.8016135 C132.884912,47.8205621 132.98297,47.873416 133.086609,47.960177 C133.190247,48.046938 133.312032,48.1721058 133.451967,48.335684 C133.72377,48.64577 133.997586,48.9601189 134.273423,49.2787401 C134.549259,49.5973613 134.823075,49.9117102 135.094878,50.2217962 C135.301217,50.4375249 135.442088,50.5588946 135.517497,50.5859089 C135.592906,50.6129231 135.758636,50.5659379 136.014694,50.4449518 C136.509738,50.2110454 136.998491,49.9748913 137.480967,49.7364825 C137.963444,49.4980737 138.452197,49.2619196 138.947241,49.0280132 C139.587854,48.7044446 140.239009,48.3811156 140.900726,48.0580166 C141.562442,47.7349175 142.209564,47.4030534 142.842112,47.0624143 C143.423447,46.7459725 144.011059,46.4317865 144.604962,46.1198471 C145.198866,45.8079076 145.786478,45.4937216 146.367813,45.1772798 C146.419025,45.1530825 146.468219,45.1246181 146.515398,45.0918857 C146.562576,45.0591532 146.615804,45.0392239 146.675081,45.0320972 C147.338013,44.8441536 147.613677,44.4111259 147.502081,43.7330011 C147.479762,43.5973762 147.478546,43.4622228 147.498434,43.3275368 C147.518321,43.1928509 147.525641,43.0536647 147.520392,42.909974 C147.508956,42.6647994 147.512338,42.4178468 147.530541,42.1691087 C147.548743,41.9203707 147.480282,41.6760424 147.325154,41.4361165 C147.260629,41.2995525 147.263446,41.1729342 147.333606,41.0562578 C147.632255,40.5392797 148.061828,40.2110209 148.622337,40.0714717 C148.664544,40.0724107 148.725367,40.0906547 148.804809,40.1262043 C148.884251,40.1617538 148.923501,40.2006313 148.922562,40.242838 C149.471586,41.7583561 150.114488,43.2294905 150.851287,44.6562854 C151.588087,46.0830803 152.290734,47.525985 152.959252,48.9850429 C153.675224,50.5887305 154.425327,52.1762627 155.209582,53.7476873 C155.508014,54.3792957 155.817228,55.0005778 156.137233,55.6115522 C156.457239,56.2225267 156.774988,56.839776 157.090491,57.4633186 C157.267937,57.8388695 157.434829,58.21418 157.591172,58.5892614 C157.747515,58.9643428 157.893304,59.3391838 158.028543,59.7137957 C158.156656,60.0291304 158.185163,60.2662357 158.114064,60.4251189 C158.042965,60.584002 157.845248,60.7400658 157.520909,60.8933148 C156.829084,61.2410806 156.143789,61.5805408 155.465002,61.9117056 C154.786215,62.2428704 154.088351,62.5778283 153.371391,62.9165894 L153.089729,63.0496734 C152.954104,63.0719926 152.838037,63.0694103 152.741525,63.0419265 C152.645013,63.0144428 152.585598,62.9328896 152.563279,62.7972647 C152.497261,62.3481831 152.316254,61.9429997 152.020253,61.5817022 C151.987051,61.555627 151.982176,61.4900667 152.005626,61.3850193 C152.029077,61.279972 152.062375,61.2068156 152.105521,61.1655479 C152.483889,60.8614814 152.820749,60.524826 153.116112,60.1555714 C153.411475,59.7863168 153.719167,59.4321216 154.039197,59.0929752 C154.26393,58.8615004 154.303235,58.6132356 154.157113,58.3481734 C153.994859,58.0489702 153.853241,57.7713441 153.732255,57.5152866 C153.611269,57.2592292 153.49882,56.9991428 153.394905,56.7350196 C153.290989,56.4708965 153.170474,56.1937398 153.033357,55.9035414 C152.896239,55.613343 152.726392,55.275971 152.523809,54.8914153 C152.329292,54.5239302 152.151849,54.1483849 151.991473,53.7647683 C151.831097,53.3811516 151.662189,53.0015735 151.484742,52.6260226 C151.112779,51.8829866 150.747106,51.1422128 150.387711,50.4036791 C150.028316,49.6651454 149.662643,48.9243717 149.29068,48.1813356 C149.249412,48.1381899 149.208614,48.0739417 149.168286,47.9885892 C148.988961,47.6974518 148.85958,47.5341108 148.780139,47.4985612 C148.700697,47.4630117 148.511378,47.5263629 148.212175,47.6886167 C147.622773,47.9879881 147.037648,48.2853385 146.456781,48.580677 C145.875915,48.8760155 145.294823,49.1819011 144.713487,49.498343 C144.525711,49.5870661 144.420334,49.6733983 144.397353,49.7573423 C144.374372,49.8412862 144.407242,49.9771439 144.495965,50.1649194 C144.681477,50.5575408 144.869238,50.9438723 145.059252,51.3239256 C145.249266,51.7039789 145.445562,52.0862776 145.648144,52.4708333 C145.882051,52.9658776 146.105637,53.4501283 146.318909,53.9235998 C146.532182,54.3970713 146.764303,54.8772891 147.01528,55.3642678 C147.249187,55.8593122 147.489608,56.3460487 147.736552,56.8244921 C147.983496,57.3029355 148.232453,57.7856393 148.48343,58.2726179 C148.644745,58.6140278 148.700638,58.8538538 148.651112,58.9921031 C148.601586,59.1303524 148.422722,59.2931696 148.114514,59.4805596 C147.951874,59.5782875 147.797773,59.6719811 147.652204,59.7616433 C147.506635,59.8513054 147.356567,59.9535342 147.201993,60.0683325 C146.918921,60.2647273 146.693445,60.3399422 146.525557,60.2939794 C146.357669,60.2480166 146.188568,60.0669011 146.018248,59.7506274 C145.541431,58.7856749 145.083472,57.8274903 144.644359,56.876045 C144.205246,55.9245996 143.747287,54.966415 143.270469,54.0014625 C143.067887,53.6169068 142.87811,53.2263077 142.701133,52.8296535 C142.524157,52.4329992 142.33438,52.0424001 142.131797,51.6578444 C141.969544,51.3586413 141.84443,51.1932838 141.756453,51.1617672 C141.668477,51.1302505 141.479392,51.1830502 141.189193,51.3201678 C140.557585,51.6186001 139.928003,51.9212955 139.300427,52.2282631 C138.672852,52.5352307 138.047302,52.8464613 137.423759,53.1619641 C137.235984,53.2506872 137.099187,53.3257637 137.013365,53.3871958 C136.927543,53.4486278 136.875394,53.5150308 136.856915,53.5864066 C136.838436,53.6577824 136.851142,53.7509645 136.895034,53.8659556 C136.938926,53.9809467 137.005233,54.1323277 137.093956,54.3201031 C137.506247,55.1484917 137.903714,55.9786495 138.286367,56.8106014 C138.66902,57.6425533 139.057951,58.4767438 139.453173,59.3131981 L139.427567,59.3252967 Z" id="в-а-ш-е" fill="#FFFFFF"></path>
                <path d="M46.1619519,46.2184152 L16.82,17.7" id="Path-13" stroke="#FFFFFF" stroke-width="1.18"></path>
                <path d="M111.22,49.9648775 L146.412893,23.6" id="Path-15" stroke="#FFFFFF" stroke-width="1.18"></path>
                <path d="M114.76,64.7456508 L126.963026,61.36" id="Path-16" stroke="#FFFFFF" stroke-width="1.18"></path>
                <path d="M44.7141693,66.8173065 L33.34,63.72" id="Path-17" stroke="#FFFFFF" stroke-width="1.18"></path>
                <path d="M95.88,41.7414221 L101.608581,34.22" id="Path-18" stroke="#FFFFFF" stroke-width="1.18"></path>
                <path d="M65.6893482,42.9959022 L60.48,35.4" id="Path-19" stroke="#FFFFFF" stroke-width="1.18"></path>
                <path d="M79.36,30.698553 L79.36,-1.42108547e-14" id="Path-20" stroke="#FFFFFF" stroke-width="1.18"></path>
                <path d="M42.5802255,76.3860737 L1.48,74.34" id="Path-21" stroke="#FFFFFF" stroke-width="1.18"></path>
                <path d="M119.48,77.1676053 L158.688432,75.52" id="Path-22" stroke="#FFFFFF" stroke-width="1.18"></path>
            </g>
        </g>
    </g>
</svg>