<?xml version="1.0" encoding="UTF-8"?>
<svg width="17px" height="10px" viewBox="0 0 17 10" version="1.1" xmlns="http://www.w3.org/2000/svg" xmlns:xlink="http://www.w3.org/1999/xlink">
    <!-- Generator: Sketch 49.3 (51167) - http://www.bohemiancoding.com/sketch -->
    <title>icons/social/vk/white</title>
    <desc>Created with Sketch.</desc>
    <defs></defs>
    <g id="icons/social/vk/white" stroke="none" stroke-width="1" fill="none" fill-rule="evenodd">
        <path d="M14.6305101,6.35800374 C15.193811,6.92992847 15.7897526,7.46818033 16.2954375,8.09922538 C16.5194719,8.37837606 16.7306479,8.6670374 16.8913791,8.99168501 C17.1208537,9.45462274 16.9136342,9.96228627 16.5150209,9.98979006 L14.0390195,9.98927597 C13.3995569,10.0442836 12.8906574,9.77618581 12.4616289,9.32173056 C12.1191479,8.95955441 11.8013948,8.57270195 11.4715251,8.19818764 C11.3367582,8.04447483 11.1948202,7.89975859 11.0256816,7.78588774 C10.6881462,7.55763193 10.3948737,7.62754813 10.2015018,7.99409405 C10.0044207,8.36706609 9.95941596,8.78039416 9.94062278,9.19552156 C9.9136694,9.80240439 9.73760699,9.96100104 9.1518038,9.98953302 C7.90007915,10.0504526 6.71239967,9.85304222 5.60854766,9.19706382 C4.63476424,8.61845592 3.88105883,7.80182452 3.22428667,6.87723428 C1.94536136,5.07483597 0.965890527,3.096619 0.0858257208,1.06159513 C-0.112244498,0.603284203 0.0326608056,0.358063441 0.51905796,0.348552782 C1.32716467,0.332358958 2.13527138,0.334415317 2.9433781,0.347781648 C3.27225873,0.353179589 3.48986397,0.548790701 3.61622337,0.871381955 C4.05291751,1.98824172 4.58827585,3.05086502 5.25914289,4.03637488 C5.43792538,4.29881765 5.62041704,4.56048928 5.88030693,4.7458186 C6.16715019,4.95042628 6.38574454,4.88282349 6.52100597,4.54995044 C6.60755351,4.33840255 6.64489259,4.1122031 6.66368577,3.88548957 C6.72797823,3.10895715 6.73564386,2.33268178 6.62436846,1.55923391 C6.55513043,1.0752185 6.29326231,0.762651995 5.82912024,0.671144037 C5.59272183,0.624618924 5.62734084,0.533625056 5.74232543,0.393278582 C5.94187932,0.150628267 6.128822,0.000514089649 6.50246007,0.000514089649 L9.29992373,0 C9.74082161,0.0899656886 9.83973308,0.295601548 9.89957452,0.757254053 L9.90204731,3.98882159 C9.89685445,4.16746774 9.98834756,4.69698008 10.2969514,4.81393548 C10.54423,4.89876027 10.707434,4.69261032 10.8553066,4.52990094 C11.5261736,3.78986889 12.0041633,2.91643058 12.4322027,2.01240393 C12.6211236,1.61372741 12.7840803,1.20117047 12.9423386,0.787842387 C13.0600433,0.482216091 13.2430295,0.331844869 13.5748775,0.336985765 L16.2687314,0.340327348 C16.3481078,0.340327348 16.4287207,0.341098482 16.5073553,0.355235948 C16.9613589,0.435948023 17.0857401,0.639013434 16.9452858,1.09938071 C16.7242187,1.82270485 16.2946956,2.42521792 15.8748164,3.02927326 C15.4247692,3.67599804 14.9448013,4.30010287 14.4992052,4.94965514 C14.0897117,5.54342869 14.1221052,5.84237182 14.6305101,6.35800374 Z" id="Shape" fill="#FFFFFF" fill-rule="nonzero"></path>
    </g>
</svg>